<svg xmlns="http://www.w3.org/2000/svg" viewBox="0 0 799.88 599.85"><defs><style>.cls-1{fill:#ec5242;}.cls-2{fill:#414246;}</style></defs><g id="Layer_2" data-name="Layer 2"><g id="Layer_1-2" data-name="Layer 1"><path class="cls-1" d="M401,599.5c-14.06,0-28.39.88-42.57-.17-36.35-2.71-72.64-6.31-109-9.46a13.7,13.7,0,0,1-9.45-4.69c-33.08-35.57-54.81-77.6-69.87-123.3C151,403.83,143.91,344.11,146.55,283.13,149,226.41,159.77,171.48,181.92,119c15.9-37.63,37-71.84,66.57-100.52,6.26-6.07,12.81-9.47,21.66-10.4C315.75,3.3,361.43.39,407.28,0c.8,0,1.61.1,2.9.18A17.94,17.94,0,0,1,408.8,3c-34.95,46.48-57.41,98.8-71.94,154.74-17.26,66.43-22.06,133.91-16.11,202.19,6,69.2,23,135.4,55.46,197.15C383.79,571.46,392.62,585.22,401,599.5Z"/><path class="cls-2" d="M614.06,18.5c-15.34,9-27,20.19-37.06,33.16-19.43,25.07-32.31,53.48-42.09,83.39-18.4,56.3-25.18,114.3-24.46,173.31.69,55.62,8.18,110.19,26.32,163,10.13,29.47,23.28,57.4,43.3,81.61a147.81,147.81,0,0,0,15.23,15.82c5.42,4.84,11.5,8.93,17.86,13.79-8.18,1.41-16,2.9-24,4.1A1189.23,1189.23,0,0,1,465,599.21a9.92,9.92,0,0,1-8.94-3.88c-27.55-32.21-46.78-69.08-61-108.72-17.8-49.6-26.85-100.89-29.24-153.44-2.94-64.46,4-127.73,23.2-189.43,13.88-44.55,33.64-86.18,63.62-122.4,4.88-5.9,10.19-11.45,15.54-16.93a7.54,7.54,0,0,1,5.14-2.1A1156.52,1156.52,0,0,1,614.06,18.5Z"/><path class="cls-2" d="M174.81,577.17c-4.42-.85-8.13-1.65-11.87-2.26-9.5-1.55-19-3.12-28.53-4.48-25.19-3.61-44.83-17-61.63-35.17C49.75,510.36,35,480.65,23.87,449c-13.22-37.46-20-76.22-22.7-115.75C-2.73,275.52,3,218.81,20.07,163.46c10.42-33.83,25.09-65.62,48.28-92.83,16.21-19,35.28-34.13,60.51-39.08,18.23-3.58,36.65-6.18,55.39-9.28-58.75,82.48-83.34,175.65-84.83,275.46S119.69,491.58,174.81,577.17Z"/><path class="cls-2" d="M612.26,534.51c24.14,10.16,41.51,6.72,59.65-12.39,17.36-18.27,27.63-40.64,35.83-64,13-37.17,19.4-75.68,22.29-114.84a565.49,565.49,0,0,0-3.16-116.69c-5.69-42.63-15.2-84.2-36.34-122.24-7.34-13.19-16.2-25.28-28.62-34.25-14.91-10.76-30.67-13-47.36-4.16-.66.35-1.4.58-2.71,1.11,27.84-37.36,68.38-50.71,106-20.38,18,14.54,30.48,33.35,40.8,53.7,16.87,33.26,26.78,68.78,33.07,105.34,6,35,9.06,70.41,8,106-1.69,56.91-9.46,112.78-30.78,166.07-10.15,25.38-22.63,49.53-42.62,68.65A115.36,115.36,0,0,1,700,565c-16.08,8.32-33.06,8.06-49.75.89C634.53,559.16,622.48,547.87,612.26,534.51Z"/><path class="cls-1" d="M675.47,387.79c-.25,14.61-1.48,27.87-6.76,40.34a43.94,43.94,0,0,1-6.62,11.06c-5.5,6.53-12.48,6.49-17.81-.21a42.12,42.12,0,0,1-7.06-12.51c-8.4-25-8.3-50,0-75a40.64,40.64,0,0,1,4.7-9.33c6.84-10.4,16.09-10.73,22.37-.1,3.82,6.47,5.94,14,8.36,21.2a51.92,51.92,0,0,1,2,11.29C675.14,379.34,675.26,384.18,675.47,387.79Z"/></g></g></svg>