<svg xmlns="http://www.w3.org/2000/svg" viewBox="0 0 435.2 382.68"><defs><style>.cls-1{fill:#fff;}</style></defs><g id="Layer_2" data-name="Layer 2"><g id="Layer_1-2" data-name="Layer 1"><path class="cls-1" d="M56.12,244.33c-.26,0-.51,0-.77-.05,1.81-5.58-2.71-8.5-5.27-12.1-4.63,7.86,2,26.29,11.59,28.09-24.16,12.92-43,31-61.67,49.26A37.76,37.76,0,0,0,8,304c16.06-15.88,33.45-30,53-41.46a5.62,5.62,0,0,1,3.56-1c13.57,3.08,27.1,6.31,40.64,9.54a3.76,3.76,0,0,1,2.08,1.05c4.38,6,8.67,12,13.12,18.25-2.48,2.94-5,6-7.65,9-7.51,8.54-8,11.87-1.59,21.1,8.6,12.31,20.13,21.67,32.54,29.82,22.67,14.87,46.59,27,73.66,31.76,11.19,2,17.88-.41,21.31-8.69a81.21,81.21,0,0,0,3.54-10.91,411.79,411.79,0,0,1,36.16-93.33,288.05,288.05,0,0,1,32.63-49c5-6,5.48-8.43-.37-13.29-8.44-7-17.44-13.31-26.22-19.89-1.81-1.35-3.72-2.58-5.59-3.86.51-1.09.75-1.71,1.08-2.28,8.17-14,13.34-29.57,24-42.33,5.89-7,9.4-16.05,14.12-24.09a6.72,6.72,0,0,1,3.34-3c8.82-2.51,13.6,6.67,21.31,7.59.21,0,.32.57.54.8,2.8,3,13,3.87,16.43,1.8a13.16,13.16,0,0,1,6.14-2.08c21-.52,41.94-.83,62.91-1.24a23.4,23.4,0,0,0,3.29-.51l-.17-1.43H362.72l0-2.09H435l.22-2.19L430,110.71l1.66-1.89c-1.62-.09-2.71-.22-3.81-.22-17.48.09-35,.35-52.44.18-3.61,0-7.22-1.67-10.83-2.57l.16-1.86,6.39-1.71-5.32-.86,0-1.47h21.08c0-.6,0-1.2,0-1.8H366.16c0-.51,0-1,0-1.51l10.33-1.08,0-.46L366.52,95,365,75.47l14-.74,0-1.33H364.26l0-1.84h27.43c0-.6,0-1.21,0-1.81H363.52l0-1.84h59.78c-9.48-.66-18.93-.65-28.37-.66-9.67,0-19.33,0-29-.1-1.43,0-3.45,0-4.18-.86-4.22-5-10.63-3.87-14.32-2.17-5.39,2.49-10.24,6.65-15.91,9.14-1.69.73-3.23,2.08-5,2.35a57,57,0,0,1-8.48.29c-6.07,0-8.9-4.2-7.08-10.23,1.61-5.38,2.28-10.67-1.57-15.67-3.4-4.41-4.24-9.29-2.8-15,2.26-8.85,3.44-18,5.7-26.83,1.16-4.57-.71-6.16-4.43-7.11C300.3-.83,292.79,0,285.29,2,281.5,3.1,280.38,5,281.5,9a182.91,182.91,0,0,1,5,21.37c1,6.46,4.31,13.16.17,19.64-3.42,5.35-2.86,10.66-.7,16.19,2.51,6.44-.17,10.71-7.06,9.91-10-1.16-19.26,1.68-28.62,4.18-.84.22-1.59,1.52-2,2.48-3,6.9-2.22,14-.94,21.11.26,1.44,1.59,3.47,2.82,3.81a101.77,101.77,0,0,0,16,3.41c5.18.56,10.47.12,15.31.12-1.95,8.94-3,17.1-5.59,24.77-3.68,11-8.41,21.72-12.82,32.51-.57,1.4-1.91,2.48-2.9,3.71l.14.14c-3.05-1.83-5.95-4.07-9.2-5.44-13-5.43-26-10.88-39.19-15.75-6.25-2.31-8.6-.57-11,5.39-1.81,4.44-3.88,8.77-6,13.53l-4.68-2.25c2.68-3.36,5-6.38,7.44-9.27s1.12-4.52-1.48-6.4c-7.38-5.35-14.74-10.76-21.83-16.49-5.61-4.53-10.93-9.09-18.57-10-10-1.19-20-3.21-30.05-4.28-9.29-1-18.63-1.45-26.69,5.1-3.58,2.91-7.92,4.86-11.61,7.65-10.3,7.83-21,15.29-30.42,24.06-5.62,5.23-10.88,10.46-17.59,14.41-6.2,3.63-11.67,8.5-17.47,12.82l.85,1.07c3-2.31,6-4.6,9-7,8.68-6.86,19.67-10.67,26.51-20l-1.18,5.59,11.22-11.53-.75-.53-3.82,1.65c3.68-3.27,7.14-6.85,11.1-9.74C81.77,140,89,135.33,97,129.87c-.18,3-.27,4.41-.43,7.06,2.17-5,13.37-10.73,18.67-10.44.21,0,.36,1.24.56,2l4.35-4.22-14.36.79c17.42-6.1,33.81,2.66,50.77,2.61-1.12,4.46-2.1,8.4-3.09,12.35l.53,0,5.29-11.65,1.27.62-2.72,7c1.81-.91,2.39-2.43,3.34-3.68.71-.95,2.58-2.37,2.74-2.22,6.11,5.34,12.17,10.74,18,16.38,1.7,1.65,2.68,4,4,6.08l1.11-.8-3.74-4.18.91-.93,13.12,8.82a12.45,12.45,0,0,0-1.88,2.07c-4.08,8-5.3,8.6-13.56,6.71-1.29-.29-2.63-.38-4-.58-9.9-1.55-19.53-3.53-23.38-15.18.76,6.17-3.14,6.63-7.38,6.89s-8.56.7-14,1.15l4.15,4.81-6.62,2.24,5.26,1c-3,14.09-25.82,24.55-38.17,27.59a85.31,85.31,0,0,1,12.51-6.58c4.36-1.7,8.51-3.24,10.17-7.93-3.9-1.84-4.79,6.48-9.32,2.13-.66,1-1.49,2.33-2.74,4.28l.2-2.81-6.13,4.27-.84-1.94-2.77,4.12c-2.49-2.29-4.85-4-8.43-2.47s-7,3.19-9.05,7.84H95.26l0,1.21H78.75c20.32,5.75,35.23-6.48,51.37-15.38-4.69,7.15-16.15,10.76-11.64,21.37-9.21,7.95-17.42,16.62-30.18,17l.07,1.21,9.82,2.33,1.63-4.31.56.13v5.08l2.4-5.92,1.22,3.33L93.71,245.13l.93.42,5.36-11c4.85,12,3.73,22.8,1.72,34l-39.08-8.88,6.07-8.6c-3,2.21-4.7,3.88-6.75,4.8-1,.46-2.67-.43-4-.71a26.17,26.17,0,0,1,1.27-3.51c.75-1.46,1.72-2.81,2.51-4.05l-5.64.32,1-1.69,1-2.21-2,.37Z"/><path class="cls-1" d="M30.45,186.58l5.41-2.14.66,1.31,2.86-6.53,1,4.19c1.24-2.85,2.14-4.94,3.47-8C37.61,177.47,33,179.51,30.45,186.58Z"/><path class="cls-1" d="M383.22,102.8l.09.6h38.52l0-.6Z"/><path class="cls-1" d="M408,107.65l0-.89H377.62l0,.89Z"/><path class="cls-1" d="M400.05,77.61l.21-.67H373.2l0,.67Z"/><path class="cls-1" d="M386.3,73.51v.9h20.52v-.9Z"/><path d="M56.07,248l5.64-.32c-.79,1.24-1.76,2.59-2.51,4.05a26.17,26.17,0,0,0-1.27,3.51c1.36.28,3,1.17,4,.71,2.05-.92,3.76-2.59,6.75-4.8l-6.07,8.6,39.08,8.88c2-11.23,3.13-22-1.72-34l-5.36,11-.93-.42L104,219.19l-1.22-3.33-2.4,5.92V216.7l-.56-.13-1.63,4.31-9.82-2.33-.07-1.21c12.76-.36,21-9,30.18-17-4.51-10.61,7-14.22,11.64-21.37-16.14,8.9-31.05,21.13-51.37,15.38H95.23l0-1.21H81.38c2-4.65,5.4-6.28,9.05-7.84s5.94.18,8.43,2.47l2.77-4.12.84,1.94,6.13-4.27-.2,2.81c1.25-2,2.08-3.26,2.74-4.28,4.53,4.35,5.42-4,9.32-2.13-1.66,4.69-5.81,6.23-10.17,7.93a85.31,85.31,0,0,0-12.51,6.58c12.35-3,35.13-13.5,38.17-27.59l-5.26-1,6.62-2.24-4.15-4.81c5.41-.45,9.68-.9,14-1.15s8.14-.72,7.38-6.89c3.85,11.65,13.48,13.63,23.38,15.18,1.32.2,2.66.29,4,.58,8.26,1.89,9.48,1.28,13.56-6.71a12.45,12.45,0,0,1,1.88-2.07l-13.12-8.82-.91.93,3.74,4.18-1.11.8c-1.31-2-2.29-4.43-4-6.08-5.82-5.64-11.88-11-18-16.38-.16-.15-2,1.27-2.74,2.22-.95,1.25-1.53,2.77-3.34,3.68l2.72-7-1.27-.62L154,140.06l-.53,0c1-4,2-7.89,3.09-12.35-17,0-33.35-8.71-50.77-2.61l14.36-.79-4.35,4.22c-.2-.76-.35-2-.56-2-5.3-.29-16.5,5.47-18.67,10.44.16-2.65.25-4,.43-7.06C89,135.33,81.77,140,74.89,145c-4,2.89-7.42,6.47-11.1,9.74l-5.47,4.82c-6.84,9.31-17.83,13.12-26.51,20-3,2.35-6,4.64-9,7L22,185.42c5.8-4.32,11.27-9.19,17.47-12.82,6.71-3.95,12-9.18,17.59-14.41,9.44-8.77,20.12-16.23,30.42-24.06,3.69-2.79,8-4.74,11.61-7.65,8.06-6.55,17.4-6.08,26.69-5.1,10.05,1.07,20,3.09,30.05,4.28,7.64.9,13,5.46,18.57,10,7.09,5.73,14.45,11.14,21.83,16.49,2.6,1.88,3.94,3.5,1.48,6.4s-4.76,5.91-7.44,9.27l4.68,2.25c2.12-4.76,4.19-9.09,6-13.53,2.42-6,4.77-7.7,11-5.39,13.2,4.87,26.2,10.32,39.19,15.75,3.25,1.37,6.15,3.61,9.2,5.44-1.68-.61-3.39-1.15-5-1.84-13.75-5.82-27.39-11.91-41.3-17.31-2.94-1.14-8.35-1.14-10,.69-3.07,3.45,1,6.93,3.59,9,10.63,8.5,21.58,16.59,32.42,24.82,1.27,1,2.6,1.87,3.9,2.81l-.65,1-11.78-7.14L228,188.21l.08.06c1.58-6.14,1.14-6.83-6.48-10.17Q217.77,185,213.9,192l-.8-.42,7.38-14.69-1.37-.68-2.47,3.71-.63-.33,1.66-5-10.1-9.12L195.9,192.15l-1.06-.44,11.34-27-1.57-.71L187,203.06l-1.35-.63,16-35.73-2.22-1.5a12.63,12.63,0,0,1-.53,2c-4.85,10.4-9.34,21-14.66,31.15-8.33,15.89-16.61,31.85-26,47.1-12.78,20.74-28.32,39.47-44.83,57.39-6,6.57-6.6,10.27-.48,16.94,8.72,9.5,17.67,19.22,28.1,26.63,22.2,15.78,46.34,27.91,73.48,33.34,15.39,3.08,20.43.28,24.67-14.79C245.6,341.88,252,318.76,262.39,297c11.48-24,22.4-48.34,38.78-69.63,1-1.31,1.39-3.1,2.06-4.67a3.79,3.79,0,0,0-3.24,1.53c-7.43,11.23-15.24,22.24-22.07,33.82-6.51,11.06-12,22.73-17.92,34.13l.1.08a36.92,36.92,0,0,1,1.55-5.15c3.94-8.44,8-16.82,12-25.23.5-1,.85-2.16,1.26-3.24l-1.13-.55c-10.85,14.85-19.13,31.19-26.6,48,5.92-18.87,15.78-35.86,25.14-53.08l-1.11-.67-3.57,4.25-.86-.44L280,230l-1.25-1-6,6.09c-.83-.21-2.49-1.06-4-.86-1.24.16-3.36,1.65-3.3,2.44.3,4.49,1.13,8.94,1.82,13.65l-2.41.81V210l-.5-.06q-.9,7.68-1.79,15.36a66.11,66.11,0,0,1,.19-12.43c.84-8.13-.3-11.08-5.71-13.26q-1.83,5.1-3.64,10.2l-4,12.47c1.1-4.95,2-10,3.34-14.83,2.33-8.31,2.46-8.28-4-13.24-.07-.05.12-.45.28-1,2.94,1.61,5.72,3.41,8.72,4.72,14.26,6.25,28.52,12.49,42.91,18.44,3,1.25,6.7,2.51,9.35-1.26,3.83,1,4-2.22,2.71-3.6-4.55-4.84-9.69-9.14-14.61-13.64l-.86,1c3.27,2.83,6.89,5.35,9.68,8.6,1.72,2,2.16,5.12,3.18,7.74-1.46.08-3,.55-4.37.19-6.21-1.71-12.55-3.19-18.51-5.58a279.3,279.3,0,0,1-70.68-41.53c-3.46-2.77-6.29-6.36-9.22-9.73-.83-1-1-2.48-2.09-5.26,12.49,2.25,23,5.39,32.52,11.7l-11.23-4-2.86,4-.41-.33,1.58-5.06L208.4,155,207,157.51c5.1,4.48,10.19,9,15.51,13.66l3.32-6,.9.48c-.83,2.08-1.65,4.17-2.79,7l32.55,21,1.73-.74,1.1-16.64-8.72-4.7L242,179.78l3.05-10.57-7.46-4.32,22.6,9.13v-1.83c1-1.23,2.33-2.31,2.9-3.71,4.41-10.79,9.14-21.48,12.82-32.51,2.57-7.67,3.64-15.83,5.59-24.77-4.84,0-10.13.44-15.31-.12a101.77,101.77,0,0,1-16-3.41c-1.23-.34-2.56-2.37-2.82-3.81-1.28-7.07-2-14.21.94-21.11.42-1,1.17-2.26,2-2.48,9.36-2.5,18.59-5.34,28.62-4.18,6.89.8,9.57-3.47,7.06-9.91-2.16-5.53-2.72-10.84.7-16.19,4.14-6.48.86-13.18-.17-19.64A182.91,182.91,0,0,0,281.5,9c-1.12-4,0-5.88,3.79-6.94,7.5-2.09,15-2.87,22.64-.93,3.72,1,5.59,2.54,4.43,7.11-2.26,8.85-3.44,18-5.7,26.83-1.44,5.66-.6,10.54,2.8,15,3.85,5,3.18,10.29,1.57,15.67-1.82,6,1,10.28,7.08,10.23a57,57,0,0,0,8.48-.29c1.73-.27,3.27-1.62,5-2.35,5.67-2.49,10.52-6.65,15.91-9.14,3.69-1.7,10.1-2.79,14.32,2.17.73.86,2.75.85,4.18.86,9.67.09,19.33.09,29,.1,9.44,0,18.89,0,28.37.66H363.55l0,1.84h28.13c0,.6,0,1.21,0,1.81H364.24l0,1.84h14.66l0,1.33-14,.74L366.52,95l9.91.46,0,.46L366.12,97c0,.5,0,1,0,1.51h20.67c0,.6,0,1.2,0,1.8H365.79l0,1.47,5.32.86-6.39,1.71-.16,1.86c3.61.9,7.22,2.53,10.83,2.57,17.48.17,35-.09,52.44-.18,1.1,0,2.19.13,3.81.22L430,110.71,435.2,112l-.22,2.19H362.69l0,2.09h69.11l.17,1.43a23.4,23.4,0,0,1-3.29.51c-21,.41-41.95.72-62.91,1.24a13.16,13.16,0,0,0-6.14,2.08c-3.41,2.07-13.63,1.17-16.43-1.8-.22-.23-.33-.78-.54-.8-7.71-.92-12.49-10.1-21.31-7.59a6.72,6.72,0,0,0-3.34,3c-4.72,8-8.23,17.06-14.12,24.09-10.68,12.76-15.85,28.33-24,42.33-.33.57-.57,1.19-1.08,2.28,1.87,1.28,3.78,2.51,5.59,3.86,8.78,6.58,17.78,12.89,26.22,19.89,5.85,4.86,5.37,7.33.37,13.29a288.05,288.05,0,0,0-32.63,49,411.79,411.79,0,0,0-36.16,93.33,81.21,81.21,0,0,1-3.54,10.91c-3.43,8.28-10.12,10.68-21.31,8.69-27.07-4.8-51-16.89-73.66-31.76-12.41-8.15-23.94-17.51-32.54-29.82-6.45-9.23-5.92-12.56,1.59-21.1,2.64-3,5.17-6.08,7.65-9-4.45-6.23-8.74-12.27-13.12-18.25A3.76,3.76,0,0,0,105.2,271c-13.54-3.23-27.07-6.46-40.64-9.54a5.62,5.62,0,0,0-3.56,1C41.47,273.92,24.08,288.08,8,304a37.76,37.76,0,0,1-8,5.57c18.71-18.24,37.51-36.34,61.67-49.26-9.56-1.8-16.22-20.23-11.59-28.09,2.56,3.6,7.08,6.52,5.27,12.1L55,245.34l.12-.12L53,246.61l.73,1.69ZM363.24,81.89l-6.95,1.76c.31,1.8.59,3.35.88,5h5.68c.23-.43.52-.72.52-1,0-1.92-.1-3.85-.15-5.77-1-3.9-2-7.8-3-11.84l-3.81.22c.31,1.53,1,2.91.77,4.17C356.55,78.91,358.44,81.38,363.24,81.89ZM338.5,102.58c4.51-4.82,2.55-23.84-1.06-28.33-2.7-3.36-3.6-.81-4.72,1.32,6.67,5.48,8.57,14.45,5.91,27.14q-2.37,4.8-4.72,9.59l-1.4-.24,2.34,3.12,1.88-.12ZM148.21,166,150,157.4c-9.31,1-12.13,3.38-12.09,10.15l10.51-1.75c2.72,3.73,7.43,3.6,10.4-.62,1-1.46,1.95-4,1.36-5.33a6.06,6.06,0,0,0-4.81-2.77c-1.41,0-3,2-4,3.45A43.09,43.09,0,0,0,148.21,166Zm140,31.32c-.44-1.26-.88-2.51-1.33-3.77-1,.74-2.42,1.28-2.84,2.26-.58,1.37-.16,3.15-.64,4.6a25.27,25.27,0,0,1-2.4,4.37l.68.35,6.69-8c-1,3.39-1.93,6.77-3,10.35,5.05,1.41,9.13,5.23,13.07.6,1-1.18,1-5.07.2-5.6C295.36,200.44,293.61,194.88,288.16,197.3Zm-15.88-35.24c-2.85,5.29-6,10.45-8.46,15.9-2.82,6.17-2.4,6.65,4.59,9.15,8.24-16.42,16.49-32.89,24.7-49.25-8.68-5.23-8.86-5.18-12.23,2.28-1.57,3.47-2.4,7.73-5,10.17-3.75,3.59-4.22,7.39-3.78,11.89Zm-158.79,45.5a7.54,7.54,0,0,0-.47.77c-4.08,6.27-3.44,7.85,1.48,13.69,1.33,1.57,4,0,4.4,3.17.18,1.56,3.28,2.81,5.12,4.11,2,1.4,4.07,2.7,6.1,4l-.21,1.24c-1.36-.25-3-.11-4-.82-4.06-2.84-7.87-6-11.92-8.9-2.9-2.05-5.92-5.25-10.27-.48,6.45-1.37,6.76,3.17,7.64,5.05l-4,5.58-.49-.41,3.48-4.66-3.55-5.43-3.42,5.18-1.38-2.49c-2.56,8.42,2.32,16.3,12.81,21.55l-.91,1.58,6.52,3.1-1.19,1.81h7.39l-3.39,3.65.52.55,5.21-2.65.86,1.11-4.39,2.25c2,.75,3.56.28,4.45.85,1.59,1,2.2,3.25,5.05,1.79s6.62-1.23,9.09-3a15.34,15.34,0,0,0,5.22-7.7c1-3.39-1.81-4.92-4.78-6.4-4.76-2.38-9.11-5.56-14-8.65l4.67-4.47.58.37-2.35,4.55,3.74-2.28-1,3.85,4-1.93-1.15,3.39,3-1.25a12.66,12.66,0,0,0,.19,2.5c1.45.14,3.47.65,4.28-.09,3.22-3,6.06-6.31,9-9.48-.14,3-.26,5.46-.4,8.31,5.27-4.37,6.56-9.78,2.69-12.35-12-8-24.25-15.71-36.57-23.24C118.15,203.13,114.89,203.42,113.49,207.56ZM266,77.78l0,1.41h23.65v1.22H268.43v.89h8.72l0,1.13h-9.35l-.08,1.09,4.15,1.21-4.79.79c.29,4.86.57,9.45.89,14.74h12.43l-.07,1.45H267.11l.08,1.83,62.48-1.46,0-1.82h-17V98.55h17.7l-.11-1.65H316.81c5.62-2.82,13.48,2.14,17.5-6.72H311.39V88.57h22.91l-.08-1.35h-9.11l0-.69L336,85.25c.81-4.6-.95-5.76-4.95-5.37-4.18.42-8.44.1-12.66.1l0-.41,14.19-1-.07-.78ZM188.19,186.87c-3.15-1.1-4.89-2.05-6.72-2.29-10.66-1.36-18.51-8.64-27.82-12.81-4.32-1.93-9.48-2.14-14.32-2.7-1.19-.14-2.59,1.38-3.44,1.87a39.41,39.41,0,0,1,7.2,1.15c.53.18.32,2.58.56,5a49.14,49.14,0,0,0-2.82-4.63c-2.78,1.28-5.74,2.5-7.9,4.55-.61.58.63,4.61,2,5.56,10.16,6.85,20.55,13.38,30.94,19.88a58.58,58.58,0,0,0,7.62,3.64c2.72,1.2,4.79.63,5.75-2.46.85-2.73,1.33-5.68,2.71-8.12C183.82,192.23,186.36,189.36,188.19,186.87Zm-20.6,38c1.57-2.64,4-6.25,5.9-10.09,1.56-3.1,1.6-5.91-2.49-7.68-3.79-1.64-7.25-4-10.89-6-8.41-4.62-16.64-9.61-25.31-13.66-7.89-3.69-11.69-1.62-14.76,6.55-1.5,4,3.84,12.22,7.95,11.51s6.09,2,8.83,3.56c3.7,2.15,7.3,4.46,11.11,6.8l-1.09,3.52,3.79-3.14c-.49,1.7-.76,2.68-.88,3.1,1.56.15,3.13-.08,4.19.55.66.4.54,2.1.78,3.26l3.79-3.21c-1.07,2.31-1.59,3.44-2.68,5.78l4.44-3.69-.85,2.87Zm173-120.13c6.84,3.18,7.59-2.2,10-5.41-1,6.78-.38,13.92-6.49,18.79,3.32,3,5.08,3,6.41-.56a71.19,71.19,0,0,0,1.06-48.32c-.48-1.45-2.56-3.5-3.64-3.36-1.86.25-3.52,2-6.17,3.72,7.58,1.66,11,9.51,8.77,16.75-2.56-9.5-2.56-9.5-7.81-8.55.84,1.33,1.66,2.61,1.73,2.71C340.49,88.91,344.29,97.3,340.61,104.71Zm-45.51,29.8,1.56,1.21c5.61-7.21,9.46-15.46,13-23.89L308,110.76l-8.57,14.92-1.36-.69c2.45-4.35,4.9-8.69,7.64-13.57-4.69,0-8.18-.12-11.66.06-1.38.07-3.36.37-4,1.29-3.43,5.12-6.52,10.46-9.92,16,4.29,1.73,8.07,3.39,12,4.72.67.22,1.82-.94,2.73-1.48.36-.22.7-.48,1.79-1.24Zm-23.23,98.71,0-1.21c2.94-1.29,5.88-2.57,8.81-3.87.71-.32,1.64-.58,2-1.15,2.49-3.86,4.86-7.79,7.22-11.61-5.39-4.07-10.42-4.52-15.77.19,2.06-6.48,1.37-7.48-6.64-10.1-.7,9-1.38,17.75-2.06,26.46ZM158.31,170.74l-.15,1.63c6,1.91,10,8,17.9,6.49,3.53-.67,7.72,2.08,11.47,3.23l2-4.46-8.76-2,.26-1.19,9.43,1.68c-.54-1.83-.72-3.88-1.67-5.46-3.51-5.77-9.75-5.07-15.18-5.62-6.6-.66-12.94.65-18.25,5.2,6-1.56,11.55-5.38,18.07-3.46ZM109.6,252.38c1.82,4.42,3.65,8.84,5.44,13.28a5.88,5.88,0,0,1,.68,2.67c-.66,5.1,3.15,11.83,7.87,12.87a6.9,6.9,0,0,0,5.36-1.11c.87-.77,1-3.77.19-4.84C123.22,267.36,121.06,256.55,109.6,252.38ZM291.51,50.23Q291,54.3,290.65,57c.78.58,2.1,1.11,2.09,1.61-.15,5,3.95,4.88,7,5.89,3.45,1.15,4.88-1,5.43-3.94,1.63-8.75-2.38-12.72-11-11C293,49.82,291.87,50.14,291.51,50.23ZM300,4.94,298.9,18.48l-.95-.09V4.88l-.79-.06c-.19,1.59-.37,3.18-.55,4.77l-.59,0-1.16-4.86-.94.11v8.88l-.88.08L290.7,6.17c-.4,2.92,1.21,6.49.06,8.29-3.07,4.79-2.51,8.56,1.28,12.72l3.69-12.57c1.07,2.23.87,4.41,1.12,6.55a34.47,34.47,0,0,0,1.53,6.4,42.35,42.35,0,0,0,2.23,4.79l1.6-.59C296.69,23,301.84,13.86,300,4.94Zm-22.8,198.37,7.12-11L277,187.38C267.09,196.63,267.08,199.65,277.23,203.31ZM289,76h15c-.64-2.37-4.13-4.32-.12-6.47.06,0-.56-2.12-1-2.19-3.79-.57-7.62-.88-11.24-1.25C290.6,70,289.85,72.87,289,76ZM278.65,252.25c7-10.33,14-20.53,20.84-30.81.5-.75.07-2.12.07-3.8C292.66,223.42,277.19,249.15,278.65,252.25ZM265,107.94l.09,1.42h56.64v-1.42Zm-4.82.57,1.61.3c4.45-9,4.36-18.44,2.56-28-.17-.94-1.68-1.62-2.57-2.42-.34,1.19-1.24,2.57-.93,3.56,2.45,7.6,1.56,15.11-.12,22.65C260.45,105.85,260.37,107.19,260.19,108.51Zm-10.55-2.74c4.17-6.15,4.22-17.42.44-22.19C246.63,90.85,248.1,97.94,249.64,105.77Zm7.24-18.71c-5.46,3-.53,8.52-3.17,12.15l3.76.89,2.77-7.66C259.3,91,258.3,89.35,256.88,87.06ZM106,247.18c-2.35,10.44,1.83,25.68,8.62,31.29-4.84-8.82-9.63-16.9-5.85-26.64l-2.23,3.31C106.24,251.52,106.1,249.35,106,247.18Zm157.32-50.51c4.82-6.07,4.82-6.07-2-10.08C260.9,190.14,255.78,194.18,263.27,196.67ZM357,100.81l6.19-.84.38-6.49C356.23,93,356.07,93.18,357,100.81Zm-85.54,149.6,1.95,1.09,10.83-18.59-1.41-.83Zm-138.17,25.7,5.63-7.22-11.21,1ZM354.13,111c6.29,2.41,6.76,2,7.42-4.84l-5.63,1.09.12.64,3.33.64ZM304.38,206.8l-4,6.66,8.91-.62Z"/><path d="M30.45,186.58c2.51-7.07,7.16-9.11,13.37-11.16-1.33,3.05-2.23,5.14-3.47,8l-1-4.19-2.86,6.53-.66-1.31Z"/><path d="M383.22,102.8H421.8l0,.6H383.31Z"/><path d="M408,107.65H377.65l0-.89H408Z"/><path d="M400.05,77.61H373.24l0-.67h27.06Z"/><path d="M58.32,159.56l5.47-4.82,3.82-1.65.75.53L57.14,165.15Z"/><path d="M386.3,73.51h20.52v.9H386.3Z"/><path class="cls-1" d="M56.07,248l-2.38.31c.51-.61,1-1.23,1.54-1.84l1.82-.16Z"/><path d="M57.05,246.3l-1.82.16-.29-.28.17-1-.12.12,1.13-1-.1.13,2-.37Z"/><path class="cls-1" d="M58.07,244.09l-2,.37Z"/><path class="cls-1" d="M56.12,244.33l-1.13,1,.36-1.06C55.61,244.29,55.86,244.3,56.12,244.33Z"/><path class="cls-1" d="M253.36,209.85q1.81-5.1,3.64-10.2c5.41,2.18,6.55,5.13,5.71,13.26a66.11,66.11,0,0,0-.19,12.43q.9-7.68,1.79-15.36l.5.06v41.05l2.41-.81c-.69-4.71-1.52-9.16-1.82-13.65-.06-.79,2.06-2.28,3.3-2.44,1.54-.2,3.2.65,4,.86l6-6.09,1.25,1-13.19,26.23.86.44,3.57-4.25,1.11.67c-9.36,17.22-19.22,34.21-25.14,53.08,7.47-16.82,15.75-33.16,26.6-48l1.13.55c-.41,1.08-.76,2.2-1.26,3.24-4,8.41-8.06,16.79-12,25.23a36.92,36.92,0,0,0-1.55,5.15c-1,1.84-2.14,3.63-3,5.53-3.22,7.06-6.35,14.15-9.51,21.23l.24-2.36-9.56,8.64-1.41-.9c4.06-10.64,7.62-21.51,12.32-31.86s10.68-20.45,16.25-30.95L221,265.78v.54h14.95l-14.26,25.57.31.25,13.11-16.07,1.44,1-17.82,27.49.84.64,2.49-2a21.25,21.25,0,0,1-1.33,3.58c-3.39,5.71-6.95,11.33-10.27,17.07a74,74,0,0,0-3.21,7.14l1.08.47,27.08-43.75c-2.62,1.8-4.32,4.28-6.17,6.65-2.39,3-4.9,6-7.36,9,7.48-11.21,15.37-22.17,22.25-33.72,3.31-5.54,7.66-5.09,13.86-5.43-1.71,5.82-2.42,11.32-4.87,15.87-3.54,6.56-5.41,13.86-11.5,19.43-4.47,4.08-6.23,11.2-9,17.05-2.36,5-4.47,10-6.7,15.06l-1.28-.58,12.33-27.23-1.42-.61c-3.82,8.74-7.74,17.45-11.41,26.26-1.1,2.65-2.07,4.81-5.92,3.86l6.73-12.82-1-.54-8.64,14.38-1.46-1,14.58-23.35-1.13-.71c-4.06,6.14-8.15,12.26-12.16,18.43-4.43,6.81-7.39,7.61-15.22,3.76.93-1.62,1.84-3.24,2.76-4.85l-1.14-.94L198.85,330l-.72-.61,2.88-5.76-.49-.2-5.41,6.12-.82-.74,10-15.81-.9-.56c-4.54,4.91-9.09,9.81-13.93,15l-23.66-14.4,2.92-6.29-5.07,4-.68-.84q1.45-2.9,2.9-5.8l-.95-.7c-1.21,1.72-2.42,3.44-4.13,5.89-4-5.69-7.68-10.21-10.6-15.17-3.23-5.5-2.87-11,1.43-16.19,2.22-2.7,3.64-6.06,5.43-9.13l-1-.62c-2.15,3.1-3.87,6.65-6.54,9.2-4.25,4-3.48,8.41-2.16,13.07,2.93,10.34,10,17.75,18.38,23.6,9.07,6.36,19,11.53,28.58,17.16,9.16,5.37,19.1,5.23,29.05,3.42,10.18-1.86,17.3-8.79,24.31-15.77.82-.35,2-.46,2.35-1.05a56.21,56.21,0,0,0,3.32-7.18c2.29-6.12,4.45-12.3,6.66-18.45,5.93-11.4,11.41-23.07,17.92-34.13,6.83-11.58,14.64-22.59,22.07-33.82a3.79,3.79,0,0,1,3.24-1.53c-.67,1.57-1.05,3.36-2.06,4.67C284.79,248.69,273.87,273,262.39,297,252,318.76,245.6,341.88,239.13,365c-4.24,15.07-9.28,17.87-24.67,14.79-27.14-5.43-51.28-17.56-73.48-33.34-10.43-7.41-19.38-17.13-28.1-26.63-6.12-6.67-5.57-10.37.48-16.94,16.51-17.92,32.05-36.65,44.83-57.39,9.41-15.25,17.69-31.21,26-47.1,5.32-10.16,9.81-20.75,14.66-31.15a12.63,12.63,0,0,0,.53-2l2.22,1.5-16,35.73,1.35.63L204.61,164l1.57.71-11.34,27,1.06.44,11.67-26.74,10.1,9.12-1.66,5,.63.33,2.47-3.71,1.37.68-7.38,14.69.8.42q3.87-6.93,7.72-13.86c7.62,3.34,8.06,4,6.48,10.17-3.15,5.37-6.32,10.73-9.44,16.12-4.25,7.34-8.47,14.69-12.63,21.92-7.86-3.58-9.95-2.24-13.08,7.81L186.31,231l-9.46-7.69c2.09-4.35,4.72-9.8,7.35-15.24-7.35,10.8-13.92,21.93-20.48,33.07-4.39,7.45-9,14.81-13.06,22.42-1.73,3.22-2.45,7-3.63,10.51l.81.22q4-9,8.08-18l1.25.52c-1.11,4-2.21,7.94-3.2,11.47,8.93-9.6,9.64-9.84,17.13-5.5l-11.95,19.64,1.28.8,13-20.46,1.47,1-13.2,21.94,1.26.75q7.27-11.52,14.53-23.05l1.4.86-8.53,14.21,1.21.72c2.68-4.14,5.32-8.31,8.1-12.38.67-1,1.9-2.39,2.74-2.31,3.86.38,7.67,1.23,11.74,1.95L189,276.55l.82.42,7.41-10.52,1,.68c-2.13,3.54-4.26,7.07-6.88,11.4,5.84-3.2,5.48-11.51,13.6-12.2-.94,2.21-1.46,3.43-1.64,3.84l9.89-4.7c-18.7-.4-37.43-1.56-54.74-11l6.07-1.84-.16-.66h-5.13c6.24-11.31,6.24-11.31,11.68-7.89,1.58-4.08,5.14-6.36,8.57-4.14,2.46,1.59,3.15,5.92,4.62,9l-1.23.73,3.61.19a28.4,28.4,0,0,1-2-5.13c-1.19-7-7.14-9.22-12.95-4.89-1.15.86-3,.76-4.54,1.1a14,14,0,0,1,2.22-5.46c1-1.57,1.89-3.14,2.79-4.73,2.8-5,5.17-5.58,9.95-2.43a43.6,43.6,0,0,1,3.82,3.14c.69,1.46,1.37,2.92,1.78,3.8h8.73c-.52-1.14-1.3-2-1.1-2.56.85-2.17,1.58-4.72,3.21-6.13.89-.76,3.51.49,5.35.83a41.82,41.82,0,0,1-1.55,5.58c-.37.9-1.6,1.42-2.24,2.27a23.09,23.09,0,0,0-1.69,3.05l1.38.64,3.41-4.18,1.82,2.35,9.33-15.38c1.25,3,2.6,4.71,2.46,6.29-.18,1.85-1.66,3.57-2.57,5.35,3.22-6.26,7.49-4.37,12.1-2.11L222.49,227l6.87-.71.6-3.57-10.72,5.14,4.3-8.92-1-.46-4.64,8-.58-3.89,17.93-30.34-1.67-.94L216.78,222c-.45-.85-1.51-2-1.26-2.5,2-4.17,4.35-8.2,6.49-12.32,1.42-2.75,2.69-5.58,4-8.37l-.88-.42-12.48,22.68-1.2-.67c4.89-8.92,9.83-17.82,14.64-26.79A36.33,36.33,0,0,0,228,188.2l3.48-3.85,11.78,7.14.65-1c-1.3-.94-2.63-1.84-3.9-2.81-10.84-8.23-21.79-16.32-32.42-24.82-2.63-2.11-6.66-5.59-3.59-9,1.63-1.83,7-1.83,10-.69,13.91,5.4,27.55,11.49,41.3,17.31,1.64.69,3.35,1.23,5,1.84l-.14-.14V174l-22.6-9.13.15.13c-9.49-6.3-20-9.44-32.51-11.69,1.07,2.78,1.26,4.3,2.09,5.26,2.93,3.37,5.76,7,9.22,9.73a279.3,279.3,0,0,0,70.68,41.53c6,2.39,12.3,3.87,18.51,5.58,1.34.36,2.91-.11,4.37-.19l-.1-.11c-2.65,3.77-6.34,2.51-9.35,1.26C286.26,210.44,272,204.2,257.74,198c-3-1.31-5.78-3.11-8.72-4.72-.16.57-.35,1-.28,1,6.47,5,6.34,4.93,4,13.24-1.36,4.87-2.24,9.88-3.34,14.83-.78,1.54-2,3-2.27,4.64-.86,6.09-1.3,12.23-2.09,18.33-.38,2.92-1.17,5.78-1.67,8.21l6.42,3,9.62-1.42A20.8,20.8,0,0,0,252.5,254c-3.19,0-5.94-.92-5.91-4.44.06-6.94.66-13.88,1-20.83l.71.11c.3,6.37.61,12.73,1,20.35,2.31-14.34,4.41-27.41,6.57-40.79ZM119.65,301.91c2.33-.82,3.53-1.27,4.75-1.65,10.09-3.18,13.27-1.95,19.33,6.76a102,102,0,0,0,10.4,13.37c5.14,5.25,10.72,10.22,18.39,11.59a4.07,4.07,0,0,0-1.67-1.82c-11.74-6.47-19.78-16.59-27.23-27.36-3.49-5-5.37-10.29-3.9-16.42,1-4,2-8.08,3-12.12a133.67,133.67,0,0,0-12.14,13.86C127.15,292.39,123.78,296.68,119.65,301.91Zm110.42,70,16.48-44.25-1.35-1.14c-4.09,14.24-14.34,19.06-28.26,19C230.84,350.1,229.62,361.17,230.07,371.87ZM192.41,360A64.29,64.29,0,0,0,222,370.19a5,5,0,0,0,3.93-2.56c3.24-8-2.67-17-11.31-17.67,2.2,1.93,5.13,3.5,6.45,5.94s1.16,5.9,1.64,8.9c-2.44.28-5,1.2-7.29.73C207.67,364,200.06,361.88,192.41,360Zm-31.8-8.27.73-1.6c-.53-.3-1.06-.6-1.57-.91C146.43,341,133,333,122.51,321.05c-3.91-4.45-8.67-8.86-4.05-16-4.6,3.33-4.85,6.76-1.28,12.08,7.41,11,17.93,18.64,28.82,25.77C150.75,346.05,155.73,348.8,160.61,351.72Zm-25.07-51.54c-13.73,10.83-11.66,18.73,3.13,26.91-4.75-5.69-11.27-9.91-6.21-18.47V314c5.53-9.69,5.53-9.69,4-11.68L134,306.46l-.42-.17C134.1,304.68,134.62,303.06,135.54,300.18Zm40.58,34.07c6.54,7.64,31.31,14.6,37,11Zm-6.25,20.44c8,8.42,51.5,23.05,57.95,19.79C207,371.79,188.54,363,169.87,354.69ZM206.47,176l-1.22-.53q-8.46,18.65-16.9,37.28l1.29.58ZM190.82,296.41l1.17.76,17.17-26-1.32-.86Q199.32,283.35,190.82,296.41Zm3.55,59.79-.78,2.81,17.73,4.45.49-1.91ZM228.81,253c-1.49-1.6-2.37-3.34-3.22-3.32-5.4.12-10.79.62-16.18,1l.11,1.5C216,250,222.25,255.49,228.81,253Zm-65.07,41.35,1.49.89,13.11-19.69-1.46-.95Zm9-6.79,1.36.94,13-20.27-1.38-.86Zm27.95-39.14,1.81.9q5.66-9.7,11.32-19.42l-1.2-.67Z"/><path class="cls-1" d="M113.49,207.56c1.4-4.14,4.66-4.43,7.59-2.64,12.32,7.53,24.55,15.24,36.57,23.24,3.87,2.57,2.58,8-2.69,12.35.14-2.85.26-5.35.4-8.31-2.94,3.17-5.78,6.53-9,9.48-.81.74-2.83.23-4.28.09a12.66,12.66,0,0,1-.19-2.5l-3,1.25,1.15-3.39-4,1.93,1-3.85-3.74,2.28,2.35-4.55-.58-.37L130.37,237c4.92,3.09,9.27,6.27,14,8.65,3,1.48,5.8,3,4.78,6.4a15.34,15.34,0,0,1-5.22,7.7c-2.47,1.77-6.27,1.56-9.09,3s-3.46-.78-5.05-1.79c-.89-.57-2.44-.1-4.45-.85l4.39-2.25-.86-1.11-5.21,2.65-.52-.55,3.39-3.65h-7.39l1.19-1.81-6.52-3.1.91-1.58c-10.49-5.25-15.37-13.13-12.81-21.55l1.38,2.49,3.42-5.18,3.55,5.43-3.48,4.66.49.41,4-5.58c-.88-1.88-1.19-6.42-7.64-5.05,4.35-4.77,7.37-1.57,10.27.48,4.05,2.85,7.86,6.06,11.92,8.9,1,.71,2.67.57,4,.82l.21-1.24c-2-1.34-4.1-2.64-6.1-4-1.84-1.3-4.94-2.55-5.12-4.11-.38-3.12-3.07-1.6-4.4-3.17-4.92-5.84-5.56-7.42-1.48-13.69.72.21,1.7.83,2.1.57,2.51-1.67,3.93-.62,4.15,1.86s-4.41,6-7.3,6l4.25,2.44c1.14-1.95,2.23-3.3,2.74-4.84.63-2,1.66-4.45,1-6C118.63,205.37,115.85,206.38,113.49,207.56Z"/><path class="cls-1" d="M266,77.78h66.51l.07.78-14.19,1,0,.41c4.22,0,8.48.32,12.66-.1,4-.39,5.76.77,4.95,5.37l-10.93,1.28,0,.69h9.11l.08,1.35H311.4v1.61h22.92c-4,8.86-11.88,3.9-17.5,6.72h13.47l.11,1.65h-17.7v1.71h17l0,1.82-62.48,1.46-.08-1.83h13.26l.07-1.45H268c-.32-5.29-.6-9.88-.89-14.74l4.79-.79-4.15-1.21.08-1.09h9.35l0-1.13h-8.72v-.89h21.19V79.19H266Zm48.93,15,0,.47h14v-.47Z"/><path class="cls-1" d="M188.19,186.87c-1.83,2.49-4.37,5.36-6.21,8.62-1.38,2.44-1.86,5.39-2.71,8.12-1,3.09-3,3.66-5.75,2.46a58.58,58.58,0,0,1-7.62-3.64c-10.39-6.5-20.78-13-30.94-19.88-1.4-1-2.64-5-2-5.56,2.16-2.05,5.12-3.27,7.9-4.55a49.14,49.14,0,0,1,2.82,4.63c-.24-2.4,0-4.8-.56-5a39.41,39.41,0,0,0-7.2-1.15c.85-.49,2.25-2,3.44-1.87,4.84.56,10,.77,14.32,2.7,9.31,4.17,17.16,11.45,27.82,12.81C183.3,184.82,185,185.77,188.19,186.87ZM174.45,199l2,1.32,4.56-9.61-2-1Q176.74,194.39,174.45,199Z"/><path class="cls-1" d="M167.59,224.84h-8.17l.85-2.87-4.44,3.69c1.09-2.34,1.61-3.47,2.68-5.78l-3.79,3.21c-.24-1.16-.12-2.86-.78-3.26-1.06-.63-2.63-.4-4.19-.55.12-.42.39-1.4.88-3.1l-3.79,3.14,1.09-3.52c-3.81-2.34-7.41-4.65-11.11-6.8-2.74-1.59-4.8-4.25-8.83-3.56s-9.45-7.51-7.95-11.51c3.07-8.17,6.87-10.24,14.76-6.55,8.67,4.05,16.9,9,25.31,13.66,3.64,2,7.1,4.39,10.89,6,4.09,1.77,4.05,4.58,2.49,7.68C171.56,218.59,169.16,222.2,167.59,224.84Zm-36.4-35.94a52.51,52.51,0,0,1-2.78,5.64,27.43,27.43,0,0,1-3.36,3.65c-.94-1.49-1.87-3-2.78-4.44-2.17,4.31-.47,6.14,5.67,6C132.4,190.07,132.4,190.07,131.19,188.9Z"/><path class="cls-1" d="M237.59,164.89l7.46,4.32L242,179.78l8.64-8.15,8.72,4.7L258.26,193l-1.73.74-32.55-21c1.14-2.85,2-4.94,2.79-7l-.9-.48-3.32,6c-5.32-4.69-10.41-9.18-15.51-13.66L208.4,155l16.43,4.68-1.58,5.06.41.33,2.86-4,11.23,4Z"/><path class="cls-1" d="M272.15,162.19c-.45-4.49,0-8.29,3.77-11.88,2.56-2.44,3.39-6.7,5-10.17,3.37-7.46,3.55-7.51,12.23-2.28-8.21,16.36-16.46,32.83-24.7,49.25-7-2.5-7.41-3-4.59-9.15,2.49-5.45,5.61-10.61,8.45-15.9.16.44.32.88.49,1.32l.24-1.2c1.2-.65,3.12-1,3.48-2,1.68-4.58,2.93-9.32,4.34-14l-.84-.31q-3.44,8.2-6.88,16.41A7.45,7.45,0,0,0,272.15,162.19Z"/><path class="cls-1" d="M340.61,104.71c3.68-7.41-.12-15.8,3.87-24.23-.07-.1-.89-1.38-1.73-2.71,5.25-1,5.25-1,7.81,8.55,2.26-7.24-1.19-15.09-8.77-16.75,2.65-1.71,4.31-3.47,6.17-3.72,1.08-.14,3.16,1.91,3.64,3.36a71.19,71.19,0,0,1-1.06,48.32c-1.33,3.53-3.09,3.53-6.41.56,6.11-4.87,5.45-12,6.49-18.79C348.2,102.51,347.45,107.89,340.61,104.71Z"/><path class="cls-1" d="M295.1,134.51l1.54-3.71c-1.09.76-1.43,1-1.79,1.24-.91.54-2.06,1.7-2.73,1.48-3.9-1.33-7.68-3-12-4.72,3.4-5.57,6.49-10.91,9.92-16,.62-.92,2.6-1.22,4-1.29,3.48-.18,7-.06,11.66-.06-2.74,4.88-5.19,9.22-7.64,13.57l1.36.69L308,110.76l1.66,1.07c-3.54,8.43-7.39,16.68-13,23.89Z"/><path class="cls-1" d="M271.87,233.22l-6.41-1.29c.68-8.71,1.36-17.5,2.06-26.46,8,2.62,8.7,3.62,6.64,10.1,5.35-4.71,10.38-4.26,15.77-.19-2.36,3.82-4.73,7.75-7.22,11.61-.37.57-1.3.83-2,1.15-2.93,1.3-5.87,2.58-8.81,3.87Z"/><path class="cls-1" d="M158.31,170.74l15.11-4c-6.52-1.92-12.09,1.9-18.07,3.46,5.31-4.55,11.65-5.86,18.25-5.2,5.43.55,11.67-.15,15.18,5.62.95,1.58,1.13,3.63,1.67,5.46L181,174.39l-.26,1.19,8.76,2-2,4.46c-3.75-1.15-7.94-3.9-11.47-3.23-7.87,1.49-11.9-4.58-17.9-6.49Zm5.45-.58,0,.82h18.6l0-.82Z"/><path class="cls-1" d="M109.6,252.38c11.46,4.17,13.62,15,19.54,22.87.8,1.07.68,4.07-.19,4.84a6.9,6.9,0,0,1-5.36,1.11c-4.72-1-8.53-7.77-7.87-12.87a5.88,5.88,0,0,0-.68-2.67C113.25,261.22,111.42,256.8,109.6,252.38Z"/><path class="cls-1" d="M291.51,50.23c.36-.09,1.47-.41,2.6-.63,8.66-1.72,12.67,2.25,11,11-.55,2.95-2,5.09-5.43,3.94-3-1-7.13-.91-7-5.89,0-.5-1.31-1-2.09-1.61Q291,54.3,291.51,50.23Z"/><path d="M253.36,209.85l2.52-1.41c-2.16,13.38-4.26,26.45-6.57,40.79-.37-7.62-.68-14-1-20.35l-.71-.11c-.37,6.95-1,13.89-1,20.83,0,3.52,2.72,4.46,5.91,4.44a20.8,20.8,0,0,1,6.92,1.05l-9.62,1.42-6.42-3c.5-2.43,1.29-5.29,1.67-8.21.79-6.1,1.23-12.24,2.09-18.33.23-1.62,1.49-3.1,2.27-4.64Z"/><path class="cls-1" d="M300,4.94c1.81,8.92-3.34,18.1,2.18,26.82l-1.6.59a42.35,42.35,0,0,1-2.23-4.79,34.47,34.47,0,0,1-1.53-6.4c-.25-2.14-.05-4.32-1.12-6.55L292,27.18c-3.79-4.16-4.35-7.93-1.28-12.72,1.15-1.8-.46-5.37-.06-8.29L293,13.82l.88-.08V4.86l.94-.11L296,9.61l.59,0c.18-1.59.36-3.18.55-4.77l.79.06V18.39l.95.09Z"/><path class="cls-1" d="M277.23,203.31c-10.15-3.66-10.14-6.68-.19-15.93l7.31,4.89Z"/><path class="cls-1" d="M288.17,197.29c5.44-2.41,7.19,3.15,10.46,5.2.84.53.8,4.42-.2,5.6-3.94,4.63-8,.81-13.07-.6,1-3.58,2-7,3-10.35Z"/><path class="cls-1" d="M289,76c.84-3.15,1.59-6,2.63-9.91,3.62.37,7.45.68,11.24,1.25.46.07,1.08,2.16,1,2.19-4,2.15-.52,4.1.12,6.47Z"/><path class="cls-1" d="M278.65,252.25c-1.46-3.1,14-28.83,20.91-34.61,0,1.68.43,3.05-.07,3.8C292.65,231.72,285.67,241.92,278.65,252.25Z"/><path class="cls-1" d="M265,107.94h56.73v1.42H265.1Z"/><path class="cls-1" d="M148.23,166a41.69,41.69,0,0,1,3.06-5.43c1.09-1.42,2.63-3.4,4-3.45a6.06,6.06,0,0,1,4.81,2.77c.59,1.34-.33,3.87-1.36,5.33-3,4.22-7.68,4.35-10.4.62Z"/><path class="cls-1" d="M260.19,108.51c.18-1.32.26-2.66.55-4,1.68-7.54,2.57-15,.12-22.65-.31-1,.59-2.37.93-3.56.89.8,2.4,1.48,2.57,2.42,1.8,9.6,1.89,19.07-2.56,28Z"/><path class="cls-1" d="M148.38,165.8l-10.51,1.75c0-6.77,2.78-9.12,12.09-10.15-.61,3-1.18,5.78-1.74,8.57Z"/><path class="cls-1" d="M249.64,105.77c-1.54-7.83-3-14.92.44-22.19C253.86,88.35,253.81,99.62,249.64,105.77Z"/><path class="cls-1" d="M338.58,102.66c2.71-12.64.81-21.61-5.86-27.09,1.12-2.13,2-4.68,4.72-1.32,3.61,4.49,5.57,23.51,1.06,28.33Z"/><path class="cls-1" d="M256.88,87.06c1.42,2.29,2.42,3.89,3.36,5.38l-2.77,7.66-3.76-.89C256.35,95.58,251.42,90,256.88,87.06Z"/><path class="cls-1" d="M106,247.18c.15,2.17.29,4.34.54,8l2.23-3.31c-3.78,9.74,1,17.82,5.85,26.64C107.78,272.86,103.6,257.62,106,247.18Z"/><path class="cls-1" d="M363.24,81.89c-4.8-.51-6.69-3-6-7.46.19-1.26-.46-2.64-.77-4.17l3.81-.22c1,4,2,7.94,3,11.84Z"/><path class="cls-1" d="M263.27,196.67c-7.49-2.49-2.37-6.53-2-10.08C268.09,190.6,268.09,190.6,263.27,196.67Z"/><path class="cls-1" d="M357,100.81c-.88-7.63-.72-7.79,6.57-7.33l-.38,6.49Z"/><path class="cls-1" d="M271.41,250.41l11.37-18.33,1.41.83L273.36,251.5Z"/><path class="cls-1" d="M310.1,215.24c-1-2.62-1.46-5.73-3.18-7.74-2.79-3.25-6.41-5.77-9.68-8.6l.86-1c4.92,4.5,10.06,8.8,14.61,13.64,1.29,1.38,1.12,4.55-2.71,3.6Z"/><path d="M113.49,207.56c2.36-1.18,5.14-2.19,6.43.79.7,1.59-.33,4.08-1,6-.51,1.54-1.6,2.89-2.74,4.84L112,216.79c2.89,0,7.53-3.41,7.3-6s-1.64-3.53-4.15-1.86c-.4.26-1.38-.36-2.1-.57A7.54,7.54,0,0,1,113.49,207.56Z"/><path class="cls-1" d="M133.24,276.11l-5.58-6.18,11.21-1Z"/><path class="cls-1" d="M363.22,81.88c0,1.92.13,3.85.15,5.77,0,.29-.29.58-.52,1h-5.68c-.29-1.66-.57-3.21-.88-5l6.95-1.76Z"/><path class="cls-1" d="M354.13,111l5.24-2.47-3.33-.64-.12-.64,5.63-1.09C360.89,113.07,360.42,113.44,354.13,111Z"/><path class="cls-1" d="M288.32,197.14l-6.69,8-.68-.35a25.27,25.27,0,0,0,2.4-4.37c.48-1.45.06-3.23.64-4.6.42-1,1.86-1.52,2.84-2.26.45,1.26.89,2.51,1.33,3.76Z"/><path class="cls-1" d="M338.5,102.58l-1.77,12.48-1.88.12-2.34-3.12,1.4.24c1.57-3.2,3.14-6.39,4.69-9.62Z"/><path class="cls-1" d="M304.38,206.8l4.95,6-8.91.62Z"/><path d="M55.23,246.46c-.52.61-1,1.23-1.54,1.84-.24-.57-.49-1.13-.73-1.69l2-.43Z"/><path class="cls-1" d="M54.94,246.18l-2,.43,2.15-1.39Z"/><path d="M222,303.26l-2.49,2-.84-.64,17.82-27.49-1.44-1L222,292.14l-.31-.25,14.26-25.57H221v-.54l44.46-4.16c-5.57,10.5-11.48,20.46-16.25,30.95s-8.26,21.22-12.32,31.86l1.41.9,9.56-8.64c-.12,1.19-.18,1.77-.23,2.34l.05-.12c-7,7-14.11,13.89-24.29,15.75-10,1.81-19.89,1.95-29.05-3.42-9.59-5.63-19.51-10.8-28.58-17.16-8.34-5.85-15.45-13.26-18.38-23.6-1.32-4.66-2.09-9,2.16-13.07,2.67-2.55,4.39-6.1,6.54-9.2l1,.62c-1.79,3.07-3.21,6.43-5.43,9.13-4.3,5.22-4.66,10.69-1.43,16.19,2.92,5,6.58,9.48,10.6,15.17,1.71-2.45,2.92-4.17,4.13-5.89l.95.7q-1.44,2.91-2.9,5.8l.68.84,5.07-4-2.92,6.29,23.66,14.4c4.84-5.22,9.39-10.12,13.93-15l.9.56-10,15.81.82.74,5.41-6.12.49.2-2.88,5.76.72.61,2.65-4.26,1.14.94c-.92,1.61-1.83,3.23-2.76,4.85,7.83,3.85,10.79,3.05,15.22-3.76,4-6.17,8.1-12.29,12.16-18.43l1.13.71L213.81,333.4l1.46,1L223.91,320l1,.54-6.73,12.82c3.85.95,4.82-1.21,5.92-3.86,3.67-8.81,7.59-17.52,11.41-26.26l1.42.61L224.58,331.1l1.28.58c2.23-5,4.34-10.1,6.7-15.06,2.79-5.85,4.55-13,9-17.05,6.09-5.57,8-12.87,11.5-19.43,2.45-4.55,3.16-10.05,4.87-15.87-6.2.34-10.55-.11-13.86,5.43-6.88,11.55-14.77,22.51-22.25,33.72Zm8.39,25.85,1.33.51,5.52-14.5-1.15-.44Z"/><path d="M185.85,231.47a43.6,43.6,0,0,0-3.82-3.14c-4.78-3.15-7.15-2.53-9.95,2.43-.9,1.59-1.84,3.16-2.79,4.73a14,14,0,0,0-2.22,5.46c1.53-.34,3.39-.24,4.54-1.1,5.81-4.33,11.76-2.12,12.95,4.89a28.4,28.4,0,0,0,2,5.13l-3.61-.19,1.23-.73c-1.47-3.11-2.16-7.44-4.62-9-3.43-2.22-7,.06-8.57,4.14-5.44-3.42-5.44-3.42-11.68,7.89h5.13l.16.66-6.07,1.84c17.31,9.46,36,10.62,54.74,11l-9.89,4.7c.18-.41.7-1.63,1.64-3.84-8.12.69-7.76,9-13.6,12.2,2.62-4.33,4.75-7.86,6.88-11.4l-1-.68L189.81,277l-.82-.42,5.19-10.11c-4.07-.72-7.88-1.57-11.74-1.95-.84-.08-2.07,1.33-2.74,2.31-2.78,4.07-5.42,8.24-8.1,12.38l-1.21-.72,8.53-14.21-1.4-.86q-7.26,11.53-14.53,23.05l-1.26-.75,13.2-21.94-1.47-1-13,20.46-1.28-.8L171.1,262.8c-7.49-4.34-8.2-4.1-17.13,5.5,1-3.53,2.09-7.5,3.2-11.47l-1.25-.52q-4,9-8.08,18l-.81-.22c1.18-3.52,1.9-7.29,3.63-10.51,4.1-7.61,8.67-15,13.06-22.42,6.56-11.14,13.13-22.27,20.48-33.07-2.63,5.44-5.26,10.89-7.35,15.24l9.46,7.69Z"/><path d="M119.65,301.91c4.13-5.23,7.5-9.52,10.9-13.79a133.67,133.67,0,0,1,12.14-13.86c-1,4-2,8.08-3,12.12-1.47,6.13.41,11.38,3.9,16.42,7.45,10.77,15.49,20.89,27.23,27.36a4.07,4.07,0,0,1,1.67,1.82c-7.67-1.37-13.25-6.34-18.39-11.59A102,102,0,0,1,143.73,307c-6.06-8.71-9.24-9.94-19.33-6.76C123.18,300.64,122,301.09,119.65,301.91Z"/><path d="M230.07,371.87c-.45-10.7.77-21.77-13.13-26.37,13.92,0,24.17-4.78,28.26-19l1.35,1.14Z"/><path d="M186.31,231l6.64,3.08c3.13-10.05,5.22-11.39,13.08-7.81,4.16-7.23,8.38-14.58,12.63-21.92,3.12-5.39,6.29-10.75,9.44-16.12l-.08-.06a36.61,36.61,0,0,1-1.91,5.42c-4.81,9-9.75,17.87-14.64,26.79l1.2.67,12.48-22.68.88.42c-1.33,2.79-2.6,5.62-4,8.37-2.14,4.12-4.46,8.15-6.49,12.32-.25.51.81,1.65,1.26,2.5l.57.52.58,3.89,4.64-8,1,.46-4.3,8.92L230,222.68l-.6,3.57-6.87.71,3.78,4.31c-4.61-2.26-8.88-4.15-12.1,2.11.91-1.78,2.39-3.5,2.57-5.35.14-1.58-1.21-3.3-2.46-6.29L205,237.12l-1.82-2.35L199.72,239l-1.38-.64a23.09,23.09,0,0,1,1.69-3.05c.64-.85,1.87-1.37,2.24-2.27a41.82,41.82,0,0,0,1.55-5.58c-1.84-.34-4.46-1.59-5.35-.83-1.63,1.41-2.36,4-3.21,6.13-.2.52.58,1.42,1.1,2.56h-8.73c-.41-.88-1.09-2.34-1.78-3.8Z"/><path d="M192.41,360c7.65,1.89,15.26,4,23,5.54,2.29.47,4.85-.45,7.29-.73-.48-3-.28-6.37-1.64-8.9s-4.25-4-6.45-5.94c8.64.67,14.55,9.68,11.31,17.67a5,5,0,0,1-3.93,2.56A64.29,64.29,0,0,1,192.41,360Z"/><path d="M160.61,351.72c-4.88-2.92-9.86-5.67-14.61-8.78-10.89-7.13-21.41-14.74-28.82-25.77-3.57-5.32-3.32-8.75,1.28-12.08-4.62,7.1.14,11.51,4.05,16C133,333,146.43,341,159.77,349.21c.51.31,1,.61,1.57.91Z"/><path d="M135.54,300.18c-.92,2.88-1.44,4.5-2,6.11l.42.17,2.49-4.16c1.5,2,1.5,2-4,11.68v-5.36c-5.06,8.56,1.46,12.78,6.21,18.47C123.88,318.91,121.81,311,135.54,300.18Z"/><path d="M176.12,334.25l37,11C207.43,348.85,182.66,341.89,176.12,334.25Z"/><path d="M221.84,303.42c2.46-3,5-6,7.36-9,1.85-2.37,3.55-4.85,6.17-6.65l-27.08,43.75-1.08-.47a74,74,0,0,1,3.21-7.14c3.32-5.74,6.88-11.36,10.27-17.07a21.25,21.25,0,0,0,1.33-3.58Z"/><path d="M169.87,354.69c18.67,8.3,37.17,17.1,57.95,19.79C221.37,377.74,177.86,363.11,169.87,354.69Z"/><path d="M206.47,176l-16.83,37.33-1.29-.58q8.44-18.64,16.9-37.28Z"/><path d="M216.78,222l16.83-30.76,1.67.94-17.93,30.34Z"/><path d="M190.82,296.41q8.51-13.07,17-26.13l1.32.86-17.17,26Z"/><path d="M194.37,356.2l17.44,5.35-.49,1.91L193.59,359Z"/><path d="M228.81,253c-6.56,2.51-12.85-3-19.29-.82l-.11-1.5c5.39-.38,10.78-.88,16.18-1C226.44,249.64,227.32,251.38,228.81,253Z"/><path d="M260,292.21c-2.21,6.15-4.37,12.33-6.66,18.45a56.21,56.21,0,0,1-3.32,7.18c-.32.59-1.53.7-2.35,1.05a.91.91,0,0,0-.07.14c3.15-7.06,6.28-14.15,9.5-21.21.86-1.9,2-3.69,3-5.53Z"/><path d="M163.74,294.33l13.14-19.75,1.46.95-13.11,19.69Z"/><path d="M172.74,287.54l13-20.19,1.38.86-13,20.27Z"/><path d="M200.69,248.4l11.93-19.19,1.2.67q-5.67,9.7-11.32,19.42Z"/><path d="M314.93,92.77h14v.47H315Z"/><path d="M174.45,199q2.28-4.62,4.55-9.26l2,1-4.56,9.61Z"/><path d="M131.19,188.9c1.21,1.17,1.21,1.17-3.25,10.85-6.14.14-7.84-1.69-5.67-6,.91,1.46,1.84,2.95,2.78,4.44a27.43,27.43,0,0,0,3.36-3.65A52.51,52.51,0,0,0,131.19,188.9Z"/><path d="M273.1,162.28q3.45-8.21,6.88-16.41l.84.31c-1.41,4.69-2.66,9.43-4.34,14-.36,1-2.28,1.34-3.48,2Z"/><path d="M273,162.18l-.24,1.2c-.17-.44-.33-.88-.49-1.32l-.13.14a6,6,0,0,1,1,.08Z"/><path d="M163.76,170.16h18.61l0,.82h-18.6Z"/><path class="cls-1" d="M230.41,329.11l5.7-14.43,1.15.44-5.52,14.5Z"/></g></g></svg>