<svg xmlns="http://www.w3.org/2000/svg" viewBox="0 0 174.71 130.71"><defs><style>.cls-1{fill:#eb5342;}</style></defs><g id="Layer_2" data-name="Layer 2"><g id="Layer_1-2" data-name="Layer 1"><path class="cls-1" d="M90.3.22a72.89,72.89,0,0,1,27.5,3,5.54,5.54,0,0,1,.69.22c4.64,2.15,9.62,2.81,14.63,3.26a28.78,28.78,0,0,1,13.74,4.87c11.27,7.53,19.86,17.27,24.77,30,3,7.79,3.53,15.87,2.77,24.09a74.19,74.19,0,0,1-8.84,29.41c-.7,1.26-1.5,2.46-2.21,3.71a16.24,16.24,0,0,1-7.29,6.86c-2.13,1-4.18,2.19-6.3,3.22-3.45,1.67-7.09,3-10.23,5.21a3.81,3.81,0,0,1-1,.5c-7.19,2.59-13.87,6.32-20.93,9.19a73.22,73.22,0,0,1-20.36,4.76c-2.7.28-5.35.94-8,1.37a66.25,66.25,0,0,1-25.48-1,24.82,24.82,0,0,0-4.88-.43c-4-.08-8-.13-12-.09-2,0-4.07.43-6.1.37-6.17-.18-11.36-2.86-16.11-6.61C17.21,116.26,12,108.67,8,100.11A87.58,87.58,0,0,1,.2,68.51,77.81,77.81,0,0,1,5.07,35.07,37,37,0,0,1,12,23.49a13.57,13.57,0,0,0,1.52-2.14,10.62,10.62,0,0,1,3.93-3.6c4-2.41,8.47-3.49,12.93-4.65,2.94-.76,5.86-1.6,8.78-2.42a4,4,0,0,0,.86-.41A51.09,51.09,0,0,1,63.5,2.75a57.67,57.67,0,0,0,9.77-1C78.9.44,84.64.81,90.3.22Zm25.29,48.31a2.53,2.53,0,0,0,0,.49,79.91,79.91,0,0,1,3,16.24c0,.76.41,1,1.18.91,6.84-.64,13.68-1.24,20.52-1.86,1.62-.15,3.24-.32,4.9-.49a4.41,4.41,0,0,0,0-.93c-.86-5-1.74-10-2.58-15-.15-.87-.7-.83-1.32-.8-7.27.36-14.53.7-21.79,1.07C118.19,48.25,116.89,48.41,115.59,48.53Zm26.31-2.64a6.61,6.61,0,0,0-.05-.89q-2.37-7.09-4.73-14.19c-.24-.73-.74-.82-1.4-.79l-26.09,1.07a8.73,8.73,0,0,0-1.1.2c.31.62.56,1.07.75,1.55,1.79,4.35,3.63,8.68,5.3,13.08.4,1,.79,1.31,1.85,1.24q9.75-.7,19.49-1.25C137.86,45.8,139.82,45.89,141.9,45.89Zm3.68,19.34a7.4,7.4,0,0,0-1.05,0c-8.23.77-16.46,1.56-24.69,2.29-.85.08-1.07.32-1.06,1.14,0,2.91,0,5.83,0,8.74,0,1-.11,2-.17,3.14a6.41,6.41,0,0,0,.8,0q12.53-1.18,25-2.37c.68-.06.88-.4.9-1,.07-1.52.2-3,.22-4.55C145.61,70.18,145.58,67.71,145.58,65.23Zm-105,62.62c2.92.06,5.7-.14,8.26-2,7.85-5.7,13.24-13.25,17-22a76.14,76.14,0,0,0,4.48-46.75c-2.07-9.95-5.79-19.2-12.24-27.18-6-7.37-13.33-12.64-22.77-14.54a19.3,19.3,0,0,0-7.23-.46c-3.25.64-6.34,2.09-9.49,3.25a8.72,8.72,0,0,0-1.54,1A1.83,1.83,0,0,0,18.2,19a29.4,29.4,0,0,1,19.86-.63c9.21,2.89,16,8.85,21.12,16.82C66,45.75,69.09,57.53,69.73,70a72.92,72.92,0,0,1-6.09,33.56c-3.79,8.59-9.22,15.89-17.21,21C44.57,125.79,42.56,126.77,40.61,127.85Zm48.27-59c5.69-.52,11.52-1.06,17.35-1.56.83-.07.82-.55.78-1.15a77.17,77.17,0,0,0-2.62-15.67c-.19-.7-.47-1-1.25-.86-3.41.41-6.83.74-10.24,1.13-2.49.28-5,.62-7.31.92C86.7,57.5,87.78,63.16,88.88,68.88ZM116.3,94.13a3.62,3.62,0,0,0,.7.08c8.29-1,16.58-1.95,24.86-3a1.48,1.48,0,0,0,1-1c.7-2.75,1.32-5.51,1.92-8.28.19-.87.25-1.77.38-2.79-1,.13-1.83.24-2.62.31-7.6.67-15.2,1.35-22.81,2-.9.08-1.31.32-1.42,1.3-.25,2.22-.62,4.43-1,6.64C117,91,116.64,92.52,116.3,94.13ZM78.2,35.79a2.77,2.77,0,0,0,.09.47,72.41,72.41,0,0,1,6.47,13.88,1.28,1.28,0,0,0,1.08.52C90,50.15,94.16,49.57,98.32,49l5.29-.67a2.3,2.3,0,0,0,0-.39,76.39,76.39,0,0,0-6.27-14.75,1.48,1.48,0,0,0-1.22-.54q-5.69.84-11.36,1.82C82.57,34.87,80.4,35.35,78.2,35.79Zm57.88-7.12c-.3-.68-.43-1.05-.63-1.39-1.45-2.48-2.92-5-4.36-7.44a1.82,1.82,0,0,0-1.84-1c-8.35.2-16.71.35-25.06.54-1,0-2,.13-3.1.21a3.13,3.13,0,0,0,.18.47c2,3.06,4,6.13,6.13,9.15a1.74,1.74,0,0,0,1.36.54c6.7-.33,13.4-.74,20.11-1.06C131.17,28.58,133.48,28.67,136.08,28.67ZM129.16,17.5A2.16,2.16,0,0,0,129,17c-1.95-2.11-3.89-4.22-5.88-6.29a2,2,0,0,0-1.19-.45A301.78,301.78,0,0,0,91.37,8.78c-.33,0-.65.06-1,.09a1.73,1.73,0,0,0,.17.36c3,2.88,5.95,5.76,9,8.62a1.77,1.77,0,0,0,1.14.43Q114.34,18,128,17.59C128.39,17.58,128.73,17.53,129.16,17.5ZM87.84,19.38a60.81,60.81,0,0,0-9.6-9,3.13,3.13,0,0,0-2.32-.65A107.61,107.61,0,0,0,55.06,14a8.3,8.3,0,0,0-.87.38l1.18.64a52.28,52.28,0,0,1,11.23,7.5,2.07,2.07,0,0,0,2.05.46c3.94-.86,7.89-1.69,11.85-2.44C82.84,20.06,85.21,19.78,87.84,19.38ZM68.31,23.85c.36.41.57.64.77.88,2.53,3,5.11,6,7.58,9.08a1.5,1.5,0,0,0,1.77.66q5.08-1,10.22-2c2.46-.45,4.93-.82,7.42-1.22a1.81,1.81,0,0,0-.06-.46c-2.27-3.28-4.52-6.57-6.83-9.82a1.6,1.6,0,0,0-1.25-.38c-4.35.6-8.69,1.22-13,1.91C72.75,22.87,70.63,23.38,68.31,23.85ZM138,102.21l-.34-.41c-.39.06-.78.11-1.16.19-7.81,1.46-15.62,3-23.44,4.38a1.76,1.76,0,0,0-1.37,1.12c-1.55,3-3.15,6-4.74,9-.13.26-.25.53-.42.87a4.12,4.12,0,0,0,.62,0,170.31,170.31,0,0,0,23.06-5.49,2,2,0,0,0,.94-.49C133.4,108.35,135.67,105.28,138,102.21ZM88.76,82.14a3.53,3.53,0,0,0,.5.06c5.7-.29,11.41-.6,17.11-.87.77,0,.93-.4.92-1.06,0-3.51-.05-7,0-10.54,0-.9-.31-1.14-1.21-1.07-4.53.39-9.07.7-13.6,1l-3.69.3Zm-2,12.68c6,0,11.93,0,17.83,0a1.4,1.4,0,0,0,1-.89c.53-3.19,1-6.38,1.44-9.58a15.7,15.7,0,0,0,0-2.07c-6,.33-11.9.64-17.8,1a1.06,1.06,0,0,0-.7.7c-.2,1-.24,2-.4,3C87.7,89.53,87.23,92.15,86.78,94.82Zm55.52-2.28c-.62,0-.9,0-1.16,0-8.1.94-16.19,1.89-24.29,2.79a1.22,1.22,0,0,0-1.22,1c-.87,2.74-1.81,5.46-2.71,8.19-.1.28-.16.58-.27,1a9.23,9.23,0,0,0,1.06-.08q12-2.27,23.91-4.55c.36-.07.89-.23,1-.5C139.87,97.84,141,95.27,142.3,92.54ZM77.24,1.92l0,.29a1.61,1.61,0,0,0,.28.17A38.27,38.27,0,0,1,88.05,7.43a2.9,2.9,0,0,0,1.57.38A302.39,302.39,0,0,1,120,9.1a9.19,9.19,0,0,0,.92,0c-.09-.23-.1-.32-.15-.37a3.59,3.59,0,0,0-.36-.32C114.17,3.38,107.15.55,99,.86c-4.75.18-9.5.3-14.25.52C82.24,1.49,79.75,1.73,77.24,1.92ZM105.11,96a6.84,6.84,0,0,0-.75-.1c-5.75.13-11.5.28-17.26.4-.73,0-.89.39-1.1,1-1,2.94-2.12,5.85-3.2,8.77-.18.51-.44,1-.69,1.53a3.08,3.08,0,0,0,.57.19,102.55,102.55,0,0,0,17.95-.59,1.54,1.54,0,0,0,1-.85q1.4-3.57,2.65-7.19C104.59,98.17,104.81,97.12,105.11,96Zm-31,23.48a6.63,6.63,0,0,0,.84.12c6-.16,12-.31,18-.51a1.8,1.8,0,0,0,1.28-.69c2.12-3.14,4.18-6.32,6.25-9.49a2.64,2.64,0,0,0,.15-.69c-.26,0-.41,0-.57,0a102.31,102.31,0,0,1-17.59.39,1.82,1.82,0,0,0-1.25.78c-2.16,3-4.26,6.08-6.37,9.13Zm89.09-74.05a47.38,47.38,0,0,0-4.44-13.69,1.6,1.6,0,0,0-1.16-.57c-2.67-.23-5.34-.41-8-.59l-5.19-.33a2.05,2.05,0,0,0,.1.59,81.87,81.87,0,0,1,5.74,14,1.33,1.33,0,0,0,1,.62c2.16.06,4.32,0,6.48,0Zm1.16,16.12a2.75,2.75,0,0,0,.12-.59c-.3-4.42-.62-8.84-.92-13.27,0-.74-.5-.78-1.07-.78-2.44,0-4.87,0-7.31,0h-4.08c.81,5.38,1.6,10.61,2.42,16ZM41.61,10.26l.69.25c3.24,1,6.48,2,9.74,2.92a2.66,2.66,0,0,0,1.48,0A110,110,0,0,1,70.43,9.46l5.32-.81A29.77,29.77,0,0,0,65.5,4.2a18,18,0,0,0-4.63-.33c-5.8.38-11.08,2.58-16.31,4.92C43.63,9.21,42.73,9.7,41.61,10.26ZM97.7,127.37c.58,0,.93,0,1.28-.06A66.38,66.38,0,0,0,113.45,124c3.55-1.29,7.28-2.21,10.08-5.05,1.77-1.8,3.68-3.47,5.53-5.2a1.85,1.85,0,0,0-1.19-.07c-6.27,1.43-12.51,3-18.82,4.21-2.48.47-4.45,1.18-5.66,3.47a4.86,4.86,0,0,1-.92,1.11C101,124.08,99.42,125.63,97.7,127.37Zm-32.66.5c7.47,3.92,24.38-.81,27.28-7.66-.21,0-.4,0-.59,0-4.71.11-9.45.53-14.14.24-3.2-.19-5.5.53-7.55,3A41.73,41.73,0,0,1,65,127.87Zm87.74-50.94c2.61-.51,5-1,7.45-1.46,3.4-.7,3.47-.71,3.8-4.2.27-2.75.35-5.53.53-8.45-3.75.47-7.22.89-10.69,1.38-.24,0-.56.67-.58,1-.09,2.16-.07,4.31-.15,6.46C153.08,73.36,152.91,75,152.78,76.93ZM137,19a4.57,4.57,0,0,0,.3.72c1.85,2.8,3.68,5.61,5.59,8.36a2,2,0,0,0,1.37.65c3.27.2,6.54.32,9.81.49,1.06.05,2.11.17,3.38.28a10.47,10.47,0,0,0-.65-1.22c-1.39-2-2.82-3.87-4.18-5.84A5.55,5.55,0,0,0,148,19.83C144.4,19.69,140.82,19.29,137,19Zm13.32,70.33a1.27,1.27,0,0,0,.3.06c2.23-.61,4.46-1.22,6.69-1.85,3.58-1,3.61-1,4.56-4.61.59-2.26,1.06-4.54,1.62-7-.54.07-.81.09-1.07.14-2.5.5-5,1-7.5,1.52-2.33.45-2.29.43-2.74,2.79C151.63,83.35,151,86.3,150.34,89.31Zm9.7-.73a2.13,2.13,0,0,0-.43-.14c-3.09.77-6.19,1.52-9.27,2.34a1.51,1.51,0,0,0-.86.82c-.52,1.21-.92,2.46-1.4,3.69s-1,2.38-1.64,3.92c2.51-.68,4.67-1.36,6.88-1.84a5.49,5.49,0,0,0,4.26-3.52C158.31,92.07,159.21,90.35,160,88.58ZM148.63,18.65l.25-.5c-2.67-1.93-5.34-3.87-8-5.77a2.34,2.34,0,0,0-1-.24l-8.47-1c-.36,0-.73,0-1.25,0,1.89,2.18,3.63,4.2,5.41,6.18a1.77,1.77,0,0,0,1.08.38c2.31.17,4.63.27,6.94.44C145.22,18.3,146.92,18.49,148.63,18.65Zm-7.35,89.58,8.08-3.17a1.21,1.21,0,0,0,.42-.42q2.4-2.92,4.76-5.86a5.78,5.78,0,0,0,.5-.94c-3,.75-5.81,1.45-8.62,2.18a1.15,1.15,0,0,0-.66.45C144.31,103,142.89,105.43,141.28,108.23Zm-4.34-97.81a24,24,0,0,0-11.88-3.79c1,.93,1.85,1.72,2.72,2.46a2.34,2.34,0,0,0,1.09.65C131.55,10,134.25,10.2,136.94,10.42Zm-1.09,103.94a28.56,28.56,0,0,0,10.32-6.42c-2.16.64-4.26,1.38-6.35,2.15a1.43,1.43,0,0,0-.54.45C138.13,111.81,137,113.09,135.85,114.36ZM115.59,49a79.91,79.91,0,0,1,3,16.24c0,.76.41,1,1.18.91,6.84-.64,13.68-1.24,20.52-1.86,1.62-.15,3.24-.32,4.9-.49a4.41,4.41,0,0,0,0-.93c-.86-5-1.74-10-2.58-15-.15-.87-.7-.83-1.32-.8-7.27.36-14.53.7-21.79,1.07-1.3.07-2.6.23-3.9.35A2.53,2.53,0,0,0,115.59,49ZM117,94.21c8.29-1,16.58-1.95,24.86-3a1.48,1.48,0,0,0,1-1c.7-2.75,1.32-5.51,1.92-8.28.19-.87.25-1.77.38-2.79-1,.13-1.83.24-2.62.31-7.6.67-15.2,1.35-22.81,2-.9.08-1.31.32-1.42,1.3-.25,2.22-.62,4.43-1,6.64-.27,1.55-.64,3.09-1,4.7A3.62,3.62,0,0,0,117,94.21ZM78.29,36.26a72.41,72.41,0,0,1,6.47,13.88,1.28,1.28,0,0,0,1.08.52C90,50.15,94.16,49.57,98.32,49l5.29-.67a2.3,2.3,0,0,0,0-.39,76.39,76.39,0,0,0-6.27-14.75,1.48,1.48,0,0,0-1.22-.54q-5.69.84-11.36,1.82c-2.19.38-4.36.86-6.56,1.3A2.77,2.77,0,0,0,78.29,36.26Zm57.16-9c-1.45-2.48-2.92-5-4.36-7.44a1.82,1.82,0,0,0-1.84-1c-8.35.2-16.71.35-25.06.54-1,0-2,.13-3.1.21a3.13,3.13,0,0,0,.18.47c2,3.06,4,6.13,6.13,9.15a1.74,1.74,0,0,0,1.36.54c6.7-.33,13.4-.74,20.11-1.06,2.3-.11,4.61,0,7.21,0C135.78,28,135.65,27.62,135.45,27.28Zm-57.21-17a3.13,3.13,0,0,0-2.32-.65A107.61,107.61,0,0,0,55.06,14a8.3,8.3,0,0,0-.87.38l1.18.64a52.28,52.28,0,0,1,11.23,7.5,2.07,2.07,0,0,0,2.05.46c3.94-.86,7.89-1.69,11.85-2.44,2.34-.44,4.71-.72,7.34-1.12A60.81,60.81,0,0,0,78.24,10.33Zm11,71.87c5.7-.29,11.41-.6,17.11-.87.77,0,.93-.4.92-1.06,0-3.51-.05-7,0-10.54,0-.9-.31-1.14-1.21-1.07-4.53.39-9.07.7-13.6,1l-3.69.3V82.14A3.53,3.53,0,0,0,89.26,82.2Zm-12-80a1.61,1.61,0,0,0,.28.17A38.27,38.27,0,0,1,88.05,7.43a2.9,2.9,0,0,0,1.57.38A302.39,302.39,0,0,1,120,9.1a9.19,9.19,0,0,0,.92,0c-.09-.23-.1-.32-.15-.37a3.59,3.59,0,0,0-.36-.32C114.17,3.38,107.15.55,99,.86c-4.75.18-9.5.3-14.25.52-2.51.11-5,.35-7.51.54Zm27.14,93.72c-5.75.13-11.5.28-17.26.4-.73,0-.89.39-1.1,1-1,2.94-2.12,5.85-3.2,8.77-.18.51-.44,1-.69,1.53a3.08,3.08,0,0,0,.57.19,102.55,102.55,0,0,0,17.95-.59,1.54,1.54,0,0,0,1-.85q1.4-3.57,2.65-7.19c.34-1,.56-2,.86-3.14A6.84,6.84,0,0,0,104.36,95.93ZM164.43,61c-.3-4.42-.62-8.84-.92-13.27,0-.74-.5-.78-1.07-.78-2.44,0-4.87,0-7.31,0h-4.08c.81,5.38,1.6,10.61,2.42,16l10.84-1.35A2.75,2.75,0,0,0,164.43,61ZM99,127.31A66.38,66.38,0,0,0,113.45,124c3.55-1.29,7.28-2.21,10.08-5.05,1.77-1.8,3.68-3.47,5.53-5.2a1.85,1.85,0,0,0-1.19-.07c-6.27,1.43-12.51,3-18.82,4.21-2.48.47-4.45,1.18-5.66,3.47a4.86,4.86,0,0,1-.92,1.11c-1.52,1.57-3,3.12-4.77,4.86C98.28,127.35,98.63,127.36,99,127.31Zm-6.66-7.1c-.21,0-.4,0-.59,0-4.71.11-9.45.53-14.14.24-3.2-.19-5.5.53-7.55,3a41.73,41.73,0,0,1-5,4.43C72.51,131.79,89.42,127.06,92.32,120.21Zm45-100.51c1.85,2.8,3.68,5.61,5.59,8.36a2,2,0,0,0,1.37.65c3.27.2,6.54.32,9.81.49,1.06.05,2.11.17,3.38.28a10.47,10.47,0,0,0-.65-1.22c-1.39-2-2.82-3.87-4.18-5.84A5.55,5.55,0,0,0,148,19.83c-3.58-.14-7.16-.54-11-.85A4.57,4.57,0,0,0,137.32,19.7Zm13.32,69.67c2.23-.61,4.46-1.22,6.69-1.85,3.58-1,3.61-1,4.56-4.61.59-2.26,1.06-4.54,1.62-7-.54.07-.81.09-1.07.14-2.5.5-5,1-7.5,1.52-2.33.45-2.29.43-2.74,2.79-.57,3-1.23,5.91-1.86,8.92A1.27,1.27,0,0,0,150.64,89.37Zm-1.28,15.69a1.21,1.21,0,0,0,.42-.42q2.4-2.92,4.76-5.86a5.78,5.78,0,0,0,.5-.94c-3,.75-5.81,1.45-8.62,2.18a1.15,1.15,0,0,0-.66.45c-1.45,2.48-2.87,5-4.48,7.76ZM125.06,6.63c1,.93,1.85,1.72,2.72,2.46a2.34,2.34,0,0,0,1.09.65c2.68.26,5.38.46,8.07.68A24,24,0,0,0,125.06,6.63Z"/></g></g></svg>