<svg xmlns="http://www.w3.org/2000/svg" viewBox="0 0 733.63 123.07"><defs><style>.cls-1{fill:#2e2e2e;}</style></defs><g id="Layer_2" data-name="Layer 2"><g id="Layer_1-2" data-name="Layer 1"><path class="cls-1" d="M400.57,44.78a7.11,7.11,0,0,0-.42,1.43,6.36,6.36,0,0,0-.41,2.67c-.81.73-1.2,2.19-2.2,3.1a3.53,3.53,0,0,0-3.23.43A13.83,13.83,0,0,0,389.5,58c-9.33,16.94-19.11,33.65-27.81,50.91-3.79,7.53-8.1,10.65-16.71,10.06-12.4-.85-10.14.38-10.4-10.06-.22-9-.62-17.92-.89-26.88-.05-1.37,0-3.05-1.44-3.36s-1.45,1.46-2,2.45c-6.16,11.37-12.38,22.72-18.52,34.11-1.3,2.41-2.92,3.73-5.88,3.57-4.48-.24-9-.13-13.47,0-2.86,0-4.11-1-4.19-4.06q-.65-27.15-1.68-54.28c-.13-3.11,1.08-7.33-3.93-8.36-2.91-1.22-4.45-3.15-3.25-6.44,1.63-5.86,1.73-6,8.14-6,8.94,0,17.88,0,26.82,0,2.44,0,5.59-1,5.7,3.37.12,4.68-1.71,8-5.14,8.59a4.94,4.94,0,0,0-1.38.5,4.09,4.09,0,0,0-3.1,4q0,16.2.07,32.41c0,.56.5,1.12.91,2,2.65-2,3.15-4.93,4.47-7.28Q322.91,70.72,329.77,58c1.42-2.62,2.87-5.41-1.92-6.2-2-.33-2-1.49-1.72-3.29,1.49-8.29,1.42-8.31,9.75-8.31,8.48,0,17-.06,25.44.05,1.78,0,5.09-.75,4.62,2-.54,3.21,1.07,8.51-3.64,9.23-5.19.79-5.66,3.63-5.66,7.56,0,10.27,0,20.53,0,31.22,2.63-.68,3.4-2.62,4.28-4.22C366,77,371,67.78,375.85,58.54c1.41-2.69,3.74-6-2-6.84a2.22,2.22,0,0,1-1.46-1.11c-1.61-3.62,2.75-10.33,6.72-10.36,6,0,12,.07,18,0C400.48,40.12,402.32,41,400.57,44.78Z"/><path class="cls-1" d="M111.79,105.05c-1.16-6.33,1.47-12.11,2.78-18,1.92-8.76,4.31-17.41,6.28-26.16,1-4.23,1.5-8.62-4.92-9.08a2.26,2.26,0,0,1-1.52-1c-1.58-2.93,2.63-10.46,5.88-10.48,8.8-.05,17.61,0,26.42-.05,3.08,0,4.15.86,3.34,4.15-4.13,16.76-8,33.59-12.17,50.34-.84,3.38-.82,6.3,1.66,8.76s5.63,2,8.48,1.09c5.56-1.69,9.74-5.18,11.18-11,2.78-11.27,5.4-22.59,7.93-33.93.89-3.95.51-7.48-4.82-7.75-2.05-.11-2.53-1.17-1.89-3A24,24,0,0,0,161.75,44c.34-2.9,1.8-3.87,4.65-3.83,8.48.13,17,.17,25.43,0,3.74-.08,5.1.84,4.1,4.87-3.56,14.34-6.86,28.74-10.24,43.13-.38,1.61-.72,3.23-1.07,4.84-.48,3.23-1.47,6.37-1.48,9.7,0,2.53,1.12,4.2,3.45,4.73,1.92.44,3.72.49,3,3.26-.85,3.15.17,7.86-4.63,8.14-9.06.54-18.17.23-27.26.12a3.53,3.53,0,0,1-3.23-1.95c-.89-1.68-2.06-2-3.6-.9l-3.1,1.92c-4.8,2.77-10.31,3.16-15.55,4.29-3.93.86-7.63-1.38-11.44-2.26h0C115.57,116.36,112.07,111.67,111.79,105.05Z"/><path class="cls-1" d="M539,122.3c-5.57-.46-12.86-1.13-19.28-5.17-1.28-.8-2.27-1.25-3.49,0-2.75,2.84-6.27,1.38-9.46,1.5-2,.07-2.35-1.37-1.94-3.14,1.72-7.44,2.95-15,5.23-22.31,1.6-5.09,6.61-2.05,10.07-2.56,3-.43,2.87,2,2.79,4.08-.44,11,10.89,18.25,23,14.28a8.12,8.12,0,0,0,5.66-7.57c.23-4.06-2.33-6.56-5.55-8.17-5-2.51-10.34-4.52-15.43-6.94-10.94-5.21-17.23-14.88-15.89-24.19,1.92-13.33,10.1-21.61,23.06-24a44.48,44.48,0,0,1,25.85,2.76c1.74.73,3.31,1.51,5.1.14s3.85-.69,5.81-.82c3.54-.24,5.34.51,3.95,4.81-1.59,4.88-2.4,10-3.53,15-1.3,5.81-6,3.31-9.39,3.76-3.59.48-3.35-2.14-3.51-4.54a10.29,10.29,0,0,0-7.4-9.68c-5.17-1.69-10.57-2.2-15.08,1.73-4,3.48-2.86,8.8,2.55,11.84,6.07,3.4,12.35,6.43,18.48,9.74,9.53,5.15,14.71,12.73,13,24-1.84,12-8.43,19.93-20.07,23.52A43.56,43.56,0,0,1,539,122.3Z"/><path class="cls-1" d="M685,103.05c.39,2.09,1.25,4,3.59,4.22s4.26.92,3.21,3.56c-1.14,2.87.39,7.82-4.92,7.88-12.3.13-24.6,0-36.9.06-2.34,0-3.57-.89-2.88-3.31,1.06-3.77.78-8.28,6.85-8.6,3.61-.19,5.49-3.79,6.3-7q5-20.06,9.44-40.25c.81-3.7.92-7.64-4.71-7.79a2,2,0,0,1-2-1.17c-1.56-3.44,2.81-10.37,6.62-10.38q12-.06,23.94,0c6,0,6,0,4.53,5.84-.19.78-.67,1.55.13,2.75,3-2.29,5.83-4.65,8.86-6.81a22.49,22.49,0,0,1,14-4.51c9.32.36,14.92,9.37,11.69,18.91-2.23,6.56-6.93,10.91-14.07,11.88-6.78.93-12.17-1.07-14.9-7.89-1-2.55-2.31-1.66-3.77-.45-3.7,3.09-5.76,7.25-7.48,11.6-1,2.47-1.68,5-2.51,7.56C688.57,87.15,685.21,94.77,685,103.05Z"/><path class="cls-1" d="M478.18,118.77c-5.48,0-11,.09-16.45,0-1.93-.06-5.44,1-5.12-2.06s-.91-8.23,4.1-9c6.05-1,8.31-4.87,9.51-10,2.89-12.28,5.69-24.57,8.54-36.86,1.34-5.78.6-7.17-4.85-9a3.12,3.12,0,0,1-1.64-.93c-1.51-2.37,2.59-10.53,5.42-10.57,9.14-.11,18.27-.05,27.41,0,3.57,0,3.35,2,2.7,4.68-4.32,17.92-8.5,35.86-12.73,53.8-1,4.35-1,8.07,4.72,8.88a2.32,2.32,0,0,1,1.55,1c1.52,2.94-2.87,10.08-6.21,10.11C489.48,118.8,483.83,118.76,478.18,118.77Z"/><path class="cls-1" d="M492.2,33.18c-8.63-2.4-9.71-14-5.29-20.9,4.63-7.24,14.6-10,21.26-5.48,6.48,4.37,6.61,15.74.2,22a26,26,0,0,1-3.21,2.32C501.08,33.3,496.85,34.6,492.2,33.18Z"/><path class="cls-1" d="M391.28,66c.54,3.46-1.63,6.32-2.14,9.57a57.44,57.44,0,0,0,3.14,29.63c-4.25-4.39-4.47-10.22-5.14-15.69C386.14,81.35,387.1,73.33,391.28,66Z"/><path class="cls-1" d="M120.74,120.06c9.24,2.5,18.14.57,27-2C139,122.75,130.18,125.26,120.74,120.06Z"/><path class="cls-1" d="M258.55,14.19a2.79,2.79,0,0,1,1.51,2.9c-2.18,8-2.57,16.52-6.56,24,.22-5.46,2.23-10.54,3.38-15.8A52.54,52.54,0,0,0,258.55,14.19Z"/><path class="cls-1" d="M685,103.05c-.65-8.47,2.41-16.16,5-23.94C689.71,87.39,686.39,95,685,103.05Z"/><path class="cls-1" d="M111.79,105.05c1.12,6.12,4.79,10.71,9,15C114.77,116.84,111,112.33,111.79,105.05Z"/><path class="cls-1" d="M492.2,33.18c4.47.25,8.71-1,13-2.05C501.33,34.88,496.83,34.46,492.2,33.18Z"/><path class="cls-1" d="M362.33,49.23c-2.27,2.59-5.17,1.77-7.84,1.88-3.51.15-4.93,1.37-4.6,5.25a174,174,0,0,1-.08,32.28,12.86,12.86,0,0,0-.12,2.47c.1,1,.48,2.1,1.71,2.08s1.44-1.09,1.42-2.16-.61-2.75.87-3c2-.26,1.25,1.85,1.81,2.89,3.88,7.1-.83,12.6-3.49,18.41-1.2,2.61-3.87,2.91-6.49,2.43-2.79-.51-3-2.73-3-5,0-4.15-.06-8.3,0-12.45a20.79,20.79,0,0,0-2.57-9.74c-2.06-4.16-1.59-9.25-5.7-13.05-1.48-1.37.52-5.62,1.65-8.42,1.58-3.94,2.56-8,.44-12-1.32-2.5.44-2.73,2.1-3.25,5.5-1.72,10.89-.07,16.22.84C357.16,49.19,359.52,50.57,362.33,49.23Z"/><path class="cls-1" d="M309.1,49c-3.69,2.06-3.73,4.62-3.72,7.58,0,11.11.63,22.23-.34,33.33-.2,2.3.35,3.33,3,3.23,3.39-.14,4.41,1,2.46,4.52-1.75,3.11-2,6.91-3.8,10.17s-4.6,3.83-7.57,3.62-2-3.29-2.88-5.08c-5.72-11.63-2.42-23.65-2-35.61.24-6.57,2.32-13.55-2.11-19.78-1.44-2,.45-2.4,1.94-2.87C298.7,46.66,303.22,47.55,309.1,49Z"/><path class="cls-1" d="M464.22,71.6c-1.5,11.29-.16,9.46-10.93,9.57-11.8.11-23.61.14-35.42,0-3.34-.05-4.72,1-5.22,4.34a33.4,33.4,0,0,0-.24,9.92c1.61,11,16.1,15.48,25.7,8a27.64,27.64,0,0,0,8.41-9.72c1.37-2.86,3.28-3.39,6-2,9,4.58,9.81,3.45,3.95,12.6-13.62,21.29-43.17,24.64-60.15,7a16.59,16.59,0,0,1-4.09-6.17c-6.54-12.91-5.91-26-1-39.19a43.08,43.08,0,0,1,5.79-10.4c.53-.74,1.68-1.44,1.54-2.36,1.38-1,3-1.7,3.25-3.42a15.58,15.58,0,0,0,1.39-1.54A42.41,42.41,0,0,1,429.74,37C449.35,35.59,467.24,48.93,464.22,71.6ZM427.6,69.26c2.32,0,4.64,0,7,0,3.53,0,5.49-1.79,6.24-5.17a16.74,16.74,0,0,0-.1-8.35c-1.73-6.05-7.64-8.39-12.92-5a20,20,0,0,0-8,9.2c-3.82,9.16-3.76,9.33,5.84,9.33h2Z"/><path class="cls-1" d="M288.52,96.61c.34-1.27-.5-3.48,1.64-3.42,1.63,0,1.33,2,1.28,3.27s.57,3.51-1.57,3.46C288.23,99.88,288.76,97.87,288.52,96.61Z"/><path class="cls-1" d="M36.7,118.75c-11,0-22-.1-32.92,0-3.56,0-4.32-1.23-3.46-4.51,1.11-4.22,2-7.81,8-7,4.33.61,7.12-2.33,8.16-6.52q4.16-16.68,8.15-33.4c3.61-15,7.11-30.07,10.79-45.07,2-8.23,1.25-9.62-7.13-10.26-2.5-.2-3.12-1.16-2.76-3.48C26.71.52,27.2.06,35.58.06,51.38.05,67.18,0,83,.09c7,.05,14,1.26,20.13,4.86,11.33,6.59,14.44,20.67,7.85,34.24A24.34,24.34,0,0,1,96.14,52.35c-1,.34-2.49.28-2.56,1.85-.06,1.14.83,1.78,1.73,2.23,17.07,8.52,16.47,30.91,8,44.42C95,114,82.57,118.29,68.13,118.7,57.66,119,47.18,118.75,36.7,118.75ZM79,88.91a37.92,37.92,0,0,0,1.87-13.25c-.3-9.15-6.07-15.15-15.29-15.66-3-.16-6,.11-9,0s-4.28,1.15-5,4.16c-2.47,11-5.44,21.93-7.9,32.95-2.57,11.57-3.87,10.28,8.11,10.4C68.35,107.47,74.17,103.59,79,88.91ZM71,47.83c10.62-1.38,17.62-11.94,16.75-25.16C87.22,14.81,82.56,12,70.26,12c-.83,0-1.67.06-2.5,0-2.83-.22-4.06,1-4.68,3.86-1.69,7.79-3.67,15.52-5.66,23.24-2.31,9-2.37,9,7.1,9.06C66.68,48.05,68.85,48.11,71,47.83Z"/><path class="cls-1" d="M271.54,72.1c-2.14,8.72-4.36,17.42-6.39,26.17-.94,4-1.58,8.22,4.34,9.13,2.43.37,2.38,2.14,1.83,3.77-.95,2.77,0,7.22-4.33,7.44-8,.4-16,.11-24,.1-.33,0-.85,0-1-.14-3.3-5.18-5.93-.9-8.79.57-13.61,6.94-38,2.67-41-20.66-2.1-16.2.77-31.42,11.13-44.72,10.86-13.95,33-20.33,47.42-12.47,1,.56,1.83.65,2.67-.17,2-7.2,3.74-14.48,5.52-21.73a6.32,6.32,0,0,0-.47-5.2l-1.39-1.39c-1.5-1.49-5.17.5-5.23-2.51-.06-2.86,1.13-5.79,2-8.63.54-1.83,2.32-1.58,3.78-1.59C266.47,0,275.25.16,284,0c3.69-.07,4.2,1.68,3.49,4.66q-2.06,8.68-4.08,17.39C283,29,279.18,35.36,280,42.52A24.52,24.52,0,0,1,276.79,51c-1.73,2.76-1.75,6.54-2.42,9.81C273.6,64.64,272.43,68.33,271.54,72.1Zm-54.31,24c1,8.52,8.51,11.85,14.41,9s7.81-8.52,9.83-14.07c3.72-10.2,6.74-20.59,5.48-31.6-.8-7-8.63-10.1-14.34-5.87a28.82,28.82,0,0,0-9.18,11.57c-3.64,8-5.48,16.35-6.73,24.93C215,92.24,217,94.16,217.23,96.13Zm2.31,7.25a8.68,8.68,0,0,0,12.1,1.76c-10.64.24-13.07-1.85-14.63-12.61-.11-.81-.21-1.62-.31-2.43C215.14,95.06,216.54,99.52,219.54,103.38Z"/><path class="cls-1" d="M592.13,116c-9.2-6.58-13.27-15.78-14-26.84C577,68.87,584.73,53,602,42.53c12.24-7.38,25.59-8.1,38.53-1.14,13.93,7.49,17,23.39,13.13,37.31-.72,2.6-2.58,2.51-4.68,2.5-13.14,0-26.28.12-39.42-.09-4.35-.07-6.25,1.28-6.74,5.76-1.11,10.12,1.14,15.64,8.35,18.75,7.4,3.19,16.42.63,21.87-6.22a22.51,22.51,0,0,0,2.91-4c2.18-4.53,4.72-5.25,9.32-2.57,6.46,3.76,6.82,3.44,2.93,9.74A45.15,45.15,0,0,1,633,118C619,124.49,605.38,124.24,592.13,116Zm14.69,6.39c9.08,1.18,18.2,1.52,26.2-4.33-5.42,1.19-10.63,3.26-16.26,3.61-8.79.55-16.82-2.06-24.63-5.67C596.06,120.33,601.45,121.67,606.82,122.37Zm14.57-53.08c9.11,1.13,11.48-3.84,9.77-12.9-1.23-6.54-7-8.89-12.89-5.7a18.41,18.41,0,0,0-8,9.16c-4,9-3.68,9.41,6.16,9.42h1.48A28.67,28.67,0,0,1,621.39,69.29Z"/></g></g></svg>