<svg xmlns="http://www.w3.org/2000/svg" viewBox="0 0 587.61 640.12"><defs><style>.cls-1{fill:#fff;}</style></defs><g id="Layer_2" data-name="Layer 2"><g id="Layer_1-2" data-name="Layer 1"><path d="M54.49,53H.4V0h54c-.17,14.07-.38,28.14-.47,42.21C53.91,45.81,54.29,49.42,54.49,53Z"/><path d="M374.4,0c-.17,8.62-.4,17.24-.48,25.86-.09,8.8,0,17.59,0,26.78H320.4V0Z"/><path class="cls-1" d="M54.49,53c-.2-3.61-.58-7.22-.56-10.82.09-14.07.3-28.14.47-42.21h53l-.05,53,.1-.1c-4.45.14-8.91.43-13.36.41-13.25-.08-26.49-.27-39.74-.41Z"/><path d="M107.35,53l.05-53h53V53Z"/><path d="M267.4,0q0,26.52.05,53h-53V0Z"/><path d="M480.4,0V52.41a17.12,17.12,0,0,1-3,.59q-23.89,0-47.78,0a14.69,14.69,0,0,1-2.43-.41l.12.16L427.4,0Z"/><path d="M587.61,52.61H534.4V0h53q0,26.39.08,52.78Z"/><path d="M53.6,213.4v52.75H1.26a32.42,32.42,0,0,1-.46-3.76q0-22.21,0-44.42c0-2.07-.63-4.59,2.86-4.58C20.11,213.41,36.56,213.4,53.6,213.4Z"/><path d="M213.45,106.31H161.13c-.12-1.73-.32-3.31-.32-4.89,0-14.3.09-28.6-.09-42.9,0-3.75.76-5.3,4.93-5.24,15.78.23,31.57.09,47.8.09Z"/><path d="M53.87,586.5H21.26c-5.49,0-11-.12-16.46,0-3,.09-4.1-.83-4.08-4,.14-15.13.11-30.26,0-45.4,0-2.72.8-3.87,3.69-3.85,15.3.1,30.6,0,45.9.18,1.19,0,3.37,1.81,3.38,2.8C53.93,552.75,53.87,569.18,53.87,586.5Z"/><path d="M213.66,373.38v52.84H161.29a31.15,31.15,0,0,1-.47-3.84q-.06-22.23,0-44.46c0-2.1-.56-4.56,2.91-4.55C180.18,373.4,196.64,373.38,213.66,373.38Z"/><path d="M480.33,640.05c.15-10.63.33-21.27.43-31.91.07-6.8,0-13.61,0-20.84H533.9c0,4.5,0,8.94,0,13.39.16,13.12.37,26.24.56,39.36Z"/><path d="M107.08,372.74v53.35H54.3c0-9.27-.08-18.39,0-27.51.1-8.64.38-17.28.57-25.92l-.13.09c2.77.21,5.54.61,8.31.59,14.72-.09,29.45-.29,44.17-.45Z"/><path d="M267.35,52.94l44.85.43c2.61,0,5.23,0,8,0V106.5H310.13c-12.64,0-25.29,0-37.93,0a42.13,42.13,0,0,0-4.85.56Z"/><path d="M214.76,532.75c2.78.21,5.55.6,8.33.6,14.8,0,29.59-.17,44.38-.26l-.14-.18v54.18l.14-.17-42.85-.42c-3.28,0-6.56,0-10.32,0,0-13.73-.05-26.83,0-39.94,0-4.63.37-9.27.56-13.9Z"/><path d="M160.26,212.89v53.27H107.52V212.88l-.19.18h53.13Z"/><path d="M267.45,212.94v54.13c-3.95-.19-7.9-.52-11.86-.54-11.83-.08-23.65,0-35.48,0H214.3c0-14.6-.05-28.56,0-42.51,0-3.81.43-7.61.66-11.41l-.08,0c.26.19.53.56.79.56Q241.58,213.09,267.45,212.94Z"/><path d="M54.35,52.94c13.25.14,26.49.33,39.74.41,4.45,0,8.91-.27,13.36-.41v53.23H54.35Z"/><path d="M107.47,533l46.38.37c2,0,3.92,0,6.24,0v52.89H107.65V532.82Z"/><path d="M160.32,639.87q.24-19.68.47-39.36c0-4.3,0-8.6,0-13.26h52.81v52.44H160.16Z"/><path d="M.18,159.92c.2-3.29.56-6.58.58-9.87.06-14.12,0-28.25,0-42.77H53.61V159.8H0Z"/><path d="M.34,373.05V320H53.47c.15,2.36.36,4.11.37,5.86,0,13.93,0,27.87.1,41.81a32.3,32.3,0,0,0,.8,5.14l.15-.1Z"/><path d="M160.09,480.38h53.36c.14,1.84.38,3.58.38,5.32,0,14,0,27.93.11,41.9a32.84,32.84,0,0,0,.8,5.17l.15-.11H161c-.08-1.67-.23-3.42-.24-5.17,0-14,0-27.92,0-41.88a51.93,51.93,0,0,0-.56-5.38Z"/><path d="M215,212.58c-11.94.15-23.88.35-35.81.44-6.31,0-12.61-.08-18.92-.13l.2.17V159.93l-.18.19h53.19c.15,2.18.36,3.93.37,5.68,0,13.95,0,27.89.1,41.84a25.79,25.79,0,0,0,1,5Z"/><path d="M160.43,320l.36-46.39c0-2,0-3.93,0-6.29h52.82v52.5H160.25Z"/><path d="M.15,479.88c.21-2.12.61-4.24.61-6.35.06-15.3,0-30.6,0-46.27H53.61v52.51H0Z"/><path d="M267.53,427.13V372.88l-.19.18h53.13l-.15-.15v53.54c-4,0-7.66,0-11.29,0q-20.85.23-41.69.49Z"/><path d="M267.47,479.89H214.68V427.13h52.85l-.2-.19v53.13Z"/><path d="M267.52,372.88H214.75V320.11h52.72l-.14-.18v53.13Z"/><path d="M267.45,107v53.09H214.67V107Z"/><path d="M107.54,480V427.27H160.1q0,26.53,0,53.11l.12-.15-45.35-.38c-2.5,0-5,0-7.49,0Z"/><path d="M107.37,479.85l.09,53.15.19-.18h-53V480h52.93Z"/><path d="M107.24,372.89q.17-26.46.32-52.93l-.17.17,53-.17-.18-.18v53H107.08Z"/><path d="M267.47,533.09v-53.2l-.14.18,52.84-.17-.16-.13q.15,26.6.28,53.19l.13-.14-53.09.09Z"/><path d="M267.35,267h52.91v53.11l.2-.14H267.33l.14.18Z"/><path d="M107.51,639.76H54.74V587.21h52.61v52.72Z"/><path d="M107.56,320H54.73V267.2h52.66v52.93Z"/><path d="M267.64,640.11q-.09-26.6-.17-53.19l-.14.17h53v53l.18-.14-53,0Z"/><path d="M107.52,160.07V107.33h52.76v52.79l.18-.19H107.33Z"/><path d="M267.34,160l52.82-.06-.15-.12V213H267.35Z"/><path d="M107.52,212.88H54.75V160.07h52.77l-.19-.14v53.13Z"/><path d="M373.13,266.29H321.29a32.2,32.2,0,0,1-.49-3.9c0-14.81.08-29.62-.09-44.43,0-3.42.89-4.67,4.46-4.63,14.81.16,29.62.06,44.43.06,2.21,0,4.36-.25,4.33,3.15-.13,16.13-.13,32.27-.19,48.41C373.74,265.24,373.48,265.53,373.13,266.29Z"/><path d="M533.47,106.27H481.35a24,24,0,0,1-.55-3.45c0-15.14,0-30.28,0-45.42,0-2.14-.06-4,2.94-4,16.45,0,32.9,0,49.77,0Z"/><path d="M534.47,320.05H480.33c.15-10.3.34-20.6.43-30.9.07-7.14,0-14.27,0-21.83H533.9c0,4.48,0,8.92,0,13.36C534.07,293.81,534.28,306.93,534.47,320.05Z"/><path d="M534.52,212.86H481.07c-.1-1.84-.28-3.59-.28-5.33,0-14,0-27.94,0-41.91a51.48,51.48,0,0,0-.57-5.37l-.12.14,54.47-.27-.19-.19c-.15,4.79-.45,9.58-.42,14.37.06,12.92.27,25.84.41,38.76Z"/><path d="M427.74,267.29l-.12-54.45-.18.18,46.43.36c2,0,3.92,0,6.23,0v52.84c-1.89.09-3.81.26-5.73.26-14.16,0-28.32,0-42.48,0a30.55,30.55,0,0,0-4.32.61Z"/><path d="M427.15,52.58v53.65H374.63V53.67c1.95-.1,3.88-.29,5.81-.29,14,0,28,0,42,0a37.84,37.84,0,0,0,4.84-.59Z"/><path d="M587.28,212.88v53.23H534.52V212.86l-.18.2h53.13Z"/><path d="M320.16,159.89c.21-2.95.59-5.9.6-8.85.06-14.46,0-28.92,0-43.76h52.82v52.5H320Z"/><path d="M320.26,320.07h53.2c.15,2.21.37,4,.37,5.71.05,13.94,0,27.89.09,41.83,0,1.81.25,3.62.39,5.42l.18-.11H320.31l.15.15V319.93Z"/><path d="M427.45,372.94l-.18,54.17.2-.16c-9.75-.15-19.49-.34-29.24-.43-7.87-.07-15.75,0-23.74,0V372.92l-.18.11Z"/><path d="M427.57,267.14l-.21,52.79.15-.17H374.69V267.28h53Z"/><path d="M534.54,160.12V107.35h52.74v52.72l.19-.14H534.35Z"/><path d="M427.53,160V107.29h52.55v53.09l.11-.13q-19.19-.19-38.36-.4c-4.82,0-9.64,0-14.46,0Z"/><path d="M480.45,320q-.1,26.52-.19,53l.14-.14-53,.19q.07-26.62.16-53.27l-.15.16Z"/><path d="M587.47,372.86H534.36V320l53.16.12-.19-.14v53.13Z"/><path d="M427.37,159.85q0,26.58.07,53.17l.18-.18H374.76V160h52.77Z"/><path d="M480.26,373l44.87.38c2.64,0,5.28,0,8.34,0V426.2H480.4V372.85Z"/><path d="M534.52,532.86H481.06c-.1-2-.27-3.93-.27-5.84,0-13.63,0-27.27,0-40.9,0-2-.38-3.91-.58-5.87l-.12.14,54.46-.27-.19-.19c-.14,7.11-.43,14.23-.41,21.34,0,10.6.27,21.2.41,31.79Z"/><path d="M427.33,533.09q23.18.13,46.36.29c2.12,0,4.23.18,6.51.28V586.5c-2.67,0-5.11,0-7.55,0l-45.32.42.14.17V532.91Z"/><path d="M587.28,532.88V586.1H534.52V532.86l-.18.2h53.13Z"/><path d="M534.53,480.12c-.08-16.62-.21-33.24-.13-49.85,0-1.13,1.58-3.21,2.44-3.22,16.59-.19,33.18-.14,50.44-.14v53.16l.19-.14H534.34Z"/><path d="M427.28,479.93q0,26.58.05,53.16l.14-.18H374.72V480.07h52.75Z"/><path d="M427.33,586.92v53.2l.14-.19H374.72V587.09h52.75Z"/><path d="M427.27,427.11c16.42-.09,32.84-.25,49.26-.12,1.32,0,3.75,2,3.76,3.08.12,16.77-.08,33.54-.21,50.31l.11-.13-52.91-.32.19.14V427Z"/><path class="cls-1" d="M107.33,213.06V159.93h53.13v53.13Z"/><path class="cls-1" d="M320.46,319.93v53.13H267.33V319.93Z"/><path class="cls-1" d="M587.47,159.93v53.13H534.34c-.14-12.92-.35-25.84-.41-38.76,0-4.79.27-9.58.42-14.37Z"/><path class="cls-1" d="M587.47,479.93v53.13H534.34c-.14-10.59-.38-21.19-.41-31.79,0-7.11.27-14.23.41-21.34Z"/><path d="M320.29,533l45.9.41c2.31,0,4.62,0,7.31,0v52.81H320.43c0-17.91,0-35.64,0-53.37Z"/><path d="M320.17,479.9c.21-5.12.5-10.24.59-15.37q.3-17,.41-34c0-2.41.7-3.71,3.39-3.7,16.26.05,32.52,0,49.06,0v52.9H320Z"/></g></g></svg>