<svg xmlns="http://www.w3.org/2000/svg" viewBox="0 0 786.76 175.76"><defs><style>.cls-1{fill:#292929;}.cls-2{fill:#1a1a1a;}.cls-3{fill:#0a0a0a;}.cls-4{fill:#181818;}.cls-5{fill:#121212;}.cls-6{fill:#0b0b0b;}.cls-7{fill:#0c0c0c;}.cls-8{fill:#171717;}.cls-9{fill:#a4a4a4;}.cls-10{fill:#1d1d1d;}</style></defs><g id="Layer_2" data-name="Layer 2"><g id="Layer_1-2" data-name="Layer 1"><path class="cls-1" d="M659.6,117.17l3.32.41c-2,6.3-8.36,8.31-12.53,12.45-3,2.95-6,.32-8.57-2.25-2.87-2.9-6.7-5.07-8.92-8.35-1.88-2.79,1.67-1.87,3-2.34,4.55-11.78,1.4-24,1.73-36,.2-7.5,3-15.66-2.39-22.71-1.2-3.55-9.4-6.32-2.71-10.53,4.88-3.07,10-12.26,17.74-3.33s15.61,4.65,23.61-.06c10-5.88,26.67,3,26.66,13.91-2.39,19.58-2.69,39.16.2,58.72l2.24.13c-.55,7.68-8.58,9.18-12.16,14.52-2.41,3.59-4.07-1-5.65-2.6-5.59-5.58-11-9.76-8.31-20.43,2.92-11.68.68-24.65.66-37.06,0-16.21-3.42-18.31-17.67-11C657,79.48,657.65,98.33,659.6,117.17Z"/><path class="cls-1" d="M514.59,117.18c1.21.39,3.8.23,2.74,2-1.27,2.11-3.75,3.61-5.93,5-3.67,2.41-5.93,9.49-9.65,8-5.19-2.1-9.16-7.52-13.31-11.85-3.17-3.32,2.09-5.22,1.94-8.77-.69-16.16-.45-32.36-.27-48.54.06-5.66-3.85-8.66-7.33-12.61,3.28-2.17,6.41-4.17,9.48-6.27,4.42-3,7.64-5.49,13,.34,4.77,5.14,12.06,5.16,18.74-.24,5.92-4.78,19.58,3.13,19.9,10.88.19,4.7-3.24,5.4-6.64,6-7.94,1.44-14.6-2.61-21.59-5.24-.69.34-1.79.71-1.8,1.15C513.42,77.13,512,97.18,514.59,117.18Z"/><path class="cls-2" d="M390.15,24.75l4.72,2.09L395.2,135c-8-.15-4.94-6.41-5-10C390,91.58,390.13,58.17,390.15,24.75Z"/><path class="cls-3" d="M514.59,117.18c-3.28-20.47-5.27-40.93,1.12-61.22C513,76.32,515,96.77,514.59,117.18Z"/><path class="cls-4" d="M635.25,58.39a9.09,9.09,0,0,1,3.68,7.79q0,21.33,0,42.65a12.68,12.68,0,0,1-3,8.26Z"/><path class="cls-5" d="M700.75,117.1C696,97.54,696.5,78,700.55,58.38Q700.66,87.74,700.75,117.1Z"/><path class="cls-6" d="M659.6,117.17c-3.87-18.85-4.23-37.69.26-56.51Q659.74,88.92,659.6,117.17Z"/><path class="cls-7" d="M554.4,56.18c5.16,18,4.71,36.08.22,54.15C555.31,92.28,555.7,74.22,554.4,56.18Z"/><path class="cls-8" d="M409.53,58.47a90.66,90.66,0,0,1,.36,49.2Z"/><path class="cls-1" d="M339.71,38.39c-3.68-5.52-1.27-9,4-11.21,7.79-3.27,15.67-6.33,23.52-9.48a7.76,7.76,0,0,1,3.15,6.86c-1.61,25.82,3.22,51.3,4.05,77,0,6.85-4.91,10.61-9.31,14.73-3.42,3.2-9.39,5.54-7,11.47,2,5,7.55,4.13,12,3.93,5.88-.25,10.05-2.95,11.27-9.11.74-3.72.55-7.5.57-11.27.07-24.49-.22-49,.19-73.48.09-5.29-1.44-11.79,5.88-14.39a3.71,3.71,0,0,1,3.18,1.85c2,32.47.26,65,.95,97.44.09,4.22-1.73,9.15,3,12.33,2.47-.48,4.59-2.7,8.95-1-12.23,6.38-9.3,17.24-9.22,27.12.05,7.69-2.31,13.48-10.55,14.49-5.66.7-9.12-3-10.18-8.3-.9-4.55,1.63-7.2,6.25-7.38,9.38-.35,6.5-6.92,7.06-13.42-16.06,6.16-31.44,10.1-47.83,9.64-36.4-1-63.64-19.33-73-49.83-10.36-33.63,1.76-67.09,32.16-87.77,9-6.12,18.45-11.74,29.71-12.89,2.52,2.45,1.72,5,.28,7.62-7.17,9.53-15.93,17.8-21.16,28.87-14,29.69-7.44,52.45,10.55,75.15,7.21,9.11,12.35,8.51,21.45-.68,3.21-7.84,1.5-16.06,1.35-24C340.62,74.57,342.91,56.4,339.71,38.39Zm55.16-11.55c6.31-.59,12.64.32,19-1.45,7.35-2.05,6.19-6.67,2.08-9.18C407.85,11.27,401.74,1.76,393.68.09,388.23-1,380.62,8.29,374,13a27.43,27.43,0,0,0-2.47,2.24,15.57,15.57,0,0,0,.53,5.39c3.85,6.68,9.07,7.74,15.5,3.76l2.59.39C391.27,26.47,392.27,28.46,394.87,26.84ZM367.22,17.7c0,20.53-.19,41.06.06,61.59.1,8.11-1.69,16.45,2,24.3,6.62-3.1,5.52-9.4,5.58-14.75.27-23.63.93-47.27-.93-70.86l-2.37-2.77Zm-27.59,99c.76-.74,2.17-1.48,2.18-2.22q.18-36.88,0-73.77c0-.77-1.38-1.53-2.12-2.3Q339.68,77.54,339.63,116.68Zm8.5-115.09c-7.94,0-14,1-19.62,4.13q.15,3.81.28,7.62C334.77,9.67,341.92,7.84,348.13,1.59Zm-2.4,124.18c-5.31,5.1-3.56,6.77,2.13,8.75,11.29,3.94,22.88,3.4,34.52,3,4.25-.14,6.18-2.29,6.14-6.32-.39-35.62,1.41-71.25-1-106.85-4.88-1.43-9.63-3.15-13.66-6.38-5.55,2.41-4,7.39-4.08,11.67-.25,24.64-.39,49.29-.57,73.94C363,112.68,353.49,118.29,345.73,125.77Z"/><path class="cls-1" d="M715.51,56.18c6.59-10.11,31.08-16.9,40.89-11.37,6.33,3.57,14.84.78,20.31,6.92-.61,19.56-1.93,39.13.71,58.64,1,1.53,1.71,3.72,3.14,4.48,6.53,3.47,8.76,6.64,2.46,13.14-5.45,5.63-9.34,7.9-14.69.49-5-7-9.83-7.2-15.39.15-3.33,4.4-8.22,5.67-13.48,1.26-6.94-5.82-15.47-8.95-23.69-12.51C717.86,97,718.51,76.57,715.51,56.18Zm.26,61.2c4-20.42,4.39-40.82-.26-61.2Zm60.94-65.65c-2.45,19.58-3.73,39.15.71,58.64Q777.06,81.06,776.71,51.73Zm-22.08,14c-.13-8.66-8.3-8.45-13.24-9-5.29-.62-3,5.59-3.22,8.82-.38,7.11.58,14.34-.28,21.37-1.57,12.79,1.24,22.51,16.8,26.58C754.69,97.15,754.85,81.45,754.63,65.74Zm-19,34.64V59.27l-1.06,0v41.07Z"/><path class="cls-1" d="M409.53,58.47c-3.19-3.59-.26-5.52,2.26-6.92,20.1-11.14,40.36-9.51,60.54-.24,3.5,1.6,1.17,3.36-.51,4.82a202.16,202.16,0,0,0,.09,56.45c2.59,3,4.1,5.57-1.6,7a62.38,62.38,0,0,0-21.15,9.78c-2.69,1.87-6.07,2.51-8.52,1.48-10.54-4.44-20.77-9.5-31.65-13.3-5.77-2-1.48-6.64.9-9.82C412.15,91.25,412.7,74.85,409.53,58.47Zm62.29-2.34a121.55,121.55,0,0,0,.09,56.45Zm-41.21,52c2.32,1.18,4.61,2.44,7,3.53,8.92,4.13,12.42,1.87,11.63-8.46a265,265,0,0,1,0-33.58c.34-6.83-2.14-10.4-8.54-12.07-3.22-.84-6.25-2.41-9.36-3.66C427.82,72,429.26,90.05,430.61,108.15Zm0,0,.66-54.24C426.1,71.93,427.42,90,430.61,108.15Z"/><path class="cls-1" d="M554.4,56.18c-2-6,3.45-5.38,5.69-5.16,5.62.56,9.35-3.07,13.95-4.71s8-7.23,13-5.65c9.53,3,18.74,7.15,27.88,11.26,3.47,1.57,3.31,5.36,3.41,8.88.55,18-1.61,36.17,1.26,54.15.37,2.3-.22,3.55-2.34,4.21a4.71,4.71,0,0,1-1.1.24c-11.7.78-19.79,16.07-30,12.26-10.53-3.91-20.45-10.44-31.74-13.74-6.67-2-3-5.12.24-7.59C557.33,92.27,557.79,74.22,554.4,56.18Zm42.5,22.64c.26-5.94,2.32-12.42-1.72-18.1l-18.29-7c-4.49,18-3,36.17-.75,54.32,6.15,2.81,12,6.55,19,6.77C599.65,103,596.37,90.82,596.9,78.82Zm-1.72-18.1v54.1A101,101,0,0,0,595.18,60.72Zm-19,47.33c.22-18.11-1.16-36.24.75-54.32C570.88,71.75,571.93,89.88,576.14,108.05Z"/><path class="cls-9" d="M72.19,44.81a73.26,73.26,0,0,0-34,16.59c-9.82,8.34-17.81,2.41-25.85-1.5-5.18-2.52-2.21-6.94,1.39-8.6C37.91,40.11,62.4,29.64,89.87,30.59c8.41.29,14.28-.52,10.2-11.47-2-5.31,3.53-8,6.6-10.49C110,6,113.61,8,115.83,12.06c1.6,2.88,8.47,3.44,2.48,9.21-3.52,3.39,2,10.37,8.23,9.77,28.14-2.74,52.69,8.77,77.57,19,2.87,1.19,5.42,3,5.2,6.61-.19,3.21-3,3.94-5.39,5.11-8.69,4.33-16.44,5.1-24.8-2-8.86-7.58-19.69-12.31-32.34-15.52.73,5.93,6.12,8.15,7.49,12.5,1,3.14,5.69,7.2-.29,9.19-4,1.35-10,3.52-12.25-3.61-2.1-6.6-5.16-12.56-11.27-16.41-2.27-1.43-4.85-3-7.34-1.29-3.1,2.13-1,4.54.39,6.8,1.93,3.2,4.89,7.08.75,9.92-3.83,2.62-5.63-2-7.87-4.3-5.16-5.35-9.88-4.41-14.18,1.15-1.88,2.44-4,5.39-7.35,3.47-3.7-2.13-.92-5.26,0-8,1-2.91,5.49-6,1.46-8.78-3.71-2.6-7,1-9.85,3.39a24.17,24.17,0,0,0-7.87,12.16c-1.1,3.81-2.58,7.28-7.64,6.41-2.54-.43-5.91.23-7.1-2.5-1.76-4,1.39-7,3.24-10.26C68.65,51.3,72.47,49.86,72.19,44.81ZM187.69,134c6.19,0,12.54.39,12.57-8.76s-6.31-8.8-12.51-8.8q-77.52,0-155,0c-6.16,0-12.56-.43-12.58,8.75S26.46,134,32.66,134q38.48,0,77,0Q148.65,134,187.69,134ZM22.29,103.54c34.48.34,69,.11,103.45.12,2.06,0,4.79.52,4.67-3-5.1-3.64-8.87-8.5-4.5-14.21,5.47-7.15,2-9.34-4.19-12.06-2.92-1.29-5.14-4.26-7.54-6.6-2.05-2-5.31-4.1-6.55-1.17-3.44,8.14-23.38,7.57-12.25,23.64,2.36,3.42-1,8.15-5.72,9.25-3.56.83-5.84-1.29-6-4.94s1.79-8.63-4.35-8.07c-5.41.49-4,5.23-3.75,9a3.62,3.62,0,0,1-3.07,4.09,5,5,0,0,1-5-2,9.41,9.41,0,0,1-1.36-10.6c2.27-4.74,2.28-8.53-2.36-11.78-3.14-2.2-5.48-1-8.08,1-4.57,3.6-2.43,6.92-.31,10.77,2.52,4.56,1.94,9.68-3.17,11.36-6,2-4.94-3.77-5.47-7.17-.62-4-2.64-6.61-6.77-5.5-3.39.92-4.39,3.79-3,7.25.9,2.18,3.76,4.89-.47,6.37-2.93,1-4.92-1.44-6.5-3.53-2.65-3.5-3.92-7.49-1.66-11.61,2.39-4.36.66-6.45-3-9C18,69.77,9.69,67.19,0,65.69c8.84,11.42,16.84,23,20.27,36.9C20.94,102.93,21.61,103.53,22.29,103.54Zm129.07,0c14.95.2,29.9.27,44.85,0,2.09,0,3.33-1.43,4.28-3.13,3.3-13.27,11.36-24,21-34-6.61-3.32-9.71.7-13.34,2-10,3.48-20.16,7-16.52,21.43.51,2-1.44,4.93-2.8,7.07-1.22,1.93-3.43,3.22-5.84,2.15-2.07-.92-2-2.89-1.36-4.83,1.25-3.88,1.9-8.27-3.48-8.62s-5.19,4.25-5,8.18c.14,2.48-.66,4.78-3.21,5.24-3.09.54-4.6-1.9-5.87-4.32-1.85-3.51-.68-6.66,1.43-9.46,3-4,1.51-6.89-1.84-9.6-2.76-2.23-5.4-2.17-8.2-.07-3.45,2.6-4.78,5.53-2.42,9.68,3.66,6.4,1.89,11.51-4.15,15.39C148.78,102.42,149.65,103.55,151.36,103.57Zm44.09,6.94H23.29l0,1.77H195.43Zm-49.1-10c-4.41-.58-8.81-.88-13.2.16l-2.74-.11c-4.54,2.44-9.5,1.94-14.35,1.94q-47.9.06-95.79,0c2.5,2.11,5.54,2.1,8.55,2.1q81.12,0,162.23,0c3.71,0,7.74.38,9.44-4.25a136.31,136.31,0,0,1-51.52.21ZM144,92.73c.33-2.75-.41-5.34-3.84-5.55-4.31-.27-5,2.56-4.12,5.82.93,3.46-.61,5.66-2.92,7.72a13.19,13.19,0,0,0,13.2-.16C143.26,98.63,143.67,95.78,144,92.73ZM110.21,29.42c-4.51,0-6.31,3.49-6.18,7.59.12,3.72,2.11,6.46,6.18,6.29s5.3-3.35,5.7-6.87C115.3,33,114.36,29.38,110.21,29.42ZM74.4,121.52c-2.57.36-3.93,2.09-3.48,4.63a3.78,3.78,0,0,0,4,3.08c2.56,0,4.08-1.42,4.1-4.49C78.44,122.66,77,121.15,74.4,121.52Zm105.08,0c-2.48,0-4.19,1.54-4,4.21a3.52,3.52,0,0,0,3.54,3.51c2.56.15,4.18-1,4.68-3.69A3.87,3.87,0,0,0,179.48,121.47Zm-34.25,0c-2.48,0-4.18,1.59-4,4.22a3.64,3.64,0,0,0,3.6,3.48c2.58.19,4.17-1,4.57-3.64C149.31,122.87,147.72,121.43,145.23,121.48Zm-104.56.26a3.61,3.61,0,0,0-4.13,4.14,3.34,3.34,0,0,0,3.84,3.21,3.44,3.44,0,0,0,3.55-3.55C43.93,123.35,42.76,121.87,40.67,121.74Z"/><ellipse class="cls-10" cx="492.98" cy="88.9" rx="0.72" ry="32.77"/></g></g></svg>