<svg xmlns="http://www.w3.org/2000/svg" viewBox="0 0 360.76 205.54"><defs><style>.cls-1{fill:#f14d3f;}</style></defs><g id="Layer_2" data-name="Layer 2"><g id="Layer_1-2" data-name="Layer 1"><path class="cls-1" d="M360.76,28.77c-1.6,7.85-6.53,13.49-12,19q-74.57,74.37-149,148.91c-7.81,7.82-16.89,11.1-27.52,7.32a29.49,29.49,0,0,1-10.5-6.77Q84.9,120.65,8.28,43.84C.53,36.09-2.11,26.79,1.77,16.42,5.4,6.68,12.86,1.15,23.25.13,31.64-.7,38.54,2.65,44.4,8.54Q62,26.27,79.75,43.92q48.81,48.81,97.61,97.65a22.26,22.26,0,0,0,4,3.7c.7-1.24,1.17-2.7,2.13-3.66Q249.77,75.17,316.16,8.82C323.73,1.24,332.52-2,343,1.28c8.29,2.59,13.79,8.16,16.44,16.47.42,1.33.85,2.65,1.28,4Z"/></g></g></svg>