<svg xmlns="http://www.w3.org/2000/svg" viewBox="0 0 10.57 21.13"><defs><style>.cls-1{fill:#fff;}</style></defs><g id="Layer_2" data-name="Layer 2"><g id="Layer_1-2" data-name="Layer 1"><path class="cls-1" d="M9.12,0a2.19,2.19,0,0,0,.62.07,3.45,3.45,0,0,0,.64,0c.14,0,.2.05.19.21v3c0,.15,0,.2-.18.19H8.67a3.15,3.15,0,0,0-.81.09,1.28,1.28,0,0,0-1,1.28c-.06,1,0,2,0,2.93,0,.16.11.11.18.11h3.08c.12,0,.16,0,.15.16-.15,1.14-.3,2.29-.44,3.43,0,.15-.06.17-.2.17H7c-.17,0-.21,0-.21.22,0,3,0,6,0,9,0,.19,0,.23-.23.23H3.29c-.2,0-.22-.05-.22-.22v-9c0-.18,0-.24-.22-.24-.88,0-1.76,0-2.64,0-.15,0-.21,0-.21-.19Q0,9.79,0,8.1c0-.16.05-.18.2-.18H2.88c.17,0,.19,0,.19-.21,0-1.12,0-2.24,0-3.36A4.69,4.69,0,0,1,4.41,1.24,4.41,4.41,0,0,1,7,0s.11,0,.15,0h.2s.06,0,.08,0h.46a.62.62,0,0,0,.33,0h.2s.07,0,.11,0h.3S9,0,9,0Z"/></g></g></svg>