<svg xmlns="http://www.w3.org/2000/svg" viewBox="0 0 669.76 113.95"><defs><style>.cls-1{fill:#585858;}.cls-2{fill:#575757;}</style></defs><g id="Layer_2" data-name="Layer 2"><g id="Layer_1-2" data-name="Layer 1"><path class="cls-1" d="M23.91,112.42c-6.16,0-12.33,0-18.49,0-2.34,0-4.63-.33-4.75-3.17-.12-3.05-2.37-7.19,2.11-8.71,6.54-2.22,7.62-6.87,7.57-12.88q-.24-31.44,0-62.88c0-5.71-1.21-10.16-7.26-12.07C-.72,11.52.23,8.41.55,5.64S2.89,2.39,5.24,2.39q18,0,36,0c2.37,0,4.36.46,4.73,3.25.35,2.59,1.39,5.58-2,6.94-5.09,2.07-6.07,6-5.84,10.88.24,5.15.14,10.32,0,15.47-.09,3.31,1.05,4.92,4.59,4.83,5.66-.16,11.33-.11,17,0,3.1.05,4.6-1.07,4.53-4.37-.14-6.15-.06-12.3,0-18.46,0-3.49-1.28-6.23-4.69-7.47-4.38-1.59-3.72-5-3.09-8.26.67-3.58,3.7-2.72,6.05-2.74,11.33-.07,22.66,0,34-.06,2.69,0,4.84.31,5.36,3.72.47,3.07.65,5.66-3,6.82-5.28,1.7-6.82,5.49-6.78,10.79.17,22.12.12,44.25,0,66.37,0,4.87,1.48,8.41,6.44,10,4.77,1.48,3.54,5.16,3.17,8.63-.41,3.8-3,3.79-5.81,3.79q-18,0-36,0c-2.68,0-5.28-.25-5.42-3.66-.12-3.07-2-7,2.64-8.48,5.82-1.87,7.27-6.08,7.14-11.62-.19-7.48-.25-15,0-22.45.16-4.45-1.64-5.91-5.88-5.73-5.33.23-10.66.11-16,.06-2.9,0-4.26,1.22-4.24,4.19.06,9,0,18,0,26.94,0,4.23,2.1,7,6,8.15,5.07,1.53,4,5.18,3.52,8.88-.57,4.12-3.56,3.72-6.38,3.73-5.83,0-11.67,0-17.5,0Z"/><path class="cls-1" d="M418.23,56.08c0-11-.1-21.95,0-32.92.07-4.73-1-8.57-5.72-10.56-3.42-1.45-3.13-4.06-2.6-7.09.59-3.37,3-3.12,5.26-3.13q10.74-.09,21.49,0c6,.05,7.26,1.33,7.27,7.42,0,14.63,0,29.27,0,43.9,0,1.4-.71,3.39.86,4.07s2.55-1.19,3.61-2.12c3.27-2.84,6.5-5.71,9.62-8.71,2.28-2.2,2.85-4.57-.48-6.39-3.9-2.14-2.28-5.42-1.77-8.38s3.09-2.53,5.18-2.54c9,0,18,0,27,0,2.35,0,4.89-.24,5.17,3.16.25,3,1.51,6.16-2.87,7.82-8.4,3.19-13.49,10.62-19.94,16.31-1.46,1.29-.94,2.61-.16,4,6,10.75,11.94,21.52,18,32.26a15.3,15.3,0,0,0,7.39,6.51c4.85,2.1,4,6,3.34,9.73-.7,4.18-4.25,2.91-6.86,3-5.15.14-10.33-.16-15.48.1-4.17.22-6.76-1.21-8.72-5-4.47-8.73-9.33-17.27-14.16-25.81-1-1.75-1.56-5.24-3.75-4.51-2.76.92-5.72,3.2-5.87,6.78-.27,6.6-1.32,13.46,6.85,17,3.94,1.68,1.9,5.47,1.6,8.45s-2.53,3.09-4.8,3.09c-10.82,0-21.65,0-32.48,0-2.16,0-4.74.2-5-2.79s-2.69-6.93,1.64-8.87c5.57-2.49,6.49-6.87,6.4-12.25C418.11,77.71,418.23,66.89,418.23,56.08Z"/><path class="cls-2" d="M313.3,71.7c0,7.47,0,15,0,22.43,0,3.52.87,5.41,4.59,2.94,2.13-1.41,4-1.31,5.7.7a4.77,4.77,0,0,1,.61,5.94c-3.67,7-13.88,10.91-23.13,8.76-8.46-2-12.83-7.46-12.88-16.5-.08-12.79,0-25.59,0-38.39,0-6.59-2.31-10.1-6.77-10.48-4.84-.4-9.49,3.16-10.19,9-1.5,12.39-.85,24.86-.37,37.3.13,3.26,2.29,5.44,5.27,6.71,4.49,1.92,3.17,5.62,2.73,9-.51,3.85-3.53,3.3-6.15,3.3q-15.48,0-31,0c-2.27,0-5.12.44-5.35-2.93-.22-3.21-2.41-7.11,2.3-9.12,4.49-1.92,5.75-5.5,5.72-10.07-.11-12.63-.08-25.26,0-37.89,0-4.25-.82-7.85-5.08-10-3.2-1.59-1.95-4.57-1.63-7.1s2.29-3,4.44-3l23.47,0c.65,0,1.61-.07,1.92.3,4.07,4.86,7.91,1.23,11.84-.19,2.18-.79,4.39-1.55,6.64-2.13,15.69-4,26.93,4.35,27.28,20.43.16,7,0,14,0,20.94Z"/><path class="cls-2" d="M658.17,70.13c0,9.06.05,16.38,0,23.69,0,3.63.66,5.8,4.73,3.14a3.7,3.7,0,0,1,5.33.69c1.6,1.79,2.07,3.53.88,5.86-3.63,7.08-13.71,11.1-23,9-8.75-2-13-7.4-13.08-16.81-.06-12.8,0-25.59,0-38.39,0-6.4-2.15-9.6-6.55-10.17-4.59-.6-8.87,2.76-10.31,8.25a22.46,22.46,0,0,0-.75,5.4c-.07,9.81,0,19.61-.05,29.42,0,4.51,1.34,8.19,5.78,10.09s3,5.3,2.61,8.54c-.39,3.45-2.82,3.61-5.46,3.61-10.66,0-21.31,0-32,0-2.13,0-4.73.26-5-2.75-.35-3.24-2.53-7.16,2.06-9.2,4.88-2.17,6.06-6,6-10.91-.16-12.46-.08-24.93,0-37.39,0-4.08-1-7.54-4.91-9.6-3.4-1.76-2.24-4.83-1.79-7.51.48-2.9,3-2.72,5.11-2.73,7.32,0,14.65,0,22,0,1.14,0,2.86-.05,3.32.6,3,4.28,6.09,1.71,9.11.39,5.39-2.37,10.88-4.09,16.86-3.94,9.54.24,16.46,5.79,18.4,15.14C659.19,53.58,657.67,62.77,658.17,70.13Z"/><path class="cls-2" d="M220.67,63.9q0,13,0,25.94c0,4.58,1.08,8.47,5.88,10.54,4.48,1.93,2.71,5.92,2.32,9.18s-3.21,2.84-5.5,2.85c-10.66,0-21.32,0-32,0-2.26,0-4.74,0-4.89-2.93s-2.27-6.87,1.53-8.59c6.11-2.75,6.58-7.6,6.51-13.2-.15-11.64-.07-23.28,0-34.93,0-4.36-.68-8.2-5.19-10.43-3.23-1.6-1.84-4.56-1.45-7.11s2.36-2.89,4.49-2.89c7.83,0,15.66.08,23.49-.07,3.81-.08,4.86,1.71,4.81,5.18-.12,8.82,0,17.63,0,26.45Z"/><path class="cls-1" d="M205.47,27.57c-7.78-.05-14.19-6.37-14.1-13.89A14.18,14.18,0,0,1,205.72,0c7.89.2,14.17,6.39,14.14,13.94S213.21,27.63,205.47,27.57Z"/><path class="cls-1" d="M103,66c.28-12.16,7.15-25.26,22.18-32.85,14.11-7.13,28.32-6.65,41.49,3a43,43,0,0,1,13.25,16.61c3.26,6.79,2,10.87-4.61,14.51-12,6.66-25,10.81-38.06,14.84-6.17,1.9-7,4.45-2.71,9.47,6,7,13.92,7.08,22.05,5.23,5.69-1.29,10.12-4.91,14.39-8.66,3.83-3.37,6.86-3.54,10-.52,3.39,3.27,2.34,6.36-.16,9.68-10.44,13.89-31.26,20.15-48.61,14.49C113.56,105.73,103.09,90.93,103,66Zm36.56,3c4-1.2,7.87-2.58,11.75-4,4.22-1.58,5.68-4.8,4.86-9.12A22.72,22.72,0,0,0,153.18,48c-5-8.12-16-8-20.79.34a25,25,0,0,0-3.15,12.86C129.19,69.46,131.67,71.4,139.52,69Z"/><path class="cls-1" d="M538.73,28.63c16.22,0,31.59,11.16,36.78,26.77,1.66,5,.21,8.49-5.12,11.51-10.21,5.77-21.2,9.64-32.31,13.2-2.22.72-4.46,1.36-6.68,2.08-5.19,1.68-6,4.54-2.59,9.17,4.17,5.67,13.62,8,22.46,5.46a33.38,33.38,0,0,0,14.25-8.9c3.24-3.23,6.3-3.3,9.64-.45s2.89,5.89.57,9.24C567,109.28,547.13,116.63,531.2,113c-17.73-4-30.17-16.57-33-33.39C493.49,51.63,511.73,28.67,538.73,28.63ZM534,69c4.14-1.22,8.21-2.72,12.23-4.29,3.82-1.49,5.17-4.5,4.46-8.44a23.06,23.06,0,0,0-3.11-8.36c-5.11-8-15.58-7.93-20.55.18-2.43,4-3,8.4-3.39,13.43C523.41,69.06,526.19,71.3,534,69Z"/><path class="cls-2" d="M326.82,66.5c.23-12.12,6.8-24.86,21-32.66,13.32-7.33,27.09-7.55,40.35.65C395.45,39,400.44,45.64,404,53.32c2.92,6.27,1.55,10.35-4.54,13.73-11.85,6.58-24.63,10.87-37.56,14.76-7.29,2.19-8.14,5.5-2.44,10.93,6.75,6.44,14.84,5.91,23,3.43,4.68-1.43,8.46-4.57,12.11-7.77,4.23-3.71,6.94-3.85,10.34-.65,3.83,3.62,1.94,6.81-.61,10-11,14-31.77,19.75-49.29,13.69C337.14,105.31,326.83,90.28,326.82,66.5Zm37,2.39c3.8-1.14,7.53-2.54,11.26-3.91,1.9-.69,3.77-1.71,4.46-3.71,1.86-5.42-.37-10.12-3.31-14.4A10.47,10.47,0,0,0,365,42.2c-7.44,1.43-11.64,8-11.81,18.38C353,69.55,355.34,71.43,363.79,68.89Z"/></g></g></svg>