<svg xmlns="http://www.w3.org/2000/svg" viewBox="0 0 1048.9 317.19"><defs><style>.cls-1,.cls-10,.cls-11,.cls-8{fill:#242424;}.cls-2{fill:#fefefe;}.cls-3{fill:#b2b2b2;}.cls-4{fill:#d7d7d7;}.cls-5{fill:#8a8a8a;}.cls-6{fill:#acacac;}.cls-7{fill:#010101;}.cls-8{font-size:83.26px;font-family:AngieOpenPro-Black, Angie Open Pro;font-weight:800;}.cls-9{letter-spacing:-0.06em;}.cls-10{stroke:#000;stroke-miterlimit:10;}.cls-11{font-size:24px;font-family:Copperplate-Light, Copperplate;font-weight:300;}</style></defs><g id="Layer_2" data-name="Layer 2"><g id="Layer_1-2" data-name="Layer 1"><path class="cls-1" d="M230.3,94c-.05,1-.06,1.4-.1,1.83a39.47,39.47,0,0,1-10.67,23.73c-4.73,5-10.05,9.49-15.27,14-8.62,7.5-17.55,14.66-26,22.34a47.7,47.7,0,0,0-12.69,18.8c-4,10.79-3.86,22-3.45,33.31,0,.09.15.19.24.29h41.11c-.19-.76-.32-1.36-.49-1.95a85.07,85.07,0,0,1-3.4-21.78c-.1-13.18,3.43-25.45,9.28-37.16,4.52-9,10.55-17.06,16.22-25.34,5.77-8.43,10.4-17.32,11.55-27.66.35-3.18.51-6.39.77-9.76a33.26,33.26,0,0,0-4.19,0,2.89,2.89,0,0,0-1.87,1.09,6.06,6.06,0,0,1-6.19,3.3,52.44,52.44,0,0,1-9.46-2c-5.92-1.86-11.63-4.53-17.64-6-13.57-3.23-25.78-1-35,10.53-.08.1-.3.08-.56.14V84.65h-2.29c-1.55,13.74-3.08,27.32-4.6,40.9,2.67.32,2.64.31,3.07-2.3.37-2.25.67-4.53,1.25-6.74,1.33-5.06,4.1-9.09,9.56-10a29.86,29.86,0,0,1,9.8.17c6.24,1.12,12.36,2.85,18.58,4.14,11.13,2.32,20.51-.34,27.32-10C226.67,98.68,228.33,96.61,230.3,94Z"/><path class="cls-1" d="M211.54,275.23a27.94,27.94,0,0,0-.52-4.38Q208.2,260.4,205.17,250c-.86-2.93-2.38-3.91-5.4-3.5a10.83,10.83,0,0,0-3.55,1.25,59.32,59.32,0,0,1-15.57,6c-8.82,1.89-17.77,2.17-26.72,2.33-16.37.27-32.14-2.24-46.7-10.27a9.59,9.59,0,0,0-1.4-.58c-2.71-.92-4.75-.09-5.58,2.63-2.23,7.34-4.3,14.73-6.44,22.1a10,10,0,0,0,6.76,12.32c1.77.5,3.51,1.09,5.27,1.66,1.38.44,2.76.89,2.77,2.89a20.38,20.38,0,0,0,1.4-3.23c.49-1.41,1.21-1.77,2.85-1.47,8.79,1.63,17.59,3.27,26.45,4.49,14.69,2,29.28.78,43.72-2.3,4.19-.89,8.3-2.19,12.54-3.33.49.95,1,1.89,1.47,2.87s.74,2,1.11,3l.5-.07c-.31-1.65.68-2.24,1.93-2.66,2.46-.82,5-1.56,7.37-2.53a6.87,6.87,0,0,0,4.5-6.92c-1.93,7.46-8.66,6.94-14.13,8.51l2.12-1.28-2.73.31-.08-.26,3.29-1.56-3.57.47C202,279,206.11,276,211.54,275.23Z"/><path class="cls-1" d="M88,267.13l0-.42c1.26.36,2.51.8,3.79,1,.48.08,1.42-.25,1.48-.53a2.1,2.1,0,0,0-.48-1.7,37.83,37.83,0,0,0-3.29-2.44c1.29,0,2.45.36,3.63.44.51,0,1.07-.46,1.61-.72-.26-.53-.39-1.24-.82-1.54a37.63,37.63,0,0,0-3.43-1.93c1.86-.88,4.41,2,5.68-1.34l-4.83-2.42a29.07,29.07,0,0,1,3.85,0c.66,0,1.3-.59,1.94-.92A7.29,7.29,0,0,0,96,253.07a18,18,0,0,0-2.4-1.34,14.71,14.71,0,0,1,2.93.11,6.84,6.84,0,0,0,1.76-.46A7.86,7.86,0,0,0,97,249.93a13.47,13.47,0,0,0-2.09-.91c-7.09-3.21-13.9-6.84-19.55-12.34-.38-.36-.79-.69-1.57-1.37.39,1.06.59,1.65.82,2.23A84.09,84.09,0,0,1,80.32,258c.25,1.85-.07,3.29-1.82,4.12-2.74,1.29-5.41,2.91-8.3,3.65-3.56.92-7.31,1.09-10.88,1.57,12.39,11.32,27.94,15.72,44,19a57,57,0,0,1-16.22-9.38l5.82,2.28c-.09-4-3.39-5.3-5.71-7.5.83.13,1.58.42,2.35.61s1.67.32,2.39.45c1.15-2,.46-3.08-1.33-3.84A14.67,14.67,0,0,1,88,267.13Z"/><path class="cls-1" d="M202.4,286.34c15.48-3.32,31-7.68,43.75-19.34h-2.28c-6.35-.08-12.33-1.44-17.65-5.11a3.14,3.14,0,0,1-1.45-3.37,81.59,81.59,0,0,1,5.72-20.87c.23-.58.44-1.16.66-1.73-7.16,6.67-15.59,10.89-24.58,14.72,1.5,2.79,3.68.12,5.33.9a31.15,31.15,0,0,0-2.86,1.59,6.11,6.11,0,0,0-1.12,1.42c.62.36,1.23,1,1.86,1a31.08,31.08,0,0,0,4.16-.44l.11.27-5.22,2.6c1.41,3.08,3.87.56,5.88,1.26l-4.63,2.6.69,1.83,5.1-.86a39.74,39.74,0,0,0-3.58,2.7,2.12,2.12,0,0,0-.45,1.74c0,.26,1,.54,1.52.45a37.36,37.36,0,0,0,3.69-1l.22.43-4.82,3.11c.18.78.36,1.62.6,2.67l5.41-1.45c-2.8,2.43-6.18,3.75-6.18,7.71l5.65-2.17.34.7Z"/><path class="cls-1" d="M274.21,147.2c.59,4.28,2.46,8,6.42,10.28a1.94,1.94,0,0,1,1.17,2.25c-1.87,12.78-4.52,25.36-9.41,37.39-7.47,18.41-18.89,34.2-32.46,48.49-3.91,4.11-8.68,7.4-13,11.19-.71.63-1.44,2.43-1.12,2.8a9.75,9.75,0,0,0,3.6,2.35c.44.18,1.33-.5,1.91-.94,17.47-13,30.63-29.57,40.18-49.07,7.37-15.06,10.92-31.22,13.32-47.67.75-5.12,1.54-10.16,4.58-14.55a24.26,24.26,0,0,0,1.6-3.19l-6.66,5.56c-.54-.94-.86-1.52-1.26-2.22-.21.44-.36.71-.49,1-1,2.33-1.48,2.48-3.39.87C277.52,150.27,275.87,148.7,274.21,147.2Z"/><path class="cls-1" d="M14.67,146.87l-.32.21,1.07,2.11c1.62,3.22,3.49,6.25,4.09,10,1.46,9,2.86,18,5,26.75,7.37,30.51,23.78,55.24,48.47,74.56,1.84,1.44,3.2,1.68,5.1.26s2-2.64.19-3.93A112.94,112.94,0,0,1,57.47,237c-11.71-14-21.31-29.23-27.21-46.62a173.63,173.63,0,0,1-6.71-29.29c-.31-2-.05-3.12,1.8-4.25,3.42-2.07,5.66-6.61,5.32-9.75l-6.58,6.26-2.15-3.3L20.82,152c-1.21-.9-2.31-1.64-3.32-2.48S15.6,147.76,14.67,146.87Z"/><path class="cls-1" d="M231.18,263.4l.23.31c.52-.19,1.05-.34,1.55-.58a108.21,108.21,0,0,0,49.08-45,170,170,0,0,0,22.15-66.58c.59-5.34.71-10.72,1.05-16.09-1,9.59-2.6,19-5.89,28.1-3.58,9.91-8.44,19.06-16.4,26.2-2,1.78-2.18,4-2.87,6.24,9.24-7,14.91-16.39,19.16-26.88a4.05,4.05,0,0,1-.23,1.49c-3.31,8.78-6.32,17.69-10,26.3-7.16,16.6-17.23,31.21-31.16,43-2.52,2.12-5.18,4.11-7.6,6.34-4,3.67-7.72,7.55-11.69,11.21C236.2,259.54,233.64,261.41,231.18,263.4Z"/><path class="cls-1" d="M5.93,170.52l.49-.12c4.11,10.08,9.74,19,18.73,25.62-.65-2-1.1-4.25-2.49-5.53-8-7.39-13.23-16.5-16.9-26.6A99.79,99.79,0,0,1,.17,136a7.88,7.88,0,0,0-.16,1.8c.2,3.94.32,7.88.68,11.8,2.31,25,10.39,48.27,23,69.8a106.67,106.67,0,0,0,47.93,43.55c.66.31,1.34.56,2,.83a3.89,3.89,0,0,0-1.23-1.5l-16.69-15c-1-.93-2-2-3.06-2.84A114.74,114.74,0,0,1,32.77,225c-11-13.74-18.09-29.49-24-45.86C7.72,176.3,6.87,173.4,5.93,170.52Z"/><path class="cls-1" d="M226.47,254.59l.54.51c4.36-3.94,8.73-7.86,13.06-11.84a3.73,3.73,0,0,0,.71-1.53c1.91-5.18,3.53-10.49,5.77-15.52,3.54-8,9.93-13.58,17-18.38,2.64-1.79,3.2-4.46,4.18-7.07-1.93,1-3.69,2.07-5.5,3.1A52.59,52.59,0,0,0,237.87,233C235.16,240.73,232.27,248.45,226.47,254.59Z"/><path class="cls-1" d="M78.26,255.35c-2.55-4.44-5-8.36-7.07-12.45a73.26,73.26,0,0,1-3.71-9c-4.09-11.53-10.55-21.22-21.15-27.78-3-1.84-5.94-3.7-8.91-5.55.86,3.19,1.72,6.16,4.81,7.76a23.85,23.85,0,0,1,3.67,2.72c6.52,5.22,11.73,11.39,14.36,19.5,1.21,3.74,2.62,7.41,4,11.11a3.93,3.93,0,0,0,.74,1.52C69.28,247.2,73.64,251.15,78.26,255.35Z"/><path class="cls-1" d="M105.8,32.88c-6.71-3.45-13.58-4.62-20.27-2.17C96.66,17.57,112,11.49,128.77,8.19a1.39,1.39,0,0,0-.79-.14c-8.54,1.2-16.79,3.35-24.45,7.44a7.15,7.15,0,0,1-2.45.88C91,17.46,83.36,22.49,77.7,30.72a40.54,40.54,0,0,0-2.13,4.06l5.3-1.68L76.7,36.8a18.05,18.05,0,0,0,9.59.74C92.86,36.31,98.86,32.77,105.8,32.88Z"/><path class="cls-1" d="M228.94,34.69a5.85,5.85,0,0,0-.21-1.07c-.43-.85-.83-1.72-1.34-2.52-4.43-6.92-10.53-11.78-18.51-13.7a63.43,63.43,0,0,1-12.69-4.29,40.47,40.47,0,0,0-7.54-2.6c-4.15-1.06-8.36-1.88-12.54-2.8,32.45,8.37,32,13.44,43.11,22.52-3-.18-6.52-.66-10.07-.55a22.34,22.34,0,0,0-9.89,2.85c4.14,1,8.43,2.07,12.7,3.18,1.72.44,3.38,1.12,5.1,1.55a19.37,19.37,0,0,0,11-.42l-3.7-3.7Z"/><path class="cls-1" d="M144.09,26.28c2.48-1.31,4.64-2.36,6.7-3.58a3,3,0,0,1,3.46-.07c2.09,1.25,4.31,2.28,6.81,3.58-.49-2.95-1-5.49-1.26-8.06a3.54,3.54,0,0,1,.81-2.43c1.7-1.94,3.57-3.72,5.54-5.73-2.65-.4-5.13-.89-7.62-1.1A2.7,2.7,0,0,1,156,7c-1-2.25-2.19-4.44-3.46-7-1.28,2.58-2.41,4.7-3.39,6.89a2.87,2.87,0,0,1-2.64,2c-2.47.23-4.92.74-7.45,1.14,1.89,1.94,3.56,3.75,5.34,5.46a2.77,2.77,0,0,1,1,3C144.87,20.85,144.58,23.31,144.09,26.28Z"/><path class="cls-1" d="M229.9,55l12.91,6.84a73.24,73.24,0,0,0,7.8,4,83.7,83.7,0,0,0,8.63,2.32A24.1,24.1,0,0,0,253.42,58c-4.09-4-8.87-6.07-14.7-4.86C235.69,53.73,232.67,54.4,229.9,55Z"/><path class="cls-1" d="M45.36,67.48l.28.67c2.83-.75,5.87-1.08,8.46-2.33C61.21,62.41,68.14,58.61,75,55c-2.74-.6-5.67-1.34-8.64-1.84a16.49,16.49,0,0,0-5.28-.24C52.64,54.29,48.6,60.48,45.36,67.48Z"/><path class="cls-1" d="M26.84,112.59a36,36,0,0,0,9.77-10.69q4.92-7.68,9.89-15.34c.41-.63.93-1.2,1.4-1.8a60.82,60.82,0,0,0-11.24,4.31A17.38,17.38,0,0,0,31,94C27.06,99.42,26.2,105.69,26.84,112.59Z"/><path class="cls-1" d="M278.19,112.76c0-1.51,0-2.52,0-3.52,0-6.85-1.55-13.16-6.73-18-4.07-3.81-9.63-4.58-14.18-6.7,4,6.36,8.1,12.86,12.26,19.29A33.06,33.06,0,0,0,278.19,112.76Z"/><path class="cls-1" d="M271.7,54.43l-.56.25c.2.52.39,1,.6,1.55,1.65,4.19,3.46,8.33,4.89,12.59a17.75,17.75,0,0,1,1.15,7c-.76,8.48-.7,16.87,1.49,25.15.71,2.71,1.41,5.42,2.13,8.18.28-.15.36-.16.39-.21a6.9,6.9,0,0,0,.42-.63c4.74-7.77,4.85-15.8,1.41-24.07-1.82-4.39-3.44-8.86-5.21-13.27C276.2,65.45,273.94,60,271.7,54.43Z"/><path class="cls-1" d="M33.57,55l-.29-.13c-.29.59-.64,1.16-.88,1.76-4,10.06-8.16,20.1-12.07,30.21a22.6,22.6,0,0,0-.91,13.68,28.06,28.06,0,0,0,4,8.94c.36-1.39.59-2.38.88-3.35,2.62-9,4-18.12,2.92-27.48a20.4,20.4,0,0,1,1.35-11c.38-.87.67-1.78,1-2.66Z"/><path class="cls-1" d="M64.28,27.31a18.15,18.15,0,0,0-1.57,1.31c-3.6,3.75-7.13,7.56-10.78,11.26a26.3,26.3,0,0,0-7.59,15.4c-.27,2.06-.37,4.14-.59,6.62C46,60,47.84,58.57,49.54,57c4.24-4,7.4-8.61,8-14.68C58.07,36.59,59.75,31.35,64.28,27.31Z"/><path class="cls-1" d="M260.9,61.69c.18-7.64-1.53-14.15-5.49-18.85s-8.11-8.91-12.21-13.33a14.81,14.81,0,0,0-1.54-1.29c.68,1.28,1.75,2.17,2.36,3.31a34.58,34.58,0,0,1,3.55,11.37A25,25,0,0,0,250,50.39C252.43,55.16,256.71,58.24,260.9,61.69Z"/><path class="cls-1" d="M274.13,80.83c2.12-13.24-3.41-23.49-12.19-32.8a6.3,6.3,0,0,0,.13,1.14A31.7,31.7,0,0,1,263.48,61a12.59,12.59,0,0,0,.33,3.4C265.3,71.07,269.53,76,274.13,80.83Z"/><path class="cls-1" d="M30.8,80.9c1.33-1.53,2.67-3,4-4.57,4.41-5.28,7.31-11.1,6.61-18.25a9.11,9.11,0,0,1,.11-2.27c.44-2.63.93-5.24,1.38-7.74C34.31,57.19,28.49,67.47,30.8,80.9Z"/><path class="cls-1" d="M35.92,123.72C24.3,130.93,20.17,140.2,24.06,150.8c.47-.35.93-.64,1.33-1A20.11,20.11,0,0,0,31.63,140C33.14,134.58,34.5,129.14,35.92,123.72Z"/><path class="cls-1" d="M280.86,150.87c3.5-11.9-1-21.73-12-27.12.88,3.18,1.84,6.51,2.74,9.86.54,2,.94,4.07,1.53,6.08A20.79,20.79,0,0,0,280.86,150.87Z"/><path class="cls-1" d="M58.51,70.18c-2.94,0-5.79.12-8.62,0a15.51,15.51,0,0,0-13.45,6.15,29.35,29.35,0,0,0-5.65,12.44,25.81,25.81,0,0,0,10.8-5.1C47.17,79.29,52.67,74.84,58.51,70.18Z"/><path class="cls-1" d="M274.05,89.08c-2.19-14.49-13.65-21.91-27.28-18.5,3.8,3,7.74,6.16,11.74,9.24,2.82,2.17,5.6,4.4,8.61,6.27C269.16,87.35,271.56,88,274.05,89.08Z"/><path class="cls-1" d="M60.52,47.34C70.34,40.85,77,32.47,78.7,20.94c-4.24,3.92-8.89,7.84-13.08,12.21C62,37,61.09,42,60.52,47.34Z"/><path class="cls-1" d="M244.39,47.39c-.61-5.32-1.5-10.47-5.25-14.33C235,28.79,230.46,24.93,226.19,21,227.94,32.67,234.65,41,244.39,47.39Z"/><path class="cls-1" d="M61.17,51.3c.78.09,1.2.15,1.63.19,5,.42,9.35-1.37,13.56-3.71A45.63,45.63,0,0,1,91,42.65c6-1,12.07-2.3,17.66-5-4.73,1.11-9.5,2.1-14.14,3.49s-9.27,1.54-13.77-.89a7.86,7.86,0,0,0-6.48-.39C68.48,41.87,64.43,45.88,61.17,51.3Z"/><path class="cls-1" d="M197.21,37.84l-.09.55c3.83,1.07,7.65,2.19,11.49,3.18,5.75,1.49,11.81,1.75,17.15,4.74a76.11,76.11,0,0,0,7.84,3.88,18.54,18.54,0,0,0,10.48,1c-2.34-2.67-4.15-5.22-6.42-7.24-4.79-4.25-10.13-6.19-16.34-2.73a9.88,9.88,0,0,1-7.72.6C208.17,40.35,202.67,39.15,197.21,37.84Z"/><path class="cls-1" d="M17.48,99.88a40.44,40.44,0,0,0-4.86,13.93c-.67,6.5,3,12.52,8.81,14a36.17,36.17,0,0,0-.33-12.5C20,110.13,18.68,105,17.48,99.88Z"/><path class="cls-1" d="M20.12,148.83c3-12.47-.52-18.62-8.65-26.46.35,4.51.72,9.36,1.11,14.2A15,15,0,0,0,20.12,148.83Z"/><path class="cls-1" d="M287.32,99.83c-1.22,9.35-6,18.19-3.71,28a12.3,12.3,0,0,0,8.53-10.46C292.84,110.86,290,105.37,287.32,99.83Z"/><path class="cls-1" d="M284.8,148.82c4.22-2.62,6.86-6.26,7.33-11.29.33-3.54.5-7.09.78-10.63.07-.81.25-1.62.39-2.44l.4-2.26C285.35,129.35,281.61,137.89,284.8,148.82Z"/><path class="cls-1" d="M280.51,131.28l.8,0a80.64,80.64,0,0,0,.72-8.18c0-4.15-1.19-7.92-5.13-10.17-1.49-.84-3-1.54-4.53-2.39s-2.77-1.75-4.25-2.69C270.63,116.6,272.18,125.75,280.51,131.28Z"/><path class="cls-1" d="M36.77,107.93c-2.48,1.4-5.06,2.62-7.38,4.23C27.47,113.5,25.2,115,24.24,117c-2.25,4.61-1.91,9.55-.21,14.54C32.75,125.83,34.15,116.48,36.77,107.93Z"/><path class="cls-1" d="M131.63,11.86l-.53.24c-.62,1.24-1.31,2.44-1.83,3.72a2.6,2.6,0,0,1-2.58,1.79,36.71,36.71,0,0,0-4,.63l-.37.38c4.24,2.28,5.22,5.63,3.07,10.28,1.94-1,3.28-1.56,4.5-2.31a2.39,2.39,0,0,1,2.79,0c1.22.75,2.54,1.34,4.11,2.15a45.4,45.4,0,0,0-.75-4.61,2.31,2.31,0,0,1,.85-2.65c1.09-.92,2.1-1.93,3.14-2.9l.07-.63C135.3,18.6,132.5,16.54,131.63,11.86Z"/><path class="cls-1" d="M165.42,18l.08.74c.84.76,1.64,1.57,2.53,2.27a3.27,3.27,0,0,1,1.3,3.94,26.4,26.4,0,0,0-.61,3.76c1.52-.78,2.79-1.35,4-2.07a2.42,2.42,0,0,1,2.95,0,41.33,41.33,0,0,0,4,2.09c-.31-2.18-1.19-4.25-.66-5.87s2.43-2.93,3.92-4.57a38.19,38.19,0,0,0-4.24-.65,2.58,2.58,0,0,1-2.52-1.86c-.52-1.27-1.21-2.46-1.83-3.69l-.44-.22C173,16.52,170.13,18.51,165.42,18Z"/><path class="cls-1" d="M90.17,28.09c9.52,1.84,17.69-.37,24.43-7.34C107.61,18,94.54,21.85,90.17,28.09Z"/><path class="cls-1" d="M214.69,28.11c-4.33-6.31-18.94-10.51-24.29-7.21C197.08,27.76,205.22,29.9,214.69,28.11Z"/><path class="cls-1" d="M80.35,23c3.7-2.56,7.27-5.32,11.12-7.63s8-4.16,12-6.22A54.46,54.46,0,0,0,80.35,23Z"/><path class="cls-1" d="M202.46,9.64c3.69,1.93,7.49,3.69,11,5.84s6.83,4.61,10.23,7A50.45,50.45,0,0,0,202.46,9.64Z"/><path class="cls-1" d="M88,267.13a14.67,14.67,0,0,0,2.63,1.81c1.79.76,2.48,1.79,1.33,3.84-.72-.13-1.57-.24-2.39-.45s-1.52-.48-2.35-.61c2.32,2.2,5.62,3.53,5.71,7.5l-5.82-2.28a57,57,0,0,0,16.22,9.38c-16-3.26-31.6-7.66-44-19,3.57-.48,7.32-.65,10.88-1.57,2.89-.74,5.56-2.36,8.3-3.65,1.75-.83,2.07-2.27,1.82-4.12a84.09,84.09,0,0,0-5.76-20.46c-.23-.58-.43-1.17-.82-2.23.78.68,1.19,1,1.57,1.37,5.65,5.5,12.46,9.13,19.55,12.34a13.47,13.47,0,0,1,2.09.91,7.86,7.86,0,0,1,1.29,1.45,6.84,6.84,0,0,1-1.76.46,14.71,14.71,0,0,0-2.93-.11,18,18,0,0,1,2.4,1.34,7.29,7.29,0,0,1,1.21,1.57c-.64.33-1.28.9-1.94.92a29.07,29.07,0,0,0-3.85,0L96.2,258c-1.27,3.3-3.82.46-5.68,1.34A37.63,37.63,0,0,1,94,261.25c.43.3.56,1,.82,1.54-.54.26-1.1.76-1.61.72-1.18-.08-2.34-.43-3.63-.44a37.83,37.83,0,0,1,3.29,2.44,2.1,2.1,0,0,1,.48,1.7c-.06.28-1,.61-1.48.53-1.28-.23-2.53-.67-3.79-1Z"/><path class="cls-1" d="M202.4,286.34l15.87-8.63-.34-.7-5.65,2.17c0-4,3.38-5.28,6.18-7.71l-5.41,1.45c-.24-1.05-.42-1.89-.6-2.67l4.82-3.11-.22-.43a37.36,37.36,0,0,1-3.69,1c-.49.09-1.47-.19-1.52-.45a2.12,2.12,0,0,1,.45-1.74,39.74,39.74,0,0,1,3.58-2.7l-5.1.86-.69-1.83,4.63-2.6c-2-.7-4.47,1.82-5.88-1.26l5.22-2.6-.11-.27a31.08,31.08,0,0,1-4.16.44c-.63,0-1.24-.66-1.86-1a6.11,6.11,0,0,1,1.12-1.42,31.15,31.15,0,0,1,2.86-1.59c-1.65-.78-3.83,1.89-5.33-.9,9-3.83,17.42-8,24.58-14.72-.22.57-.43,1.15-.66,1.73a81.59,81.59,0,0,0-5.72,20.87,3.14,3.14,0,0,0,1.45,3.37c5.32,3.67,11.3,5,17.65,5.11h2.28C233.43,278.66,217.88,283,202.4,286.34Z"/><path class="cls-1" d="M274.21,147.2c1.66,1.5,3.31,3.07,5,4.54,1.91,1.61,2.38,1.46,3.39-.87.13-.29.28-.56.49-1,.4.7.72,1.28,1.26,2.22l6.66-5.56a24.26,24.26,0,0,1-1.6,3.19c-3,4.39-3.83,9.43-4.58,14.55-2.4,16.45-5.95,32.61-13.32,47.67C262,231.44,248.84,248,231.37,261c-.58.44-1.47,1.12-1.91.94a9.75,9.75,0,0,1-3.6-2.35c-.32-.37.41-2.17,1.12-2.8,4.27-3.79,9-7.08,13-11.19,13.57-14.29,25-30.08,32.46-48.49,4.89-12,7.54-24.61,9.41-37.39a1.94,1.94,0,0,0-1.17-2.25C276.67,155.15,274.8,151.48,274.21,147.2Z"/><path class="cls-1" d="M14.67,146.87c.93.89,1.83,1.82,2.83,2.65s2.11,1.58,3.32,2.48l1.12-1.93,2.15,3.3,6.58-6.26c.34,3.14-1.9,7.68-5.32,9.75-1.85,1.13-2.11,2.23-1.8,4.25a173.63,173.63,0,0,0,6.71,29.29c5.9,17.39,15.5,32.6,27.21,46.62A112.94,112.94,0,0,0,78.26,256.8c1.81,1.29,1.58,2.62-.19,3.93s-3.26,1.18-5.1-.26c-24.69-19.32-41.1-44.05-48.47-74.56-2.13-8.8-3.53-17.8-5-26.75-.6-3.72-2.47-6.75-4.09-10l-1.07-2.11Z"/><path class="cls-1" d="M231.18,263.4c2.46-2,5-3.86,7.34-6,4-3.66,7.73-7.54,11.69-11.21,2.42-2.23,5.08-4.22,7.6-6.34,13.93-11.75,24-26.36,31.16-43,3.72-8.61,6.73-17.52,10-26.3a4.05,4.05,0,0,0,.23-1.49C295,179.6,289.32,189,280.08,196c.69-2.2.88-4.46,2.87-6.24,8-7.14,12.82-16.29,16.4-26.2,3.29-9.09,4.88-18.51,5.89-28.1-.34,5.37-.46,10.75-1.05,16.09A170,170,0,0,1,282,218.12a108.21,108.21,0,0,1-49.08,45c-.5.24-1,.39-1.55.58Z"/><path class="cls-1" d="M5.93,170.52c.94,2.88,1.79,5.78,2.82,8.63,5.93,16.37,13.07,32.12,24,45.86a114.74,114.74,0,0,0,19.92,19.35c1.1.84,2,1.91,3.06,2.84l16.69,15a3.89,3.89,0,0,1,1.23,1.5c-.67-.27-1.35-.52-2-.83a106.67,106.67,0,0,1-47.93-43.55C11.08,197.83,3,174.59.69,149.56c-.36-3.92-.48-7.86-.68-11.8A7.88,7.88,0,0,1,.17,136a99.79,99.79,0,0,0,5.59,27.93c3.67,10.1,8.88,19.21,16.9,26.6,1.39,1.28,1.84,3.58,2.49,5.53-9-6.57-14.62-15.54-18.73-25.62Z"/><path class="cls-1" d="M226.47,254.59c5.8-6.14,8.69-13.86,11.4-21.57a52.59,52.59,0,0,1,24.34-29.16c1.81-1,3.57-2.15,5.5-3.1-1,2.61-1.54,5.28-4.18,7.07-7,4.8-13.44,10.39-17,18.38-2.24,5-3.86,10.34-5.77,15.52a3.73,3.73,0,0,1-.71,1.53c-4.33,4-8.7,7.9-13.06,11.84Z"/><path class="cls-1" d="M78.26,255.35c-4.62-4.2-9-8.15-13.3-12.14a3.93,3.93,0,0,1-.74-1.52c-1.34-3.7-2.75-7.37-4-11.11-2.63-8.11-7.84-14.28-14.36-19.5a23.85,23.85,0,0,0-3.67-2.72c-3.09-1.6-3.95-4.57-4.81-7.76,3,1.85,5.93,3.71,8.91,5.55,10.6,6.56,17.06,16.25,21.15,27.78a73.26,73.26,0,0,0,3.71,9C73.29,247,75.71,250.91,78.26,255.35Z"/><path class="cls-1" d="M105.8,32.88c-6.94-.11-12.94,3.43-19.51,4.66a18.05,18.05,0,0,1-9.59-.74l4.17-3.7-5.3,1.68a40.54,40.54,0,0,1,2.13-4.06c5.66-8.23,13.3-13.26,23.38-14.35a7.15,7.15,0,0,0,2.45-.88c7.66-4.09,15.91-6.24,24.45-7.44a1.39,1.39,0,0,1,.79.14C112,11.49,96.66,17.57,85.53,30.71,92.22,28.26,99.09,29.43,105.8,32.88ZM90.51,24.53,90.09,24l-3.62,1.92-.15-.27,2.33-2.88-.16-.2L85.78,24.4l.68-1.34a26.21,26.21,0,0,0-8.61,9.22l.38.5Zm1.57,8.15L92,32.31l-8.45,2.33-.11-.32,5-2.8-.27-.47-9,5,.29.55c6.1.41,11.65-1.53,17.06-4.12l-7.19,1.88-.09-.28Z"/><path class="cls-1" d="M228.94,34.69l-4.61-1.55,3.7,3.7a19.37,19.37,0,0,1-11,.42c-1.72-.43-3.38-1.11-5.1-1.55-4.27-1.11-8.56-2.15-12.7-3.18a22.34,22.34,0,0,1,9.89-2.85c3.55-.11,7.11.37,10.07.55-11.12-9.08-10.66-14.15-43.11-22.52,4.18.92,8.39,1.74,12.54,2.8a40.47,40.47,0,0,1,7.54,2.6,63.43,63.43,0,0,0,12.69,4.29c8,1.92,14.08,6.78,18.51,13.7.51.8.91,1.67,1.34,2.52A5.85,5.85,0,0,1,228.94,34.69Zm-12.2-11.81-.2.22,1.9,2.55-.18.19-4.09-2.17-.31.53,12.71,8.56.42-.57a27.68,27.68,0,0,0-9-9.43l1,1.52Zm8.63,13.75.24-.66-8.11-4.53-.26.46,4.22,2.45-.16.3L212,32.07l-.09.28,3.87,1.73-.11.35-7.41-2C213.7,35,219.28,37,225.37,36.63Z"/><path class="cls-1" d="M144.09,26.28c.49-3,.78-5.43,1.35-7.83a2.77,2.77,0,0,0-1-3C142.66,13.77,141,12,139.1,10c2.53-.4,5-.91,7.45-1.14a2.87,2.87,0,0,0,2.64-2c1-2.19,2.11-4.31,3.39-6.89C153.85,2.56,155,4.75,156,7a2.7,2.7,0,0,0,2.49,1.89c2.49.21,5,.7,7.62,1.1-2,2-3.84,3.79-5.54,5.73a3.54,3.54,0,0,0-.81,2.43c.27,2.57.77,5.11,1.26,8.06-2.5-1.3-4.72-2.33-6.81-3.58a3,3,0,0,0-3.46.07C148.73,23.92,146.57,25,144.09,26.28Zm8.82-11.4,6,8.24C159,17.16,158.07,15.8,152.91,14.88Zm0-.49,9.62-3.17C154.41,9.64,156.78,8.86,152.86,14.39Zm-.39-10.91c-3.52,6.08-3.5,7.21,0,10.28Zm-6.16,19.76c5.82-1.81,6.89-3.3,6-8.23Zm-4-12c3.92,5,6.16,5.74,9.48,3.11Z"/><path class="cls-1" d="M229.9,55c2.77-.6,5.79-1.27,8.82-1.89,5.83-1.21,10.61.81,14.7,4.86a24.1,24.1,0,0,1,5.82,10.15,83.7,83.7,0,0,1-8.63-2.32,73.24,73.24,0,0,1-7.8-4Zm27.43,11.26c-1.78-3.28-3.77-5.87-6.73-7.59a3.92,3.92,0,0,0,.55.72c.19.22.34.46.51.69a21.13,21.13,0,0,0-14.2-4.19c4.44,1.3,8.84,2.62,12.36,5.89l-4-1.53-.14.28,3.16,2.08-.13.26-2.48-1A19.82,19.82,0,0,0,257.33,66.26Z"/><path class="cls-1" d="M45.36,67.48c3.24-7,7.28-13.19,15.76-14.55a16.49,16.49,0,0,1,5.28.24c3,.5,5.9,1.24,8.64,1.84-6.9,3.6-13.83,7.4-20.94,10.81-2.59,1.25-5.63,1.58-8.46,2.33Zm8.22-8.21-.46-.36-5.63,6.85.41.44a19.66,19.66,0,0,0,11.26-4.69l-2.49,1.1-.13-.27,2.64-1.84-.1-.22L55,61.75c3.59-3.37,8.17-4.53,12.66-5.89a21.09,21.09,0,0,0-14.49,4.33Z"/><path class="cls-1" d="M26.84,112.59c-.64-6.9.22-13.17,4.17-18.59a17.38,17.38,0,0,1,5.65-4.93A60.82,60.82,0,0,1,47.9,84.76c-.47.6-1,1.17-1.4,1.8q-5,7.66-9.89,15.34A36,36,0,0,1,26.84,112.59Zm3.29-10.87c.85-2.29,1.78-4.75,2.7-7.21-3.56,4.66-4.64,10-4.72,15.76,3.36-3.59,7.31-6.74,8.38-12.32l-2.68,3.85-.44-.26c2.23-4,4.47-7.93,6.76-12a8.08,8.08,0,0,0-1.3,1.1C35.88,94.37,33,98.1,30.13,101.72Z"/><path class="cls-1" d="M278.19,112.76a33.06,33.06,0,0,1-8.65-8.94c-4.16-6.43-8.23-12.93-12.26-19.29,4.55,2.12,10.11,2.89,14.18,6.7,5.18,4.85,6.74,11.16,6.73,18C278.18,110.24,278.19,111.25,278.19,112.76Zm-6.31-18.62q1.51,4.08,3,8.14c-2.95-4.54-5.8-9-10.24-12.83l7,12.41-.4.23-2.51-3.57c.85,5.12,4.63,8.15,7.92,11.58C276.75,104.25,275.44,98.87,271.88,94.14Z"/><path class="cls-1" d="M271.7,54.43c2.24,5.52,4.5,11,6.71,16.55,1.77,4.41,3.39,8.88,5.21,13.27,3.44,8.27,3.33,16.3-1.41,24.07a6.9,6.9,0,0,1-.42.63s-.11.06-.39.21c-.72-2.76-1.42-5.47-2.13-8.18-2.19-8.28-2.25-16.67-1.49-25.15a17.75,17.75,0,0,0-1.15-7c-1.43-4.26-3.24-8.4-4.89-12.59-.21-.51-.4-1-.6-1.55Zm10.83,31.13-1,0v10.6h-.72V84.78h-.32q-.25,4.77-.53,9.54h-.31l-1.11-9A39.83,39.83,0,0,0,282,106c3.3-5.26,3.62-10.78,1.39-16.53v9.14h-.2Q282.87,92.06,282.53,85.56Z"/><path class="cls-1" d="M33.57,55l-4,10c-.35.88-.64,1.79-1,2.66a20.4,20.4,0,0,0-1.35,11c1.08,9.36-.3,18.49-2.92,27.48-.29,1-.52,2-.88,3.35a28.06,28.06,0,0,1-4-8.94,22.6,22.6,0,0,1,.91-13.68c3.91-10.11,8-20.15,12.07-30.21.24-.6.59-1.17.88-1.76ZM24,96.45h-.6V84.94l-.71,0c-.3,2.3-.73,4.6-.89,6.91s0,4.56,0,6.84a17.68,17.68,0,0,1-.67-4.44c0-1.47.15-2.95.27-4.91-2.33,5.39-1.52,12.71,1.52,16.4,3.32-6.8,4.13-14.06,3.63-21.78l-1.25,9.72-.39,0-.6-8.53H24Z"/><path class="cls-1" d="M64.28,27.31c-4.53,4-6.21,9.28-6.76,15-.58,6.07-3.74,10.66-8,14.68-1.7,1.61-3.56,3-5.79,4.94.22-2.48.32-4.56.59-6.62a26.3,26.3,0,0,1,7.59-15.4c3.65-3.7,7.18-7.51,10.78-11.26A18.15,18.15,0,0,1,64.28,27.31Zm-19.34,32c4.09-2.68,7-5.77,8.5-10.1L50.59,53l-.13-.14q2.86-6.35,5.75-12.69l-.46-.21L48.67,50.43l-.31-.18,2-4.28C46.06,49.43,45.67,54.22,44.94,59.35Z"/><path class="cls-1" d="M260.9,61.69c-4.19-3.45-8.47-6.53-10.86-11.3a25,25,0,0,1-2.47-7.49A34.58,34.58,0,0,0,244,31.53c-.61-1.14-1.68-2-2.36-3.31a14.81,14.81,0,0,1,1.54,1.29c4.1,4.42,8.33,8.72,12.21,13.33S261.08,54.05,260.9,61.69ZM249,39.66l-.43.21,6.25,13.78-3.38-4.46a19,19,0,0,0,8.29,9.93,16.86,16.86,0,0,0-5.07-13L256.31,50l-.31.14Z"/><path class="cls-1" d="M274.13,80.83c-4.6-4.83-8.83-9.76-10.32-16.41a12.59,12.59,0,0,1-.33-3.4,31.7,31.7,0,0,0-1.41-11.85,6.3,6.3,0,0,1-.13-1.14C270.72,57.34,276.25,67.59,274.13,80.83Zm-2.61-11.27-.21.1q-3-6.33-6-12.65l-.45.16c1.38,4.78,2.75,9.56,4.29,14.88-1.08-2-1.89-3.44-2.71-4.92.44,3.89,4.06,9.5,7,11.1-.16-4.93.38-9.9-3.57-14.12Z"/><path class="cls-1" d="M30.8,80.9c-2.31-13.43,3.51-23.71,12.06-32.83-.45,2.5-.94,5.11-1.38,7.74a9.11,9.11,0,0,0-.11,2.27c.7,7.15-2.2,13-6.61,18.25C33.47,77.87,32.13,79.37,30.8,80.9Zm.54-2.3c3.84-3.4,6.24-7,7.1-11.64l-2.32,4.29-.18-.08,3.94-13.74-.47-.15L33.82,69.05l-.3-.12,1.23-4.38C31.12,68.66,31.37,73.39,31.34,78.6Z"/><path class="cls-1" d="M35.92,123.72c-1.42,5.42-2.78,10.86-4.29,16.27a20.11,20.11,0,0,1-6.24,9.81c-.4.36-.86.65-1.33,1C20.17,140.2,24.3,130.93,35.92,123.72Zm-7.73,9.71c-2.68,4.36-6.43,8.45-3.24,14.43l5.1-8.83-.44-.28L28.3,139.8l2.15-7.11a15.25,15.25,0,0,0-1.92,3c-.56,1.11-1.09,2.25-1.63,3.37a7.71,7.71,0,0,1,.36-2.81C27.53,135.3,27.87,134.37,28.19,133.43Z"/><path class="cls-1" d="M280.86,150.87a20.79,20.79,0,0,1-7.74-11.18c-.59-2-1-4.07-1.53-6.08-.9-3.35-1.86-6.68-2.74-9.86C279.85,129.14,284.36,139,280.86,150.87ZM275,138.31c1,3.79,3.54,8.08,5.85,9.53.11-1.92.36-3.67.28-5.41-.16-3.72-3.15-6.11-4.56-9.27l1.83,6.29-.25.06-3.6-7.17-.3.16c.75,2.39,1.51,4.79,2.26,7.19l-.29.14Z"/><path class="cls-1" d="M58.51,70.18c-5.84,4.66-11.34,9.11-16.92,13.47a25.81,25.81,0,0,1-10.8,5.1,29.35,29.35,0,0,1,5.65-12.44,15.51,15.51,0,0,1,13.45-6.15C52.72,70.3,55.57,70.18,58.51,70.18ZM44.05,72.63c-5,.13-11.25,8-11.46,14.3,5.66-1,13.18-6.18,15.22-10.48-2.28,1-4.61,1.93-6.89,3-1.09.51-2.08,1.21-3.11,1.82l-.33-.52,8.74-6.45-2,.47-.12-.37,6.62-2.65c-4-.06-6.85,1.79-9.76,3.51l-.2-.43Z"/><path class="cls-1" d="M274.05,89.08c-2.49-1-4.89-1.73-6.93-3-3-1.87-5.79-4.1-8.61-6.27-4-3.08-7.94-6.24-11.74-9.24C260.4,67.17,271.86,74.59,274.05,89.08ZM260.73,74.34l-.1.35-2.06-.44,8.82,6.48-.37.54-6.09-3.68.25,1.09-4.36-2.59c4,5.41,8.83,9.51,15.8,10.93-2.33-6.77-4.51-13.26-12.49-14.74.68.51,1.49.89,2.22,1.36s1.36,1,2,1.53c-3.13-1.65-6.09-3.42-10.06-3.4Z"/><path class="cls-1" d="M60.52,47.34C61.09,42,62,37,65.62,33.15c4.19-4.37,8.84-8.29,13.08-12.21C77,32.47,70.34,40.85,60.52,47.34Zm8-13C64.2,36.5,63,40.53,62,45.27c2.9-2,5.12-3.77,6.48-6.76,1.67-3.66,4.13-6.94,6.23-10.4a6.12,6.12,0,0,0,.43-1.2l-.22-.07L67.21,37.78l-.43-.27Z"/><path class="cls-1" d="M244.39,47.39C234.65,41,227.94,32.67,226.19,21c4.27,3.95,8.82,7.81,12.95,12.08C242.89,36.92,243.78,42.07,244.39,47.39ZM229.57,26.2a7,7,0,0,0,.15.95c1.67,5,5.43,8.76,7.74,13.41.94,1.9,3.3,3.1,5,4.62l.59-.44a47.49,47.49,0,0,0-2.6-6.43,31.34,31.34,0,0,0-3.88-4.56l-.42.36,2,3.52-.44.27C235.07,34.11,232.44,30.33,229.57,26.2Z"/><path class="cls-1" d="M61.17,51.3c3.26-5.42,7.31-9.43,13.09-11.49a7.86,7.86,0,0,1,6.48.39c4.5,2.43,9,2.31,13.77.89s9.41-2.38,14.14-3.49c-5.59,2.75-11.63,4-17.66,5a45.63,45.63,0,0,0-14.63,5.13c-4.21,2.34-8.59,4.13-13.56,3.71C62.37,51.45,62,51.39,61.17,51.3Zm1.71-1a4,4,0,0,0,.92.08c2.91-.57,6,.08,8.61-2.37,1.72-1.62,4.31-2.33,6.5-3.45l-.09-.29L75.24,45l-.06-.23,4.29-1.47-.17-.69-7.21,1.46L72,43.82,77.75,42l-.07-.3-5.51,1.06a2.46,2.46,0,0,1,1-.88c.37-.19.76-.35,1.65-.74C68.86,42.08,66,46.15,62.88,50.27Z"/><path class="cls-1" d="M197.21,37.84c5.46,1.31,11,2.51,16.39,4a9.88,9.88,0,0,0,7.72-.6c6.21-3.46,11.55-1.52,16.34,2.73,2.27,2,4.08,4.57,6.42,7.24a18.54,18.54,0,0,1-10.48-1,76.11,76.11,0,0,1-7.84-3.88c-5.34-3-11.4-3.25-17.15-4.74-3.84-1-7.66-2.11-11.49-3.18Zm44.42,12.83.24-.61c-2.79-3.5-5.29-7.36-10.39-8.59l1.16,1.24-5.33-.92-.05.28,4.68,1.42-.07.24-6.34-1-.07.59,4,1.4-.09.26-3.26-.7c2.52,1.63,4.86,3.6,7.54,4.73C236.15,50,239,50.15,241.63,50.67Z"/><path class="cls-1" d="M17.48,99.88c1.2,5.1,2.51,10.25,3.62,15.44a36.17,36.17,0,0,1,.33,12.5c-5.77-1.49-9.48-7.51-8.81-14A40.44,40.44,0,0,1,17.48,99.88Zm1.14,12.56.74,5.59-.32,0c-.58-3-1.17-6.07-1.71-8.89l-.56,7h-.29l-.62-5-.31,0,.33,6h-.13l-1.15-3.94c-.67,6.74,1.44,11.32,5.68,12.85A26.17,26.17,0,0,0,18.62,112.44Z"/><path class="cls-1" d="M20.12,148.83a15,15,0,0,1-7.54-12.26c-.39-4.84-.76-9.69-1.11-14.2C19.6,130.21,23.12,136.36,20.12,148.83Zm-4.54-14.67-.29.08.33,3.17-.19,0-1-3c-.17,4.73.91,8.9,5.14,12.12.26-2,.53-3.71.65-5.39a11.18,11.18,0,0,0-.28-2.62,2.91,2.91,0,0,0-.68,0l-2.1-4.43-.33.15L18,139.46l-.3.07Z"/><path class="cls-1" d="M287.32,99.83c2.69,5.54,5.52,11,4.82,17.5a12.3,12.3,0,0,1-8.53,10.46C281.33,118,286.1,109.18,287.32,99.83Zm.48,7.22c-.66,3.82-1.22,7.11-1.79,10.4l-.41-.06.77-5.74a29.19,29.19,0,0,0-1.75,14.67c4.87-2.06,6.89-9,5.43-12.3-.38,1.28-.73,2.51-1.09,3.73l-.12,0,.58-6.09-.47-.05-.72,5.72-.43,0Z"/><path class="cls-1" d="M284.8,148.82c-3.19-10.93.55-19.47,8.9-26.62l-.4,2.26c-.14.82-.32,1.63-.39,2.44-.28,3.54-.45,7.09-.78,10.63C291.66,142.56,289,146.2,284.8,148.82ZM288,134.25c-3.56,4.41-4.12,7.38-2.39,11.95,3.44-2.23,5.54-7.22,4.78-11.69l-.88,2.53-.12-2.35-.27,0-2.1,5.17-.2-.07C287.17,138,287.54,136.24,288,134.25Z"/><path class="cls-1" d="M280.51,131.28c-8.33-5.53-9.88-14.68-12.39-23.47,1.48.94,2.83,1.87,4.25,2.69s3,1.55,4.53,2.39c3.94,2.25,5.09,6,5.13,10.17a80.64,80.64,0,0,1-.72,8.18Zm-9.38-19.13-.43.19A37.86,37.86,0,0,0,280.33,130V119.52l-.45,0c-.16.7-.32,1.39-.51,2.19l-.91-3.48-.38.09.27,2.4c-.94-2-1.78-3.7-2.61-5.44l-.36.14q1,3.87,2,7.73l-.45.15-3.44-8.79-.15,2.85C272.49,115.38,271.81,113.77,271.13,112.15Z"/><path class="cls-1" d="M36.77,107.93c-2.62,8.55-4,17.9-12.74,23.56-1.7-5-2-9.93.21-14.54,1-2,3.23-3.45,5.15-4.79C31.71,110.55,34.29,109.33,36.77,107.93Zm-10,12.28-.24-2.16-1,3.17-.28-.07-.2-2h-.55v10.94c4.93-5.33,8.13-11.12,9.28-18l-2.44,5.63.27-3.12-.28-.07-3.15,8.14-.55-.19,1.91-7.26-.29-.13Z"/><path class="cls-1" d="M131.63,11.86c.87,4.68,3.67,6.74,8.46,6.1l-.07.63c-1,1-2.05,2-3.14,2.9a2.31,2.31,0,0,0-.85,2.65,45.4,45.4,0,0,1,.75,4.61c-1.57-.81-2.89-1.4-4.11-2.15a2.39,2.39,0,0,0-2.79,0c-1.22.75-2.56,1.33-4.5,2.31,2.15-4.65,1.17-8-3.07-10.28l.37-.38a36.71,36.71,0,0,1,4-.63,2.6,2.6,0,0,0,2.58-1.79c.52-1.28,1.21-2.48,1.83-3.72Zm-.8,9.23-6-2C127.29,22.43,127.6,22.53,130.83,21.09Zm.93-.11,5.58-1.85C133.17,18,133.17,18,131.76,21Zm-.7.61c-.79,1.05-1.36,1.79-1.91,2.55s-1.09,1.54-1.86,2.64C131.37,25.08,131.37,25.08,131.06,21.59Zm4.28,5c-.27-4.42-.48-4.69-3.71-5Zm-4.26-6v-5.9C128.78,17.88,128.78,18,131.08,20.59Z"/><path class="cls-1" d="M165.42,18c4.71.52,7.58-1.47,8.46-6.14l.44.22c.62,1.23,1.31,2.42,1.83,3.69a2.58,2.58,0,0,0,2.52,1.86,38.19,38.19,0,0,1,4.24.65c-1.49,1.64-3.38,2.89-3.92,4.57s.35,3.69.66,5.87a41.33,41.33,0,0,1-4-2.09,2.42,2.42,0,0,0-2.95,0c-1.17.72-2.44,1.29-4,2.07a26.4,26.4,0,0,1,.61-3.76A3.27,3.27,0,0,0,168,21c-.89-.7-1.69-1.51-2.53-2.27Zm8.79,3.2-6.49-2c1.63,2.42,3.34,3.69,5.95,2.12a1.59,1.59,0,0,1,.55-.09l-4,5.53c4-1.52,4-1.52,4-5.16C174.17,21.44,174.2,21.31,174.21,21.19Zm-.15-.64V14.43C171.7,18.06,171.7,18.11,174.06,20.55Zm.6.41,5.69-1.85C176.2,18,176.2,18,174.66,21Zm3.72,5.88c-.73-4.93,0-4.57-3.84-5.27Z"/><path class="cls-1" d="M90.17,28.09c4.37-6.24,17.44-10.12,24.43-7.34C107.86,27.72,99.69,29.93,90.17,28.09Zm7.06-3.51-.06-.47c1.87-.62,3.92-.58,5.61-2,1-.82,2.58-.9,3.9-1.32-5.64.44-10.41,2.86-15.19,6.34,3.84,1.16,7.05.64,10.67-.65l-2.85-.15,0-.24,4.92-1.3-.08-.22Z"/><path class="cls-1" d="M214.69,28.11c-9.47,1.79-17.61-.35-24.29-7.21C195.75,17.6,210.36,21.8,214.69,28.11Zm-6.31-4.22c-3.36-1.59-6.72-3.19-10.76-3.31,1.9,1.2,4.14.57,5.76,2.52.81,1,3.32.54,5.05.74-2.53,2-5.38.52-8.13.91l5.2,1.36,0,.22-2.4.12c3.24,1.26,6.49,1.89,10.29.61C211.47,25.84,209.94,24.86,208.38,23.89Z"/><path class="cls-1" d="M80.35,23a54.46,54.46,0,0,1,23.1-13.85c-4,2.06-8.13,3.91-12,6.22S84.05,20.48,80.35,23Z"/><path class="cls-1" d="M202.46,9.64a50.45,50.45,0,0,1,21.28,12.79c-3.4-2.34-6.7-4.84-10.23-6.95S206.15,11.57,202.46,9.64Z"/><path class="cls-1" d="M118.37,264.92c.71.26,1,.42,1.42.51,1.52.41,3,.8,4.93,1.29.47-2.39.94-4.69,1.43-7.16l5.48,1.12a123.78,123.78,0,0,0-3.28,16.91l-6.83-1.42c2.48-2.44,1.71-5.87,3.18-8.84l-6.47-1.69c-.78,3-1.53,5.93-2.32,9l-6.14-1.89a153.59,153.59,0,0,0,5.66-16.29l5.32,1.66Z"/><path class="cls-1" d="M180.55,271.17c.23.69.44,1.15.55,1.63.3,1.35.56,2.71.91,4.4l-14.75,2.22a108.85,108.85,0,0,0-1.66-17.25l5.85-.71a27.63,27.63,0,0,0,0,3.53c.48,3.71,1.13,7.39,1.57,11.11.19,1.7,1,1.94,2.43,1.6C178.57,277,180.3,274.88,180.55,271.17Z"/><path class="cls-1" d="M162.55,274.42c.12,1.67.23,3.35.36,5.31h-15c1-5.62.94-11.36.84-17h5.63c-.1,1.54-.25,2.91-.26,4.28,0,3.49.05,7,0,10.47,0,1.46.58,2,2.07,1.9C159.25,279.16,161.21,277.61,162.55,274.42Z"/><path class="cls-1" d="M141.21,279.38l-6-.65c.8-5.68,1.58-11.24,2.39-17l5.15.53C142.24,268,141.74,273.6,141.21,279.38Z"/><path class="cls-1" d="M109.24,282.22l-2.76-.37,2.14,1.33c-4.93-1.08-10.24-1.34-13.34-6.07l.27-.64,13.81,5.34Z"/><path class="cls-1" d="M193.27,257l1.07,3.09-5.86-2.76-.2.41Z"/><path class="cls-1" d="M90.51,24.53,78.23,32.78l-.38-.5a26.21,26.21,0,0,1,8.61-9.22l-.68,1.34,2.71-1.83.16.2-2.33,2.88.15.27L90.09,24Z"/><path class="cls-1" d="M92.08,32.68l-2.84,1.4.09.28,7.19-1.88c-5.41,2.59-11,4.53-17.06,4.12l-.29-.55,9-5,.27.47-5,2.8.11.32L92,32.31Z"/><path class="cls-1" d="M216.74,22.88l2.26,1.4-1-1.52a27.68,27.68,0,0,1,9,9.43l-.42.57L213.86,24.2l.31-.53,4.09,2.17.18-.19-1.9-2.55Z"/><path class="cls-1" d="M225.37,36.63c-6.09.33-11.67-1.59-17.09-4.21l7.41,2,.11-.35-3.87-1.73.09-.28,9.28,2.58.16-.3-4.22-2.45.26-.46L225.61,36Z"/><path class="cls-1" d="M152.91,14.88c5.16.92,6.13,2.28,6,8.24Z"/><path class="cls-1" d="M152.86,14.39c3.92-5.53,1.55-4.75,9.62-3.17Z"/><path class="cls-1" d="M152.47,3.48V13.76C149,10.69,149,9.56,152.47,3.48Z"/><path class="cls-1" d="M146.31,23.24l6-8.23C153.2,19.94,152.13,21.43,146.31,23.24Z"/><path class="cls-1" d="M142.27,11.19l9.48,3.11C148.43,16.93,146.19,16.23,142.27,11.19Z"/><path class="cls-1" d="M257.33,66.26a19.82,19.82,0,0,1-11.1-4.4l2.48,1,.13-.26-3.16-2.08.14-.28,4,1.53c-3.52-3.27-7.92-4.59-12.36-5.89a21.13,21.13,0,0,1,14.2,4.19c-.17-.23-.32-.47-.51-.69a3.92,3.92,0,0,1-.55-.72C253.56,60.39,255.55,63,257.33,66.26Z"/><path class="cls-1" d="M53.58,59.27l-.42.92a21.09,21.09,0,0,1,14.49-4.33c-4.49,1.36-9.07,2.52-12.66,5.89l4.09-1.47.1.22-2.64,1.84.13.27,2.49-1.1A19.66,19.66,0,0,1,47.9,66.2l-.41-.44,5.63-6.85Z"/><path class="cls-1" d="M30.13,101.72c2.83-3.62,5.75-7.35,8.7-11.07a8.08,8.08,0,0,1,1.3-1.1c-2.29,4.06-4.53,8-6.76,12l.44.26L36.49,98c-1.07,5.58-5,8.73-8.38,12.32.08-5.72,1.16-11.1,4.72-15.76C31.91,97,31,99.43,30.13,101.72Z"/><path class="cls-1" d="M271.88,94.14c3.56,4.73,4.87,10.11,4.79,16-3.29-3.43-7.07-6.46-7.92-11.58l2.51,3.57.4-.23-7-12.41c4.44,3.78,7.29,8.29,10.24,12.83Q273.39,98.21,271.88,94.14Z"/><path class="cls-1" d="M282.53,85.56q.33,6.51.68,13h.2V89.44c2.23,5.75,1.91,11.27-1.39,16.53a39.83,39.83,0,0,1-3.5-20.64l1.11,9h.31q.27-4.77.53-9.54h.32V96.12h.72V85.52Z"/><path class="cls-1" d="M24,96.45V85.08h.28l.6,8.53.39,0,1.25-9.72c.5,7.72-.31,15-3.63,21.78-3-3.69-3.85-11-1.52-16.4-.12,2-.3,3.44-.27,4.91a17.68,17.68,0,0,0,.67,4.44c0-2.28-.12-4.57,0-6.84s.59-4.61.89-6.91l.71,0V96.46Z"/><path class="cls-1" d="M44.94,59.35c.73-5.13,1.12-9.92,5.4-13.38l-2,4.28.31.18,7.08-10.52.46.21q-2.88,6.35-5.75,12.69l.13.14,2.85-3.7C52,53.58,49,56.67,44.94,59.35Z"/><path class="cls-1" d="M249,39.66l7,10.47.31-.14-1.69-3.83a16.86,16.86,0,0,1,5.07,13,19,19,0,0,1-8.29-9.93l3.38,4.46-6.25-13.78Z"/><path class="cls-1" d="M271.52,69.56l-1.59-5.45c3.95,4.22,3.41,9.19,3.57,14.12-3-1.6-6.58-7.21-7-11.1.82,1.48,1.63,3,2.71,4.92-1.54-5.32-2.91-10.1-4.29-14.88l.45-.16q3,6.33,6,12.65Z"/><path class="cls-1" d="M31.34,78.6c0-5.21-.22-9.94,3.41-14l-1.23,4.38.3.12,5.59-11.77.47.15L35.94,71.17l.18.08L38.44,67C37.58,71.55,35.18,75.2,31.34,78.6Z"/><path class="cls-1" d="M28.19,133.43c-.32.94-.66,1.87-.93,2.82a7.71,7.71,0,0,0-.36,2.81c.54-1.12,1.07-2.26,1.63-3.37a15.25,15.25,0,0,1,1.92-3L28.3,139.8l1.31-1.05.44.28L25,147.86C21.76,141.88,25.51,137.79,28.19,133.43Z"/><path class="cls-1" d="M275,138.31l1.22,1.52.29-.14c-.75-2.4-1.51-4.8-2.26-7.19l.3-.16,3.6,7.17.25-.06-1.83-6.29c1.41,3.16,4.4,5.55,4.56,9.27.08,1.74-.17,3.49-.28,5.41C278.58,146.39,276,142.1,275,138.31Z"/><path class="cls-1" d="M44.05,72.63l-3.34,2.19.2.43c2.91-1.72,5.78-3.57,9.76-3.51l-6.62,2.65.12.37,2-.47-8.74,6.45.33.52c1-.61,2-1.31,3.11-1.82,2.28-1.06,4.61-2,6.89-3-2,4.3-9.56,9.49-15.22,10.48C32.8,80.63,39.06,72.76,44.05,72.63Z"/><path class="cls-1" d="M260.73,74.34l-6.41-2.57c4,0,6.93,1.75,10.06,3.4-.67-.51-1.31-1.07-2-1.53s-1.54-.85-2.22-1.36c8,1.48,10.16,8,12.49,14.74-7-1.42-11.82-5.52-15.8-10.93l4.36,2.59-.25-1.09L267,81.27l.37-.54-8.82-6.48,2.06.44Z"/><path class="cls-1" d="M68.56,34.3l-1.78,3.21.43.27,7.66-10.94.22.07a6.12,6.12,0,0,1-.43,1.2c-2.1,3.46-4.56,6.74-6.23,10.4-1.36,3-3.58,4.73-6.48,6.76C63,40.53,64.2,36.5,68.56,34.3Z"/><path class="cls-1" d="M229.57,26.2c2.87,4.13,5.5,7.91,8.12,11.7l.44-.27-2-3.52.42-.36a31.34,31.34,0,0,1,3.88,4.56,47.49,47.49,0,0,1,2.6,6.43l-.59.44c-1.72-1.52-4.08-2.72-5-4.62-2.31-4.65-6.07-8.43-7.74-13.41A7,7,0,0,1,229.57,26.2Z"/><path class="cls-1" d="M62.88,50.27c3.14-4.12,6-8.19,12-9.1-.89.39-1.28.55-1.65.74a2.46,2.46,0,0,0-1,.88l5.51-1.06.07.3L72,43.82l.07.26,7.21-1.46.17.69-4.29,1.47.06.23,3.58-.77.09.29c-2.19,1.12-4.78,1.83-6.5,3.45-2.6,2.45-5.7,1.8-8.61,2.37A4,4,0,0,1,62.88,50.27Z"/><path class="cls-1" d="M241.63,50.67C239,50.15,236.15,50,233.7,49c-2.68-1.13-5-3.1-7.54-4.73l3.26.7.09-.26-4-1.4.07-.59,6.34,1,.07-.24-4.68-1.42.05-.28,5.33.92-1.16-1.24c5.1,1.23,7.6,5.09,10.39,8.59Z"/><path class="cls-1" d="M18.62,112.44a26.17,26.17,0,0,1,1.66,13.7C16,124.61,13.93,120,14.6,113.29l1.15,3.94h.13l-.33-6,.31,0,.62,5h.29l.56-7c.54,2.82,1.13,5.86,1.71,8.89l.32,0Z"/><path class="cls-1" d="M287.8,107.05v10.21l.43,0,.72-5.72.47.05-.58,6.09.12,0c.36-1.22.71-2.45,1.09-3.73,1.46,3.27-.56,10.24-5.43,12.3a29.19,29.19,0,0,1,1.75-14.67l-.77,5.74.41.06C286.58,114.16,287.14,110.87,287.8,107.05Z"/><path class="cls-1" d="M270.51,95.87c-.42,2-.8,3.74-1.17,5.5l.2.08,2.09-5.18.28,0,.12,2.36.87-2.54c.77,4.47-1.33,9.47-4.78,11.69C266.39,103.25,267,100.27,270.51,95.87Z"/><path class="cls-1" d="M271.13,112.15c.68,1.62,1.36,3.23,2.2,5.19l.15-2.85,3.44,8.79.45-.15q-1-3.85-2-7.73l.36-.14c.83,1.74,1.67,3.47,2.61,5.44l-.27-2.4.38-.09.91,3.48c.19-.8.35-1.49.51-2.19l.45,0V130a37.86,37.86,0,0,1-9.63-17.62Z"/><path class="cls-1" d="M26.74,120.21l2.5-5.08.29.13-1.91,7.26.55.19,3.15-8.14.28.07-.27,3.12,2.44-5.63c-1.15,6.87-4.35,12.66-9.28,18V119.18H25l.2,2,.28.07,1-3.17Z"/><path class="cls-1" d="M130.83,21.09c-3.23,1.44-3.54,1.34-6-2Z"/><path class="cls-1" d="M131.76,21c1.41-3,1.41-3,5.58-1.85Z"/><path class="cls-1" d="M131.06,21.59c.31,3.49.31,3.49-3.77,5.19.77-1.1,1.3-1.88,1.86-2.64S130.27,22.64,131.06,21.59Z"/><path class="cls-1" d="M135.34,26.61l-3.71-5C134.86,21.92,135.07,22.19,135.34,26.61Z"/><path class="cls-1" d="M131.08,20.59c-2.3-2.58-2.3-2.71,0-5.9Z"/><path class="cls-1" d="M174.06,20.55c-2.36-2.44-2.36-2.49,0-6.12Z"/><path class="cls-1" d="M174.22,21.19a2.35,2.35,0,0,0-.05.37c0,3.64,0,3.64-4,5.16l4-5.53Z"/><path class="cls-1" d="M174.66,21c1.54-2.95,1.54-2.95,5.69-1.85Z"/><path class="cls-1" d="M178.38,26.84l-3.84-5.27C178.37,22.27,177.65,21.91,178.38,26.84Z"/><path class="cls-1" d="M174.22,21.19a1.59,1.59,0,0,0-.55.09c-2.61,1.57-4.32.3-5.95-2.12l6.5,2Z"/><path class="cls-1" d="M97.23,24.58h6.9l.08.22-4.92,1.3,0,.24,2.85.15c-3.62,1.29-6.83,1.81-10.67.65,4.78-3.48,9.55-5.9,15.19-6.34-1.32.42-2.92.5-3.9,1.32-1.69,1.41-3.74,1.37-5.61,2Z"/><path class="cls-1" d="M208.4,23.87l5,3.19c-3.8,1.28-7.05.65-10.29-.61l2.4-.12,0-.22-5.2-1.36c2.75-.39,5.6,1.06,8.13-.91Z"/><path class="cls-1" d="M208.43,23.84c-1.73-.2-4.24.23-5.05-.74-1.62-2-3.86-1.32-5.76-2.52,4,.12,7.4,1.72,10.77,3.3Z"/><path class="cls-2" d="M151.41,70q42,0,84,0c1,0,1.2.19,1.2,1.2q0,74.19,0,148.39c0,1-.19,1.21-1.2,1.21q-74.79-.06-149.57,0,0-74.71,0-149.42c0-1.1.25-1.35,1.35-1.35q28.72.06,57.45,0c.1.93-.69,1-1.24,1.12-1.64.49-3.32.81-4.93,1.43a26,26,0,0,0-13.85,11.9,4.71,4.71,0,0,1-3.68,2.5,16.54,16.54,0,0,0-13,10.2,7.54,7.54,0,0,1-3.21,3.77A13.53,13.53,0,0,0,98.14,115a13.86,13.86,0,0,0,10.57,11c2.85.7,2.87.7,2.87,3.7q0,35.25,0,70.51v.59c0,2.31-.12,2.44-2.36,3A7.79,7.79,0,0,0,104,207.7a8,8,0,0,0,6.47,11.93,14.61,14.61,0,0,0,1.62.05q40.68,0,81.38,0c3.13,0,5.78-.91,7.66-3.54a8,8,0,0,0-4.3-12.23l-.43-.11c-2.35-.6-3-1.83-2.37-4.18a1.34,1.34,0,0,1,1.26-1,20.15,20.15,0,0,1,2.06-.08c4.94,0,9.89.06,14.83,0,2.7,0,5.38-.35,7.71-2a10.59,10.59,0,0,0,4.53-9.11q.14-18.72,0-37.46c-.05-5.31-3-9-7.67-10.46a9.88,9.88,0,0,0-2.91-.35H196.49c-2.33-.06-3.33-1.64-2.44-3.85a1.71,1.71,0,0,1,1-.85,11.12,11.12,0,0,0,6.51-10.06,3.66,3.66,0,0,1,.85-2.27,17.15,17.15,0,0,0,3.17-5.58,13.71,13.71,0,0,0-7-16.1,5.69,5.69,0,0,1-3.15-3.67c-2.31-6.46-7-10.17-13.75-11.4a17.7,17.7,0,0,0-7,.33c-1.82.39-2.28.15-3.23-1.45a26.88,26.88,0,0,0-17.88-13C152.72,71.08,151.52,71.32,151.41,70Z"/><path d="M151.41,70a10.76,10.76,0,0,0,2.91.7A27.44,27.44,0,0,1,172.1,84c.58,1,1.05,1.33,2.27,1a18,18,0,0,1,22,12.39,2.59,2.59,0,0,0,1.55,1.92,14.34,14.34,0,0,1,5.08,23,3.08,3.08,0,0,0-.84,2.2,11.11,11.11,0,0,1-6.52,10.32c-.9.44-1.55,2.43-1,3.2.34.49.9.26,1.36.26,5.93,0,11.85,0,17.78,0a10.86,10.86,0,0,1,10.87,8.16,13.08,13.08,0,0,1,.44,3.63q0,18.58,0,37.17c0,5.81-3.14,10-8.46,11.42a14.52,14.52,0,0,1-3.78.36c-5.59,0-11.17,0-16.75,0-1.18,0-1.55.24-1.6,1.5-.08,1.6.3,2.2,2,2.5a8.62,8.62,0,0,1,6.86,8.42,8.82,8.82,0,0,1-6.71,8.57,10.89,10.89,0,0,1-2.47.29q-41.43,0-82.87,0c-4.83,0-8.4-3-9.08-7.51a8.63,8.63,0,0,1,7.22-9.91c1.2-.18,1.44-.6,1.44-1.73q0-36.3,0-72.58c0-1.12-.22-1.6-1.46-1.77-6-.83-11.27-6-12.09-11.65-1-6.65,2-12.7,7.8-15.52A2.92,2.92,0,0,0,106.74,98c2.59-6.8,7.48-10.8,14.69-11.92a2.42,2.42,0,0,0,2.13-1.22c4.37-8.2,11.27-12.92,20.34-14.56.27,0,.61,0,.75-.31Z"/><path class="cls-2" d="M202.2,110.51c.88,4.24-.66,7.59-3.91,10.22a1.88,1.88,0,0,0-.78,2.18c.7,3.36-.44,6.07-3,7.63s-5.55,1.37-8.32-.76c-1.89-1.46-1.9-1.46-2.79.9a7.87,7.87,0,0,1-6.77,5.54,7.57,7.57,0,0,1-7.18-3.15,7.72,7.72,0,0,1-1.58-4.79c0-1.52,0-3,0-4.56,0-.71-.24-.92-.93-.92-3.77,0-7.54,0-11.31,0-1.12,0-1,.62-1,1.31q0,7.86,0,15.72c0,.39,0,.78,0,1.17,0,2-1,3.23-2.66,3.21s-2.6-1.24-2.62-3.25c0-1.62,0-3.24,0-4.85a7,7,0,0,0-14-.81,14.67,14.67,0,0,0-.1,2.2q0,15.21,0,30.41a5,5,0,0,1-2.93,4.86,4.85,4.85,0,0,1-5.27-.54A5.34,5.34,0,0,1,125,167.6q0-9.56,0-19.1c0-8.08,0-16.16,0-24.24,0-1.13-.26-1.47-1.44-1.48-4.4,0-8.82.32-13.21-.18-4.73-.53-8.15-4.2-8.79-9.21a9.88,9.88,0,0,1,6.36-10,3.74,3.74,0,0,0,2.68-2.94,13.67,13.67,0,0,1,26.8,1.91c.18,1.51.72,2,2.05,1.69.86-.19,1.95.67,2.59-.54a8.34,8.34,0,0,1,1.7-1.6,6,6,0,0,0,2.19-6.94,22.23,22.23,0,0,0-9.26-11.22A19.74,19.74,0,0,0,133.43,82c-.59-.24-1.39-.44-1.1-1.42,6.1-5.58,13.25-7.3,21.22-5.5,14.64,3.3,22.28,20.34,15.09,33.5-.94,1.73-.95,1.74.75,2.82.66.42,1.34.79,2,1.18a4.92,4.92,0,0,1,2.6-.75,6.7,6.7,0,0,0,6.32-5,36.56,36.56,0,0,0,1.22-6.32c.07-.62,0-1.3.68-1.67.9-.26,1.32.39,1.76,1,.29.38.51.84,1,1a1.85,1.85,0,0,0,1.81-.15c.59-.47.28-1.07,0-1.6a8.23,8.23,0,0,0-3.65-4c-.58-.33-1.29-.51-1.55-1.24-.31-1-.51-2-.75-3.07a1.45,1.45,0,0,1,.48-1.67,13.11,13.11,0,0,1,11.27,12.25c.16,4.77-2.54,8.5-6.67,11a12,12,0,0,1-5.8,1.83c-.93,0-1.31.42-1.16,1.34.18,1.08-.36,2.23.3,3.26a4.72,4.72,0,0,1,1.74,1.52,6.21,6.21,0,0,0,8.07,2,23.61,23.61,0,0,0,11-10.35,8.05,8.05,0,0,1,.8-1.4C201.34,110,201.79,109.78,202.2,110.51Z"/><path class="cls-3" d="M190.13,139.62c0,.68.05,1.37.05,2l0,64.32c0,.39,0,.78,0,1.17-.57.26-.81-.14-1-.54a2,2,0,0,0-1.94-1.06c-.78,0-1.56,0-2.34,0-1.32,0-2.57,0-3.18,1.48-.09.23-.38.29-.63.29-.76-.35-.72-1.07-.77-1.73-.06-.89-.06-1.81-1.2-2s-2-.07-2.5,1.13a1,1,0,0,1-.37.44,4.3,4.3,0,0,1-1.25.34,2.59,2.59,0,0,0-2.63,1.44.55.55,0,0,1-.75.25c0-1.12.07-2.25.12-3.37,0-.74-.28-1.09-1-1-.44,0-.88,0-1.32,0h-52c-.64,0-1.27,0-1.91,0-.3-.45-.15-1-.15-1.43q0-34.58,0-69.16c0-.2,0-.39,0-.59,0-.58.07-1.11.77-1.2a1.19,1.19,0,0,1,1.42,1,9.8,9.8,0,0,1,.15,2.48q0,17,0,34.07a12.35,12.35,0,0,0,10.42,12.51,12.49,12.49,0,0,0,14.27-10.78c.57-5.52.17-11.05.3-16.57,0-1.13,0-2.26,0-3.38,0-.62,0-1.34.69-1.65s1.16.26,1.63.69A9.92,9.92,0,0,0,161.76,143a21.6,21.6,0,0,0,.36-4.09c0-.51,0-1,.52-1.26s1,.1,1.41.49a26.81,26.81,0,0,0,2.49,2.27c6.12,4.49,13.61,4.19,19.48-.78C187.56,138.36,188.71,138.35,190.13,139.62Z"/><path class="cls-4" d="M181.08,207.18s.08-.07.09-.12c.74-2.23.74-2.23,3.23-2.23,1.22,0,2.44.06,3.66,0s2,.29,1.91,1.68c0,.22.18.44.27.66,1.37,0,2.74,0,4.11,0a4.48,4.48,0,0,1,4.62,4.49,4.44,4.44,0,0,1-4.64,4.31c-5.77,0-11.55,0-17.32,0h-64.9c-3.52,0-5.58-1.61-5.6-4.38s2.07-4.43,5.56-4.43h59.61c.22-3.15,2.58-2.27,4.44-2.36a4,4,0,0,0,3.86,1.71C180.46,206.49,180.77,206.85,181.08,207.18Z"/><path class="cls-5" d="M190.13,139.62c-1.79-.43-3.1.17-4.6,1.32-6.72,5.19-15.35,4.45-21.31-1.61a9.74,9.74,0,0,0-1.24-1.25c-.11,1.4-.29,2.68-.36,4a10.13,10.13,0,0,1-6.22,9.23,10.27,10.27,0,0,1-11.18-1.43,9.87,9.87,0,0,1-.75-.7c-.23-.23-.32-.62-.78-.6-.4.46-.22,1-.22,1.53,0,5.48,0,11,0,16.45A15.56,15.56,0,0,1,140,176.88c-4.4,5.29-13.44,5.9-18.48,1.19A13.62,13.62,0,0,1,117,167.52c.07-11.51,0-23,0-34.53,0-.73.41-2-.8-2-1,0-.63,1.25-.63,2q0,34.89,0,69.78c-.53-.41-.3-1-.3-1.5q0-36.12,0-72.25c0-1.44.44-1.83,1.83-1.8,3.48.08,3.48,0,3.48,3.49q0,18.36,0,36.71c0,4.74,2.44,8.4,6.4,9.73a9.48,9.48,0,0,0,12.65-8.88c.11-4.85,0-9.7,0-14.54,0-5.34,0-10.68,0-16a12,12,0,0,1,0-1.47,2.63,2.63,0,0,1,2.74-2.5,2.59,2.59,0,0,1,2.47,2.62c.08,1.75,0,3.52.05,5.28a7,7,0,0,0,14.06-.05q.1-6.31,0-12.63c0-1.34.36-1.91,1.72-1.72a5.09,5.09,0,0,0,1.17,0c1.06-.1,1.53.19,1.6,1.42.33,5.53,3.5,9.78,8.29,11.34,5.26,1.71,10,.29,13.77-4.19a1.3,1.3,0,0,1,1.63-.47C190.31,136.28,190.31,136.26,190.13,139.62Z"/><path class="cls-4" d="M198.13,187.5l7.62-.09c5,0,7.62-2.66,7.62-7.59,0-7.53,0-15,0-22.57,0-4-2.25-6.56-6.13-7.13-2.63-.21-5.26,0-7.89-.09-1.64,0-1.83-.19-1.91-1.84-.07-1.22-.05-2.44,0-3.65a1.87,1.87,0,0,1,.7-1.68c5.52,0,11.05-.13,16.57,0,3.52.09,6,3.12,6,7,0,5.33,0,10.66,0,16,0,7.23,0,14.47,0,21.71,0,4-2.42,6.7-6.05,7-3.89.23-7.78,0-11.67.1-1.37,0-2.73,0-4.09,0-.66,0-1.24-.15-1.33-.85a18.91,18.91,0,0,1,0-5.67C197.64,187.89,197.93,187.71,198.13,187.5Z"/><path class="cls-2" d="M209,168.72q0,5.57,0,11.15c0,2.35-.73,3.11-3.05,3.12-3.37,0-6.75,0-10.13,0-1,0-1.23-.3-1.23-1.26q.06-13,0-26c0-1.06.35-1.29,1.34-1.27,3.37.05,6.75,0,10.12,0,2.23,0,2.95.75,2.95,3Q209,163.14,209,168.72Z"/><path class="cls-4" d="M202.2,110.51c-.93-.07-.9.79-1.16,1.28a24.15,24.15,0,0,1-10.46,10.56c-5.06,2.65-8.63,1.48-11.26-3.6,6.33-.48,11.44-3.11,15-8.49a15.82,15.82,0,0,0,2.32-5.5c.21-1,.56-1.08,1.34-.52A10,10,0,0,1,202.2,110.51Z"/><path class="cls-4" d="M132.33,80.57a36.44,36.44,0,0,1,7.28,4.33,24.23,24.23,0,0,1,6.64,8.66c1.66,3.7.59,7.24-2.58,9.28a3.29,3.29,0,0,1-1.62.62,18.65,18.65,0,0,0-5.65-12.53A17.09,17.09,0,0,0,129,86.65c-1-.27-1.24-.62-.56-1.55A20.6,20.6,0,0,1,132.33,80.57Z"/><path class="cls-4" d="M182.49,99.06c-.37,2.31-.56,4.64-1.14,6.92-1.19,4.67-3.65,6.61-8.48,6.59h-1.46a27.49,27.49,0,0,0,3.43-21.92c-.24-1,0-1.29.89-1.48a12,12,0,0,1,5.65-.11l.89,4.64a.75.75,0,0,1-.93.5c-.75-.09-1.4,0-1.53.92a1.71,1.71,0,0,0,.92,2,4.76,4.76,0,0,1,1.51.88C182.53,98.27,182.93,98.58,182.49,99.06Z"/><path class="cls-6" d="M198.13,187.5c0,1.8.06,3.6,0,5.41,0,1.19.41,1.63,1.62,1.62,5,0,9.94,0,14.91.06a3.64,3.64,0,0,1-1.73.2c-5.58,0-11.16-.07-16.74,0-1.3,0-1.73-.36-1.63-1.66a28.71,28.71,0,0,0,0-4.25c-.08-1.21.42-1.57,1.52-1.46C196.76,187.47,197.45,187.47,198.13,187.5Z"/><path class="cls-6" d="M198.14,142.86c0,1.66,0,3.32,0,5,0,2,0,2,2.08,2h5.44a3,3,0,0,1,1.57.25c-3.85,0-7.7,0-11.56,0-.81,0-1.13-.28-1.11-1.11,0-1.71,0-3.41,0-5.12,0-.8.25-1.18,1.09-1.12S197.31,142.83,198.14,142.86Z"/><path d="M121.16,118.41c-3,0-6.07.06-9.11,0-4.2-.11-7-3.7-5.86-7.42a5.75,5.75,0,0,1,2.88-3.37c.61-.34,1.05-.41,1.23.49a18.57,18.57,0,0,0,.69,2.39,1.18,1.18,0,0,1-.23,1.31c-.75.92-.32,1.88.86,2.14a6.46,6.46,0,0,0,1.32.06c5.73,0,11.46,0,17.19,0,1.07,0,1.55.18,1.52,1.42-.06,3,0,3-3,3Z"/><path d="M149.33,78.82c7.19.75,12.51,4.24,15.79,10.76.41.81.47,1.28-.55,1.57s-1.85,1-2.72,1c-1-.08-1-1.48-1.56-2.26a14.39,14.39,0,0,0-11-6.61c-.9-.08-1.34-.3-1.24-1.27.07-.68,0-1.37,0-2C148.08,78.75,148.09,78.75,149.33,78.82Z"/><path d="M182.49,99.06a3.53,3.53,0,0,0-2.34-1.34c-.94-.12-1.15-.51-1.15-1.39,0-3.46,0-3.46,3.27-2.63a9.75,9.75,0,0,1,5.8,6.36c.27.91.19,1.52-1,1.47a.7.7,0,0,0-.14,0,13.83,13.83,0,0,1-2.47.27c-1.11-.08-.65-1.37-1.24-1.9A9,9,0,0,1,182.49,99.06Z"/><path d="M123.81,96.8c0,.49,0,1,0,1.46s-.15.73-.71.84a5,5,0,0,0-3.92,3.16.82.82,0,0,1-1.1.59l-1-.23c-2.79-.55-2.87-.7-1.42-3.23a9.56,9.56,0,0,1,6.6-4.65c1.21-.27,1.74,0,1.54,1.33A5.93,5.93,0,0,0,123.81,96.8Z"/><path class="cls-7" d="M141.83,118.41c-1,0-2.05-.06-3.07,0s-1.3-.35-1.3-1.34c0-3.09,0-3.09,3-3.09,1.56,0,3.12,0,4.68,0,.92,0,1.13.31,1.15,1.18.06,3.24.09,3.24-3.17,3.24Z"/><path class="cls-7" d="M181.08,207.18c-1.12,0-2.24-.07-3.35,0s-1.72-.29-1.54-1.52a4.31,4.31,0,0,0-.07-.87c.18-2,.18-2,2.13-2,2.94,0,2.94,0,2.9,2.93C181.15,206.2,181.1,206.69,181.08,207.18Z"/><path class="cls-2" d="M167.63,148.14c-2.12,0-2.12,0-2.12-2.25s0-2.16,2.37-2.16c2.05,0,2.05,0,2,2.33C169.92,148.15,169.92,148.15,167.63,148.14Z"/><path class="cls-2" d="M180.61,154.6c-2.17,0-2.17,0-2.17-2.2s0-2.21,2.31-2.21c2.1,0,2.1,0,2.1,2.28S182.85,154.61,180.61,154.6Z"/><path class="cls-2" d="M149.35,155.69c0,2.15,0,2.15-2.23,2.15s-2.18,0-2.17-2.35c0-2.07,0-2.07,2.3-2.06C149.36,153.43,149.36,153.43,149.35,155.69Z"/><path class="cls-2" d="M167.17,156.66c2.16,0,2.16,0,2.16,2.21s0,2.2-2.32,2.19c-2.09,0-2.09,0-2.08-2.28C164.93,156.66,164.93,156.66,167.17,156.66Z"/><path class="cls-2" d="M184.07,164.88c-2.11,0-2.11,0-2.1-2.26s0-2.15,2.36-2.14c2,0,2,0,2,2.33C186.36,164.89,186.36,164.89,184.07,164.88Z"/><path class="cls-2" d="M174.58,175.17c-2.3,0-2.3,0-2.31-2.07,0-2.34,0-2.34,2.17-2.34s2.24,0,2.24,2.13S176.68,175.16,174.58,175.17Z"/><path class="cls-2" d="M149.35,175.49c0,2.31,0,2.31-2,2.32-2.35,0-2.35,0-2.35-2.16s0-2.24,2.12-2.25C149.35,173.4,149.35,173.4,149.35,175.49Z"/><path class="cls-2" d="M159.34,179.31c0-2.09,0-2.09,2.28-2.09s2.14,0,2.13,2.39c0,2,0,2-2.36,2C159.34,181.62,159.34,181.62,159.34,179.31Z"/><path class="cls-2" d="M123.8,182.72c0,2.14,0,2.14-2.24,2.14s-2.18,0-2.17-2.35c0-2.06,0-2.06,2.31-2.06C123.8,180.46,123.8,180.46,123.8,182.72Z"/><path class="cls-2" d="M181.41,184.86c-2.09,0-2.09,0-2.09-2.29,0-2.13,0-2.13,2.4-2.12,2,0,2,0,2,2.36C183.72,184.87,183.72,184.87,181.41,184.86Z"/><path class="cls-2" d="M134.32,188.09c-2.29,0-2.29,0-2.3-2.07,0-2.34,0-2.34,2.18-2.34s2.23,0,2.23,2.15S136.43,188.09,134.32,188.09Z"/><path class="cls-2" d="M148.72,191.91c-2.3,0-2.3,0-2.3-2.07,0-2.34,0-2.34,2.17-2.34s2.23,0,2.23,2.14S150.82,191.91,148.72,191.91Z"/><path class="cls-2" d="M171.24,188.09c2.21,0,2.21,0,2.21,2.17s0,2.24-2.28,2.24c-2.13,0-2.13,0-2.13-2.24S169,188.09,171.24,188.09Z"/><path class="cls-2" d="M124.42,195.14c-2.09,0-2.09,0-2.09-2.28s0-2.14,2.39-2.13c2,0,2,0,2,2.36C126.73,195.15,126.73,195.15,124.42,195.14Z"/><path class="cls-2" d="M184,191.32c2.12,0,2.12,0,2.12,2.25s0,2.17-2.36,2.16c-2.05,0-2.05,0-2.05-2.32C181.68,191.32,181.68,191.32,184,191.32Z"/><path class="cls-2" d="M138.35,194c2.19,0,2.19,0,2.19,2.17s0,2.23-2.29,2.23c-2.12,0-2.12,0-2.11-2.25S136.14,194,138.35,194Z"/><path class="cls-2" d="M158.3,199c-2.19,0-2.19,0-2.19-2.18s0-2.23,2.29-2.23c2.12,0,2.12,0,2.12,2.25S160.52,199,158.3,199Z"/><path class="cls-2" d="M156.74,167.53c-2.1,0-2.1,0-2.1-2.27s0-2.15,2.38-2.14c2,0,2,0,2,2.34C159,167.53,159,167.53,156.74,167.53Z"/><polygon class="cls-1" points="153.8 232.97 167.48 260.69 198.08 265.14 175.94 286.72 181.16 317.19 153.8 302.8 126.44 317.19 131.66 286.72 109.52 265.14 140.12 260.69 153.8 232.97"/><text class="cls-8" transform="translate(332.49 116.06) scale(0.8 1)">The <tspan class="cls-9" x="199.9" y="0">F</tspan><tspan x="244.36" y="0">aris Brewers</tspan><tspan x="0" y="99.91">G</tspan><tspan class="cls-9" x="65.61" y="99.91">a</tspan><tspan x="121.81" y="99.91">thering 2021</tspan></text><line class="cls-10" x1="346.19" y1="252.02" x2="1023.04" y2="252.02"/><line class="cls-10" x1="346.19" y1="282.74" x2="1023.04" y2="282.74"/><text class="cls-11" transform="translate(372.46 274.08)">20th - 25th Sep 2021 | Johannesburg, South africa</text></g></g></svg>