<svg xmlns="http://www.w3.org/2000/svg" viewBox="0 0 1053.1 317.22"><defs><style>.cls-1{fill:#fff;}.cls-2{fill:red;}.cls-3{fill:#00368a;}.cls-4{fill:#6a5300;}.cls-5{fill:#030303;}.cls-6{fill:#fcfcfc;}.cls-7{fill:#fcd744;}.cls-8{fill:#d6d5d8;}.cls-9{fill:#faaa08;}.cls-10{fill:#fefefe;}.cls-11{fill:#1f0f25;}.cls-12,.cls-13,.cls-14,.cls-16{isolation:isolate;}.cls-13,.cls-14{font-size:83.26px;font-family:AngieOpenPro-Black, Angie Open Pro;font-weight:800;}.cls-14{letter-spacing:-0.06em;}.cls-15{fill:none;stroke:#000;stroke-miterlimit:10;}.cls-16{font-size:24px;font-family:Copperplate-Light, Copperplate;font-weight:300;}</style></defs><g id="Layer_2" data-name="Layer 2"><g id="Layer_1-2" data-name="Layer 1"><path class="cls-1" d="M56.66,170.72h43.82c-.22,8.34-.16,16.48-.72,24.58-.46,6.55-3.59,9.43-10.11,10.41-2.12.32-4.27.4-6.49.6v2.56h66.26v-2.54c-2.35-.23-4.63-.35-6.88-.67-6-.87-9.34-3.76-9.77-9.85-.58-8.22-.44-16.49-.61-24.74,0-.11.13-.21.34-.52h19.25c1.28-8.14,2.54-16.09,3.79-24-1.79-.56-2.73-.23-3.17,1.63a47.34,47.34,0,0,1-2.17,6.68c-.79,2-2.29,3.57-4.5,3.66-4.47.17-9,0-13.63,0v-76c-.81,0-1.43-.09-2-.09H110.39a2.67,2.67,0,0,0-2.67,1.58Q84,124.29,60.26,164.57C59.14,166.47,58,168.37,56.66,170.72Z"/><path class="cls-1" d="M230.29,94c0,1-.06,1.4-.1,1.83a39.44,39.44,0,0,1-10.67,23.73,206.77,206.77,0,0,1-15.27,14c-8.62,7.5-17.55,14.66-26,22.34a47.74,47.74,0,0,0-12.69,18.8c-4,10.79-3.86,22-3.45,33.31,0,.09.15.19.24.29h41.11c-.19-.76-.32-1.36-.49-2a85.44,85.44,0,0,1-3.4-21.78c-.1-13.18,3.43-25.45,9.28-37.16,4.52-9,10.55-17.06,16.22-25.34s10.4-17.32,11.55-27.66c.35-3.18.51-6.39.77-9.76a32.54,32.54,0,0,0-4.19,0,2.91,2.91,0,0,0-1.87,1.09,6.06,6.06,0,0,1-6.19,3.3,51.87,51.87,0,0,1-9.46-2c-5.92-1.86-11.63-4.53-17.64-6-13.57-3.23-25.78-1-35,10.53-.08.1-.3.08-.56.14V84.68h-2.29c-1.55,13.74-3.08,27.32-4.6,40.9,2.67.32,2.64.31,3.07-2.3.37-2.25.67-4.53,1.25-6.74,1.33-5.06,4.1-9.09,9.56-10a29.84,29.84,0,0,1,9.8.17c6.24,1.12,12.36,2.85,18.58,4.14,11.13,2.32,20.51-.34,27.32-10C226.66,98.71,228.32,96.64,230.29,94Z"/><path class="cls-1" d="M211.53,275.26a26.86,26.86,0,0,0-.52-4.38q-2.82-10.45-5.85-20.85c-.86-2.93-2.38-3.91-5.4-3.5a11,11,0,0,0-3.55,1.25,59.51,59.51,0,0,1-15.57,6c-8.82,1.89-17.77,2.17-26.72,2.33-16.37.27-32.14-2.24-46.7-10.27a10.07,10.07,0,0,0-1.4-.58c-2.71-.92-4.75-.09-5.58,2.63-2.23,7.34-4.3,14.73-6.44,22.1a10,10,0,0,0,6.76,12.32c1.77.5,3.51,1.09,5.27,1.66,1.38.44,2.76.89,2.77,2.89a19.7,19.7,0,0,0,1.4-3.23c.49-1.41,1.21-1.77,2.85-1.47,8.79,1.63,17.59,3.27,26.45,4.49,14.69,2,29.28.78,43.72-2.3,4.19-.89,8.3-2.19,12.54-3.33.49,1,1,1.89,1.47,2.87s.74,2,1.11,3l.5-.07c-.31-1.65.68-2.24,1.93-2.66,2.46-.82,5-1.56,7.37-2.53a6.86,6.86,0,0,0,4.5-6.92c-1.93,7.46-8.66,6.94-14.13,8.51l2.12-1.28-2.73.31-.08-.26,3.29-1.56-3.57.47C202,279,206.1,276,211.53,275.26Z"/><path class="cls-1" d="M88,267.16v-.42a32.08,32.08,0,0,0,3.79,1c.48.08,1.42-.25,1.48-.53a2.1,2.1,0,0,0-.48-1.7,37.31,37.31,0,0,0-3.29-2.44c1.29,0,2.45.36,3.63.44.51,0,1.07-.46,1.61-.72-.26-.53-.39-1.24-.82-1.54a37.2,37.2,0,0,0-3.43-1.93c1.86-.88,4.41,2,5.68-1.34l-4.83-2.42a27.48,27.48,0,0,1,3.85,0c.66,0,1.3-.59,1.94-.92A6.79,6.79,0,0,0,96,253.1a16.54,16.54,0,0,0-2.4-1.34,15.1,15.1,0,0,1,2.93.11,6.62,6.62,0,0,0,1.76-.46A8.07,8.07,0,0,0,97,250a13.35,13.35,0,0,0-2.09-.91c-7.09-3.21-13.9-6.84-19.55-12.34-.38-.36-.79-.69-1.57-1.37.39,1.06.59,1.65.82,2.23A84.11,84.11,0,0,1,80.31,258c.25,1.85-.07,3.29-1.82,4.12-2.74,1.29-5.41,2.91-8.3,3.65-3.56.92-7.31,1.09-10.88,1.57,12.39,11.32,27.94,15.72,44,19A57.05,57.05,0,0,1,87.09,277l5.82,2.28c-.09-4-3.39-5.3-5.71-7.5.83.13,1.58.42,2.35.61s1.67.32,2.39.45c1.15-2,.46-3.08-1.33-3.84A15.21,15.21,0,0,1,88,267.16Z"/><path class="cls-1" d="M202.39,286.37c15.48-3.32,31-7.68,43.75-19.34h-2.28c-6.35-.08-12.33-1.44-17.65-5.11a3.15,3.15,0,0,1-1.45-3.37,81.7,81.7,0,0,1,5.72-20.87c.23-.58.44-1.16.66-1.73-7.16,6.67-15.59,10.89-24.58,14.72,1.5,2.79,3.68.12,5.33.9a32,32,0,0,0-2.86,1.59,6.16,6.16,0,0,0-1.12,1.42c.62.36,1.23,1,1.86,1a30.4,30.4,0,0,0,4.16-.44l.11.27-5.22,2.6c1.41,3.08,3.87.56,5.88,1.26l-4.63,2.6.69,1.83,5.1-.86a39,39,0,0,0-3.58,2.7,2.14,2.14,0,0,0-.45,1.74c0,.26,1,.54,1.52.45a35.87,35.87,0,0,0,3.69-1l.22.43-4.82,3.11c.18.78.36,1.62.6,2.67l5.41-1.45c-2.8,2.43-6.18,3.75-6.18,7.71l5.65-2.17.34.7Z"/><path class="cls-1" d="M274.2,147.23c.59,4.28,2.46,8,6.42,10.28a1.94,1.94,0,0,1,1.17,2.25c-1.87,12.78-4.52,25.36-9.41,37.39-7.47,18.41-18.89,34.2-32.46,48.49-3.91,4.11-8.68,7.4-13,11.19-.71.63-1.44,2.43-1.12,2.8a9.82,9.82,0,0,0,3.6,2.35c.44.18,1.33-.5,1.91-.94,17.47-13,30.63-29.57,40.18-49.07,7.37-15.06,10.92-31.22,13.32-47.67.75-5.12,1.54-10.16,4.58-14.55a23.77,23.77,0,0,0,1.6-3.19l-6.66,5.56c-.54-.94-.86-1.52-1.26-2.22-.21.44-.36.71-.49,1-1,2.33-1.48,2.48-3.39.87C277.51,150.3,275.86,148.73,274.2,147.23Z"/><path class="cls-1" d="M14.66,146.9l-.32.21,1.07,2.11c1.62,3.22,3.49,6.25,4.09,10,1.46,9,2.86,18,5,26.75,7.37,30.51,23.78,55.24,48.47,74.56,1.84,1.44,3.2,1.68,5.1.26s2-2.64.19-3.93A113,113,0,0,1,57.46,237c-11.71-14-21.31-29.23-27.21-46.62a173.86,173.86,0,0,1-6.71-29.29c-.31-2-.05-3.12,1.8-4.25,3.42-2.07,5.66-6.61,5.32-9.75l-6.58,6.26-2.15-3.3L20.81,152c-1.21-.9-2.31-1.64-3.32-2.48S15.59,147.79,14.66,146.9Z"/><path class="cls-1" d="M231.17,263.43l.23.31c.52-.19,1-.34,1.55-.58a108.14,108.14,0,0,0,49.08-45,169.84,169.84,0,0,0,22.15-66.58c.59-5.34.71-10.72,1.05-16.09-1,9.59-2.6,19-5.89,28.1-3.58,9.91-8.44,19.06-16.4,26.2-2,1.78-2.18,4-2.87,6.24,9.24-7,14.91-16.39,19.16-26.88a4,4,0,0,1-.23,1.49c-3.31,8.78-6.32,17.69-10,26.3-7.16,16.6-17.23,31.21-31.16,43-2.52,2.12-5.18,4.11-7.6,6.34-4,3.67-7.72,7.55-11.69,11.21C236.19,259.57,233.63,261.44,231.17,263.43Z"/><path class="cls-1" d="M5.92,170.55l.49-.12c4.11,10.08,9.74,19,18.73,25.62-.65-2-1.1-4.25-2.49-5.53-8-7.39-13.23-16.5-16.9-26.6A99.87,99.87,0,0,1,.16,136a8.37,8.37,0,0,0-.16,1.8c.2,3.94.32,7.88.68,11.8,2.31,25,10.39,48.27,23,69.8A106.72,106.72,0,0,0,71.61,263c.66.31,1.34.56,2,.83a3.82,3.82,0,0,0-1.23-1.5l-16.69-15c-1-.93-2-2-3.06-2.84A115,115,0,0,1,32.76,225c-11-13.74-18.09-29.49-24-45.86C7.71,176.33,6.86,173.43,5.92,170.55Z"/><path class="cls-1" d="M226.46,254.62l.54.51c4.36-3.94,8.73-7.86,13.06-11.84a3.64,3.64,0,0,0,.71-1.53c1.91-5.18,3.53-10.49,5.77-15.52,3.54-8,9.93-13.58,17-18.38,2.64-1.79,3.2-4.46,4.18-7.07-1.93,1-3.69,2.07-5.5,3.1A52.63,52.63,0,0,0,237.86,233C235.15,240.76,232.26,248.48,226.46,254.62Z"/><path class="cls-1" d="M78.25,255.38c-2.55-4.44-5-8.36-7.07-12.45a74.34,74.34,0,0,1-3.71-9c-4.09-11.53-10.55-21.22-21.15-27.78-3-1.84-5.94-3.7-8.91-5.55.86,3.19,1.72,6.16,4.81,7.76a23.88,23.88,0,0,1,3.67,2.72c6.52,5.22,11.73,11.39,14.36,19.5,1.21,3.74,2.62,7.41,4,11.11a4.14,4.14,0,0,0,.74,1.52C69.27,247.23,73.63,251.18,78.25,255.38Z"/><path class="cls-2" d="M105.79,32.91c-6.71-3.45-13.58-4.62-20.27-2.17C96.65,17.6,112,11.52,128.76,8.22a1.43,1.43,0,0,0-.79-.14c-8.54,1.2-16.79,3.35-24.45,7.44a7.06,7.06,0,0,1-2.45.88C91,17.49,83.35,22.52,77.69,30.75a43.51,43.51,0,0,0-2.13,4.06l5.3-1.68-4.17,3.7a18,18,0,0,0,9.59.74C92.85,36.34,98.85,32.8,105.79,32.91Z"/><path class="cls-3" d="M228.93,34.72a4.94,4.94,0,0,0-.21-1.07c-.43-.85-.83-1.72-1.34-2.52-4.43-6.92-10.53-11.78-18.51-13.7a63.86,63.86,0,0,1-12.69-4.29,40.73,40.73,0,0,0-7.54-2.6c-4.15-1.06-8.36-1.88-12.54-2.8,32.45,8.37,32,13.44,43.11,22.52-3-.18-6.52-.66-10.07-.55a22.35,22.35,0,0,0-9.89,2.85c4.14,1,8.43,2.07,12.7,3.18,1.72.44,3.38,1.12,5.1,1.55a19.35,19.35,0,0,0,11-.42l-3.7-3.7Z"/><path class="cls-4" d="M144.08,26.31c2.48-1.31,4.64-2.36,6.7-3.58a3,3,0,0,1,3.46-.07c2.09,1.25,4.31,2.28,6.81,3.58-.49-2.95-1-5.49-1.26-8.06a3.58,3.58,0,0,1,.81-2.43c1.7-1.94,3.57-3.72,5.54-5.73-2.65-.4-5.13-.89-7.62-1.1A2.7,2.7,0,0,1,156,7c-1-2.25-2.19-4.44-3.46-7-1.28,2.58-2.41,4.7-3.39,6.89a2.86,2.86,0,0,1-2.64,2c-2.47.23-4.92.74-7.45,1.14,1.89,1.94,3.56,3.75,5.34,5.46a2.76,2.76,0,0,1,1,3C144.86,20.88,144.57,23.34,144.08,26.31Z"/><path class="cls-3" d="M229.89,55l12.91,6.84a74.46,74.46,0,0,0,7.8,4,83.89,83.89,0,0,0,8.63,2.32A24,24,0,0,0,253.41,58c-4.09-4-8.87-6.07-14.7-4.86C235.68,53.76,232.66,54.43,229.89,55Z"/><path class="cls-2" d="M45.35,67.51l.28.67c2.83-.75,5.87-1.08,8.46-2.33C61.2,62.44,68.13,58.64,75,55c-2.74-.6-5.67-1.34-8.64-1.84A16.71,16.71,0,0,0,61.07,53C52.63,54.32,48.59,60.51,45.35,67.51Z"/><path class="cls-2" d="M26.83,112.62a35.9,35.9,0,0,0,9.77-10.69q4.92-7.68,9.89-15.34c.41-.63.93-1.2,1.4-1.8A61.2,61.2,0,0,0,36.65,89.1,17.4,17.4,0,0,0,31,94C27.05,99.45,26.19,105.72,26.83,112.62Z"/><path class="cls-3" d="M278.18,112.79v-3.52c0-6.85-1.55-13.16-6.73-18-4.07-3.81-9.63-4.58-14.18-6.7,4,6.36,8.1,12.86,12.26,19.29A33.12,33.12,0,0,0,278.18,112.79Z"/><path class="cls-3" d="M271.69,54.46l-.56.25.6,1.55c1.65,4.19,3.46,8.33,4.89,12.59a17.77,17.77,0,0,1,1.15,7c-.76,8.48-.7,16.87,1.49,25.15.71,2.71,1.41,5.42,2.13,8.18.28-.15.36-.16.39-.21a6.9,6.9,0,0,0,.42-.63c4.74-7.77,4.85-15.8,1.41-24.07-1.82-4.39-3.44-8.86-5.21-13.27C276.19,65.48,273.93,60,271.69,54.46Z"/><path class="cls-2" d="M33.56,55l-.29-.13c-.29.59-.64,1.16-.88,1.76-4,10.06-8.16,20.1-12.07,30.21a22.63,22.63,0,0,0-.91,13.68,28.23,28.23,0,0,0,4,8.94c.36-1.39.59-2.38.88-3.35,2.62-9,4-18.12,2.92-27.48a20.5,20.5,0,0,1,1.35-11c.38-.87.67-1.78,1-2.66Z"/><path class="cls-2" d="M64.27,27.34a19.45,19.45,0,0,0-1.57,1.31c-3.6,3.75-7.13,7.56-10.78,11.26a26.33,26.33,0,0,0-7.59,15.4c-.27,2.06-.37,4.14-.59,6.62C46,60,47.83,58.6,49.53,57c4.24-4,7.4-8.61,8-14.68C58.06,36.62,59.74,31.38,64.27,27.34Z"/><path class="cls-3" d="M260.89,61.72c.18-7.64-1.53-14.15-5.49-18.85S247.29,34,243.19,29.54a14.61,14.61,0,0,0-1.54-1.29c.68,1.28,1.75,2.17,2.36,3.31a34.47,34.47,0,0,1,3.55,11.37A25,25,0,0,0,250,50.42C252.42,55.19,256.7,58.27,260.89,61.72Z"/><path class="cls-3" d="M274.12,80.86c2.12-13.24-3.41-23.49-12.19-32.8a6.32,6.32,0,0,0,.13,1.14A31.6,31.6,0,0,1,263.47,61a13,13,0,0,0,.33,3.4C265.29,71.1,269.52,76,274.12,80.86Z"/><path class="cls-2" d="M30.79,80.93c1.33-1.53,2.67-3,4-4.57,4.41-5.28,7.31-11.1,6.61-18.25a9.08,9.08,0,0,1,.11-2.27c.44-2.63.93-5.24,1.38-7.74C34.3,57.22,28.48,67.5,30.79,80.93Z"/><path class="cls-2" d="M35.91,123.75C24.29,131,20.16,140.23,24.05,150.83c.47-.35.93-.64,1.33-1a20.09,20.09,0,0,0,6.24-9.8C33.13,134.61,34.49,129.17,35.91,123.75Z"/><path class="cls-3" d="M280.85,150.9c3.5-11.9-1-21.73-12-27.12.88,3.18,1.84,6.51,2.74,9.86.54,2,.94,4.07,1.53,6.08A20.83,20.83,0,0,0,280.85,150.9Z"/><path class="cls-2" d="M58.5,70.21c-2.94,0-5.79.12-8.62,0a15.52,15.52,0,0,0-13.45,6.15A29.43,29.43,0,0,0,30.78,88.8a25.78,25.78,0,0,0,10.8-5.1C47.16,79.32,52.66,74.87,58.5,70.21Z"/><path class="cls-3" d="M274,89.11c-2.19-14.49-13.65-21.91-27.28-18.5,3.8,3,7.74,6.16,11.74,9.24,2.82,2.17,5.6,4.4,8.61,6.27C269.15,87.38,271.55,88,274,89.11Z"/><path class="cls-2" d="M60.51,47.37C70.33,40.88,77,32.5,78.69,21c-4.24,3.92-8.89,7.84-13.08,12.21C62,37,61.08,42,60.51,47.37Z"/><path class="cls-3" d="M244.38,47.42c-.61-5.32-1.5-10.47-5.25-14.33C235,28.82,230.45,25,226.18,21,227.93,32.7,234.64,41,244.38,47.42Z"/><path class="cls-2" d="M61.16,51.33c.78.09,1.2.15,1.63.19,5,.42,9.35-1.37,13.56-3.71A45.71,45.71,0,0,1,91,42.68c6-1,12.07-2.3,17.66-5-4.73,1.11-9.5,2.1-14.14,3.49s-9.27,1.54-13.77-.89a7.85,7.85,0,0,0-6.48-.39C68.47,41.9,64.42,45.91,61.16,51.33Z"/><path class="cls-3" d="M197.2,37.87l-.09.55c3.83,1.07,7.65,2.19,11.49,3.18,5.75,1.49,11.81,1.75,17.15,4.74a77.13,77.13,0,0,0,7.84,3.88,18.51,18.51,0,0,0,10.48,1c-2.34-2.67-4.15-5.22-6.42-7.24-4.79-4.25-10.13-6.19-16.34-2.73a9.88,9.88,0,0,1-7.72.6C208.16,40.38,202.66,39.18,197.2,37.87Z"/><path class="cls-3" d="M287.31,99.86c-1.22,9.35-6,18.19-3.71,28a12.29,12.29,0,0,0,8.53-10.46C292.83,110.89,290,105.4,287.31,99.86Z"/><path class="cls-3" d="M284.79,148.85c4.22-2.62,6.86-6.26,7.33-11.29.33-3.54.5-7.09.78-10.63.07-.81.25-1.62.39-2.44l.4-2.26C285.34,129.38,281.6,137.92,284.79,148.85Z"/><path class="cls-3" d="M280.5,131.31h.8a79.89,79.89,0,0,0,.72-8.18c0-4.15-1.19-7.92-5.13-10.17-1.49-.84-3-1.54-4.53-2.39s-2.77-1.75-4.25-2.69C270.62,116.63,272.17,125.78,280.5,131.31Z"/><path class="cls-2" d="M36.76,108c-2.48,1.4-5.06,2.62-7.38,4.23-1.92,1.34-4.19,2.84-5.15,4.84-2.25,4.61-1.91,9.55-.21,14.54C32.74,125.86,34.14,116.51,36.76,108Z"/><path class="cls-4" d="M131.62,11.89l-.53.24c-.62,1.24-1.31,2.44-1.83,3.72a2.59,2.59,0,0,1-2.58,1.79,38.68,38.68,0,0,0-4,.63l-.37.38c4.24,2.28,5.22,5.63,3.07,10.28,1.94-1,3.28-1.56,4.5-2.31a2.39,2.39,0,0,1,2.79,0c1.22.75,2.54,1.34,4.11,2.15a44.71,44.71,0,0,0-.75-4.61,2.31,2.31,0,0,1,.85-2.65c1.09-.92,2.1-1.93,3.14-2.9l.07-.63C135.29,18.63,132.49,16.57,131.62,11.89Z"/><path class="cls-4" d="M165.41,18l.08.74c.84.76,1.64,1.57,2.53,2.27a3.27,3.27,0,0,1,1.3,3.94,28.05,28.05,0,0,0-.61,3.76c1.52-.78,2.79-1.35,4-2.07a2.42,2.42,0,0,1,2.95,0,41.09,41.09,0,0,0,4,2.09c-.31-2.18-1.19-4.25-.66-5.87s2.43-2.93,3.92-4.57a37.73,37.73,0,0,0-4.24-.65,2.58,2.58,0,0,1-2.52-1.86c-.52-1.27-1.21-2.46-1.83-3.69l-.44-.22C173,16.55,170.12,18.54,165.41,18Z"/><path class="cls-2" d="M90.16,28.12c9.52,1.84,17.69-.37,24.43-7.34C107.6,18,94.53,21.88,90.16,28.12Z"/><path class="cls-3" d="M214.68,28.14c-4.33-6.31-18.94-10.51-24.29-7.21C197.07,27.79,205.21,29.93,214.68,28.14Z"/><path class="cls-2" d="M80.34,23c3.7-2.56,7.27-5.32,11.12-7.63s8-4.16,12-6.22A54.57,54.57,0,0,0,80.34,23Z"/><path class="cls-3" d="M202.45,9.67c3.69,1.93,7.49,3.69,11,5.84s6.83,4.61,10.23,7A50.42,50.42,0,0,0,202.45,9.67Z"/><path d="M88,267.16A14.8,14.8,0,0,0,90.62,269c1.79.76,2.48,1.79,1.33,3.84-.72-.13-1.57-.24-2.39-.45s-1.52-.48-2.35-.61c2.32,2.2,5.62,3.53,5.71,7.5L87.1,277a57.05,57.05,0,0,0,16.22,9.38c-16-3.26-31.6-7.66-44-19,3.57-.48,7.32-.65,10.88-1.57,2.89-.74,5.56-2.36,8.3-3.65,1.75-.83,2.07-2.27,1.82-4.12a83.65,83.65,0,0,0-5.76-20.46c-.23-.58-.43-1.17-.82-2.23.78.68,1.19,1,1.57,1.37,5.65,5.5,12.46,9.13,19.55,12.34a13.35,13.35,0,0,1,2.09.91,8.07,8.07,0,0,1,1.29,1.45,6.62,6.62,0,0,1-1.76.46,15.1,15.1,0,0,0-2.93-.11,16.54,16.54,0,0,1,2.4,1.34,7.08,7.08,0,0,1,1.21,1.57c-.64.33-1.28.9-1.94.92a27.48,27.48,0,0,0-3.85,0L96.19,258c-1.27,3.3-3.82.46-5.68,1.34A34.48,34.48,0,0,1,94,261.28c.43.3.56,1,.82,1.54-.54.26-1.1.76-1.61.72-1.18-.08-2.34-.43-3.63-.44a37.31,37.31,0,0,1,3.29,2.44,2.1,2.1,0,0,1,.48,1.7c-.06.28-1,.61-1.48.53-1.28-.23-2.53-.67-3.79-1Z"/><path d="M202.39,286.37l15.87-8.63-.34-.7-5.65,2.17c0-4,3.38-5.28,6.18-7.71L213,273c-.24-1.05-.42-1.89-.6-2.67l4.82-3.11-.22-.43a35.87,35.87,0,0,1-3.69,1c-.49.09-1.47-.19-1.52-.45a2.14,2.14,0,0,1,.45-1.74,39,39,0,0,1,3.58-2.7l-5.1.86-.69-1.83,4.63-2.6c-2-.7-4.47,1.82-5.88-1.26l5.22-2.6-.11-.27a30.4,30.4,0,0,1-4.16.44c-.63,0-1.24-.66-1.86-1a6.16,6.16,0,0,1,1.12-1.42,32,32,0,0,1,2.86-1.59c-1.65-.78-3.83,1.89-5.33-.9,9-3.83,17.42-8,24.58-14.72-.22.57-.43,1.15-.66,1.73a81.7,81.7,0,0,0-5.72,20.87,3.15,3.15,0,0,0,1.45,3.37c5.32,3.67,11.3,5,17.65,5.11h2.28C233.42,278.69,217.87,283,202.39,286.37Z"/><path d="M274.2,147.23c1.66,1.5,3.31,3.07,5,4.54,1.91,1.61,2.38,1.46,3.39-.87.13-.29.28-.56.49-1,.4.7.72,1.28,1.26,2.22l6.66-5.56a23.77,23.77,0,0,1-1.6,3.19c-3,4.39-3.83,9.43-4.58,14.55-2.4,16.45-5.95,32.61-13.32,47.67C262,231.47,248.83,248,231.36,261c-.58.44-1.47,1.12-1.91.94a9.82,9.82,0,0,1-3.6-2.35c-.32-.37.41-2.17,1.12-2.8,4.27-3.79,9-7.08,13-11.19,13.57-14.29,25-30.08,32.46-48.49,4.89-12,7.54-24.61,9.41-37.39a1.94,1.94,0,0,0-1.17-2.25C276.66,155.18,274.79,151.51,274.2,147.23Z"/><path d="M14.66,146.9c.93.89,1.83,1.82,2.83,2.65s2.11,1.58,3.32,2.48l1.12-1.93,2.15,3.3,6.58-6.26c.34,3.14-1.9,7.68-5.32,9.75-1.85,1.13-2.11,2.23-1.8,4.25a173.86,173.86,0,0,0,6.71,29.29c5.9,17.39,15.5,32.6,27.21,46.62a112.94,112.94,0,0,0,20.79,19.78c1.81,1.29,1.58,2.62-.19,3.93s-3.26,1.18-5.1-.26c-24.69-19.32-41.1-44.05-48.47-74.56-2.13-8.8-3.53-17.8-5-26.75-.6-3.72-2.47-6.75-4.09-10l-1.07-2.11Z"/><path d="M231.17,263.43c2.46-2,5-3.86,7.34-6,4-3.66,7.73-7.54,11.69-11.21,2.42-2.23,5.08-4.22,7.6-6.34,13.93-11.75,24-26.36,31.16-43,3.72-8.61,6.73-17.52,10-26.3a4,4,0,0,0,.23-1.49C295,179.63,289.31,189,280.07,196c.69-2.2.88-4.46,2.87-6.24,8-7.14,12.82-16.29,16.4-26.2,3.29-9.09,4.88-18.51,5.89-28.1-.34,5.37-.46,10.75-1.05,16.09A169.86,169.86,0,0,1,282,218.15a108.14,108.14,0,0,1-49.08,45,14.2,14.2,0,0,1-1.55.58Z"/><path d="M5.92,170.55c.94,2.88,1.79,5.78,2.82,8.63,5.93,16.37,13.07,32.12,24,45.86a114.74,114.74,0,0,0,19.92,19.35c1.1.84,2,1.91,3.06,2.84l16.69,15a3.82,3.82,0,0,1,1.23,1.5c-.67-.27-1.35-.52-2-.83a106.72,106.72,0,0,1-47.93-43.55C11.07,197.86,3,174.62.68,149.59c-.36-3.92-.48-7.86-.68-11.8A8,8,0,0,1,.16,136,99.79,99.79,0,0,0,5.75,164c3.67,10.1,8.88,19.21,16.9,26.6,1.39,1.28,1.84,3.58,2.49,5.53-9-6.57-14.62-15.54-18.73-25.62Z"/><path d="M226.46,254.62c5.8-6.14,8.69-13.86,11.4-21.57a52.63,52.63,0,0,1,24.34-29.16c1.81-1,3.57-2.15,5.5-3.1-1,2.61-1.54,5.28-4.18,7.07-7,4.8-13.44,10.39-17,18.38-2.24,5-3.86,10.34-5.77,15.52a3.64,3.64,0,0,1-.71,1.53c-4.33,4-8.7,7.9-13.06,11.84Z"/><path d="M78.25,255.38c-4.62-4.2-9-8.15-13.3-12.14a4.14,4.14,0,0,1-.74-1.52c-1.34-3.7-2.75-7.37-4-11.11-2.63-8.11-7.84-14.28-14.36-19.5a23.88,23.88,0,0,0-3.67-2.72c-3.09-1.6-4-4.57-4.81-7.76,3,1.85,5.93,3.71,8.91,5.55,10.6,6.56,17.06,16.25,21.15,27.78a74.34,74.34,0,0,0,3.71,9C73.28,247,75.7,250.94,78.25,255.38Z"/><path class="cls-2" d="M105.79,32.91c-6.94-.11-12.94,3.43-19.51,4.66a18,18,0,0,1-9.59-.74l4.17-3.7-5.3,1.68a43.51,43.51,0,0,1,2.13-4.06C83.35,22.52,91,17.49,101.07,16.4a7.06,7.06,0,0,0,2.45-.88c7.66-4.09,15.91-6.24,24.45-7.44a1.43,1.43,0,0,1,.79.14C112,11.52,96.65,17.6,85.52,30.74,92.21,28.29,99.08,29.46,105.79,32.91ZM90.5,24.56,90.08,24,86.46,26l-.15-.27,2.33-2.88-.16-.2-2.71,1.83.68-1.34a26.24,26.24,0,0,0-8.61,9.22l.38.5Zm1.57,8.15L92,32.34l-8.45,2.33-.11-.32,5-2.8-.27-.47-9,5,.29.55c6.1.41,11.65-1.53,17.06-4.12l-7.19,1.88-.09-.28Z"/><path class="cls-3" d="M228.93,34.72l-4.61-1.55,3.7,3.7a19.35,19.35,0,0,1-11,.42c-1.72-.43-3.38-1.11-5.1-1.55-4.27-1.11-8.56-2.15-12.7-3.18a22.35,22.35,0,0,1,9.89-2.85c3.55-.11,7.11.37,10.07.55-11.12-9.08-10.66-14.15-43.11-22.52,4.18.92,8.39,1.74,12.54,2.8a40.73,40.73,0,0,1,7.54,2.6,63.86,63.86,0,0,0,12.69,4.29c8,1.92,14.08,6.78,18.51,13.7.51.8.91,1.67,1.34,2.52A5,5,0,0,1,228.93,34.72Zm-12.2-11.81-.2.22,1.9,2.55-.18.19-4.09-2.17-.31.53,12.71,8.56.42-.57a27.63,27.63,0,0,0-9-9.43l1,1.52Zm8.63,13.75.24-.66-8.11-4.53-.26.46,4.22,2.45-.16.3L212,32.1l-.09.28,3.87,1.73-.11.35-7.41-2c5.44,2.57,11,4.57,17.11,4.2Z"/><path class="cls-4" d="M144.08,26.31c.49-3,.78-5.43,1.35-7.83a2.76,2.76,0,0,0-1-3C142.65,13.8,141,12,139.09,10c2.53-.4,5-.91,7.45-1.14a2.86,2.86,0,0,0,2.64-2c1-2.19,2.11-4.31,3.39-6.89C153.84,2.59,155,4.78,156,7a2.71,2.71,0,0,0,2.49,1.89c2.49.21,5,.7,7.62,1.1-2,2-3.84,3.79-5.54,5.73a3.58,3.58,0,0,0-.81,2.43c.27,2.57.77,5.11,1.26,8.06-2.5-1.3-4.72-2.33-6.81-3.58a3,3,0,0,0-3.46.07C148.72,24,146.56,25,144.08,26.31Zm8.82-11.4,6,8.24C159,17.19,158.06,15.83,152.9,14.91Zm0-.49,9.62-3.17c-8.12-1.58-5.75-2.36-9.67,3.17Zm-.39-10.91c-3.52,6.08-3.5,7.21,0,10.28Zm-6.16,19.76c5.82-1.81,6.89-3.3,6-8.23Zm-4-12c3.92,5,6.16,5.74,9.48,3.11Z"/><path class="cls-3" d="M229.89,55c2.77-.6,5.79-1.27,8.82-1.89,5.83-1.21,10.61.81,14.7,4.86a24,24,0,0,1,5.82,10.15,83.89,83.89,0,0,1-8.63-2.32,74.46,74.46,0,0,1-7.8-4Zm27.43,11.26c-1.78-3.28-3.77-5.87-6.73-7.59a4.29,4.29,0,0,0,.55.72c.19.22.34.46.51.69a21.14,21.14,0,0,0-14.2-4.19c4.44,1.3,8.84,2.62,12.36,5.89l-4-1.53-.14.28,3.16,2.08-.13.26-2.48-1A19.84,19.84,0,0,0,257.32,66.29Z"/><path class="cls-2" d="M45.35,67.51c3.24-7,7.28-13.19,15.76-14.55a16.71,16.71,0,0,1,5.28.24c3,.5,5.9,1.24,8.64,1.84-6.9,3.6-13.83,7.4-20.94,10.81-2.59,1.25-5.63,1.58-8.46,2.33Zm8.22-8.21-.46-.36-5.63,6.85.41.44a19.63,19.63,0,0,0,11.26-4.69l-2.49,1.1-.13-.27,2.64-1.84-.1-.22L55,61.78c3.59-3.37,8.17-4.53,12.66-5.89a21.1,21.1,0,0,0-14.49,4.33Z"/><path class="cls-2" d="M26.83,112.62c-.64-6.9.22-13.17,4.17-18.59a17.38,17.38,0,0,1,5.65-4.93,61.2,61.2,0,0,1,11.24-4.31c-.47.6-1,1.17-1.4,1.8q-5,7.66-9.89,15.34A35.9,35.9,0,0,1,26.83,112.62Zm3.29-10.87c.85-2.29,1.78-4.75,2.7-7.21-3.56,4.66-4.64,10-4.72,15.76,3.36-3.59,7.31-6.74,8.38-12.32l-2.68,3.85-.44-.26c2.23-4,4.47-7.93,6.76-12a8.51,8.51,0,0,0-1.3,1.1C35.87,94.4,33,98.13,30.12,101.75Z"/><path class="cls-3" d="M278.18,112.79a33.15,33.15,0,0,1-8.65-8.94c-4.16-6.43-8.23-12.93-12.26-19.29,4.55,2.12,10.11,2.89,14.18,6.7,5.18,4.85,6.74,11.16,6.73,18C278.17,110.27,278.18,111.28,278.18,112.79Zm-6.31-18.62q1.51,4.08,3,8.14c-2.95-4.54-5.8-9-10.24-12.83l7,12.41-.4.23-2.51-3.57c.85,5.12,4.63,8.15,7.92,11.58C276.74,104.28,275.43,98.9,271.87,94.17Z"/><path class="cls-3" d="M271.69,54.46c2.24,5.52,4.5,11,6.71,16.55,1.77,4.41,3.39,8.88,5.21,13.27,3.44,8.27,3.33,16.3-1.41,24.07a6.9,6.9,0,0,1-.42.63l-.39.21c-.72-2.76-1.42-5.47-2.13-8.18-2.19-8.28-2.25-16.67-1.49-25.15a17.77,17.77,0,0,0-1.15-7c-1.43-4.26-3.24-8.4-4.89-12.59-.21-.51-.4-1-.6-1.55Zm10.83,31.13h-1v10.6h-.72V84.81h-.32q-.24,4.77-.53,9.54h-.31l-1.11-9A39.87,39.87,0,0,0,282,106c3.3-5.26,3.62-10.78,1.39-16.53v9.14h-.2Q282.87,92.09,282.52,85.59Z"/><path class="cls-2" d="M33.56,55l-4,10c-.35.88-.64,1.79-1,2.66a20.5,20.5,0,0,0-1.35,11c1.08,9.36-.3,18.49-2.92,27.48-.29,1-.52,2-.88,3.35a28.23,28.23,0,0,1-4-8.94,22.63,22.63,0,0,1,.91-13.68c3.91-10.11,8-20.15,12.07-30.21.24-.6.59-1.17.88-1.76ZM24,96.48h-.6V85h-.71c-.3,2.3-.73,4.6-.89,6.91s0,4.56,0,6.84a18.07,18.07,0,0,1-.67-4.44c0-1.47.15-3,.27-4.91-2.33,5.39-1.52,12.71,1.52,16.4C26.23,99,27,91.71,26.54,84l-1.25,9.72H24.9l-.6-8.53H24Z"/><path class="cls-2" d="M64.27,27.34c-4.53,4-6.21,9.28-6.76,15-.58,6.07-3.74,10.66-8,14.68C47.81,58.63,46,60,43.72,62c.22-2.48.32-4.56.59-6.62a26.33,26.33,0,0,1,7.59-15.4c3.65-3.7,7.18-7.51,10.78-11.26A20.13,20.13,0,0,1,64.27,27.34Zm-19.34,32c4.09-2.68,7-5.77,8.5-10.1L50.58,53l-.13-.14q2.86-6.35,5.75-12.69L55.74,40,48.66,50.46l-.31-.18,2-4.28c-4.3,3.46-4.69,8.25-5.42,13.38Z"/><path class="cls-3" d="M260.89,61.72c-4.19-3.45-8.47-6.53-10.86-11.3a25.09,25.09,0,0,1-2.47-7.49A34.44,34.44,0,0,0,244,31.56c-.61-1.14-1.68-2-2.36-3.31a14.61,14.61,0,0,1,1.54,1.29c4.1,4.42,8.33,8.72,12.21,13.33S261.07,54.08,260.89,61.72Zm-11.9-22-.43.21,6.25,13.78-3.38-4.46a19,19,0,0,0,8.29,9.93,16.85,16.85,0,0,0-5.07-13L256.3,50l-.31.14Z"/><path class="cls-3" d="M274.12,80.86c-4.6-4.83-8.83-9.76-10.32-16.41a13,13,0,0,1-.33-3.4,31.53,31.53,0,0,0-1.41-11.85,6.32,6.32,0,0,1-.13-1.14C270.71,57.37,276.24,67.62,274.12,80.86Zm-2.61-11.27-.21.1L265.3,57l-.45.16c1.38,4.78,2.75,9.56,4.29,14.88-1.08-2-1.89-3.44-2.71-4.92.44,3.89,4.06,9.5,7,11.1-.16-4.93.38-9.9-3.57-14.12Z"/><path class="cls-2" d="M30.79,80.93C28.48,67.5,34.3,57.22,42.85,48.1c-.45,2.5-.94,5.11-1.38,7.74a9.08,9.08,0,0,0-.11,2.27c.7,7.15-2.2,13-6.61,18.25C33.46,77.9,32.12,79.4,30.79,80.93Zm.54-2.3c3.84-3.4,6.24-7,7.1-11.64l-2.32,4.29-.18-.08,3.94-13.74-.47-.15L33.81,69.08l-.3-.12,1.23-4.38C31.11,68.69,31.36,73.42,31.33,78.63Z"/><path class="cls-2" d="M35.91,123.75c-1.42,5.42-2.78,10.86-4.29,16.27a20.12,20.12,0,0,1-6.24,9.81c-.4.36-.86.65-1.33,1C20.16,140.23,24.29,131,35.91,123.75Zm-7.73,9.71c-2.68,4.36-6.43,8.45-3.24,14.43l5.1-8.83-.44-.28-1.31,1.05,2.15-7.11a15.45,15.45,0,0,0-1.92,3c-.56,1.11-1.09,2.25-1.63,3.37a7.88,7.88,0,0,1,.36-2.81c.27-.95.61-1.88.93-2.82Z"/><path class="cls-3" d="M280.85,150.9a20.81,20.81,0,0,1-7.74-11.18c-.59-2-1-4.07-1.53-6.08-.9-3.35-1.86-6.68-2.74-9.86C279.84,129.17,284.35,139,280.85,150.9ZM275,138.34c1,3.79,3.54,8.08,5.85,9.53.11-1.92.36-3.67.28-5.41-.16-3.72-3.15-6.11-4.56-9.27l1.83,6.29-.25.06-3.6-7.17-.3.16c.75,2.39,1.51,4.79,2.26,7.19l-.29.14Z"/><path class="cls-2" d="M58.5,70.21c-5.84,4.66-11.34,9.11-16.92,13.47a25.78,25.78,0,0,1-10.8,5.1,29.43,29.43,0,0,1,5.65-12.44,15.52,15.52,0,0,1,13.45-6.15C52.71,70.33,55.56,70.21,58.5,70.21ZM44,72.66c-5,.13-11.25,8-11.46,14.3,5.66-1,13.18-6.18,15.22-10.48-2.28,1-4.61,1.93-6.89,3-1.09.51-2.08,1.21-3.11,1.82l-.33-.52,8.74-6.45-2,.47-.12-.37,6.62-2.65c-4-.06-6.85,1.79-9.76,3.51l-.2-.43Z"/><path class="cls-3" d="M274,89.11a44.6,44.6,0,0,1-6.93-3c-3-1.87-5.79-4.1-8.61-6.27-4-3.08-7.94-6.24-11.74-9.24C260.39,67.2,271.85,74.62,274,89.11ZM260.72,74.37l-.1.35-2.06-.44,8.82,6.48-.37.54-6.09-3.68.25,1.09-4.36-2.59c4,5.41,8.83,9.51,15.8,10.93-2.33-6.77-4.51-13.26-12.49-14.74.68.51,1.49.89,2.22,1.36a20.67,20.67,0,0,1,2,1.53c-3.13-1.65-6.09-3.42-10.06-3.4Z"/><path class="cls-2" d="M60.51,47.37C61.08,42,62,37,65.61,33.18,69.8,28.81,74.45,24.89,78.69,21,77,32.5,70.33,40.88,60.51,47.37Zm8-13C64.19,36.53,63,40.56,62,45.3c2.9-2,5.12-3.77,6.48-6.76,1.67-3.66,4.13-6.94,6.23-10.4a5.73,5.73,0,0,0,.43-1.2l-.22-.07L67.2,37.81l-.43-.27Z"/><path class="cls-3" d="M244.38,47.42C234.64,41,227.93,32.7,226.18,21c4.27,3.95,8.82,7.81,12.95,12.08C242.88,37,243.77,42.1,244.38,47.42ZM229.56,26.23a7.52,7.52,0,0,0,.15.95c1.67,5,5.43,8.76,7.74,13.41.94,1.9,3.3,3.1,5,4.62l.59-.44a48.31,48.31,0,0,0-2.6-6.43,30.67,30.67,0,0,0-3.88-4.56l-.42.36,2,3.52-.44.27Z"/><path class="cls-2" d="M61.16,51.33c3.26-5.42,7.31-9.43,13.09-11.49a7.85,7.85,0,0,1,6.48.39c4.5,2.43,9,2.31,13.77.89s9.41-2.38,14.14-3.49c-5.59,2.75-11.63,4-17.66,5a45.65,45.65,0,0,0-14.63,5.13c-4.21,2.34-8.59,4.13-13.56,3.71A13.18,13.18,0,0,1,61.16,51.33Zm1.71-1a4.09,4.09,0,0,0,.92.08c2.91-.57,6,.08,8.61-2.37,1.72-1.62,4.31-2.33,6.5-3.45l-.09-.29L75.23,45l-.06-.23,4.29-1.47-.17-.69L72.08,44.1,72,43.85,77.74,42l-.07-.3-5.51,1.06a2.5,2.5,0,0,1,1-.88c.37-.19.76-.35,1.65-.74-6,.94-8.82,5-11.94,9.13Z"/><path class="cls-3" d="M197.2,37.87c5.46,1.31,11,2.51,16.39,4a9.88,9.88,0,0,0,7.72-.6c6.21-3.46,11.55-1.52,16.34,2.73,2.27,2,4.08,4.57,6.42,7.24a18.51,18.51,0,0,1-10.48-1,77.13,77.13,0,0,1-7.84-3.88c-5.34-3-11.4-3.25-17.15-4.74-3.84-1-7.66-2.11-11.49-3.18ZM241.62,50.7l.24-.61c-2.79-3.5-5.29-7.36-10.39-8.59l1.16,1.24-5.33-.92-.05.28,4.68,1.42-.07.24-6.34-1-.07.59,4,1.4-.09.26-3.26-.7c2.52,1.63,4.86,3.6,7.54,4.73C236.14,50,239,50.18,241.62,50.7Z"/><path class="cls-3" d="M287.31,99.86c2.69,5.54,5.52,11,4.82,17.5a12.29,12.29,0,0,1-8.53,10.46C281.32,118,286.09,109.21,287.31,99.86Zm.48,7.22c-.66,3.82-1.22,7.11-1.79,10.4l-.41-.06.77-5.74a29.26,29.26,0,0,0-1.75,14.67c4.87-2.06,6.89-9,5.43-12.3-.38,1.28-.73,2.51-1.09,3.73h-.12l.58-6.09-.47,0-.72,5.72h-.43Z"/><path class="cls-3" d="M284.79,148.85c-3.19-10.93.55-19.47,8.9-26.62l-.4,2.26c-.14.82-.32,1.63-.39,2.44-.28,3.54-.45,7.09-.78,10.63C291.65,142.59,289,146.23,284.79,148.85Zm3.2-14.57c-3.56,4.41-4.12,7.38-2.39,11.95,3.44-2.23,5.54-7.22,4.78-11.69l-.88,2.53-.12-2.35h-.27l-2.1,5.17-.2-.07C287.16,138,287.53,136.27,288,134.28Z"/><path class="cls-3" d="M280.5,131.31c-8.33-5.53-9.88-14.68-12.39-23.47,1.48.94,2.83,1.87,4.25,2.69s3,1.55,4.53,2.39c3.94,2.25,5.09,6,5.13,10.17a79.89,79.89,0,0,1-.72,8.18Zm-9.38-19.13-.43.19A37.89,37.89,0,0,0,280.32,130V119.55h-.45c-.16.7-.32,1.39-.51,2.19l-.91-3.48-.38.09.27,2.4c-.94-2-1.78-3.7-2.61-5.44l-.36.14q1,3.87,2,7.73l-.45.15-3.44-8.79-.15,2.85C272.48,115.41,271.8,113.8,271.12,112.18Z"/><path class="cls-2" d="M36.76,108c-2.62,8.55-4,17.9-12.74,23.56-1.7-5-2-9.93.21-14.54,1-2,3.23-3.45,5.15-4.79C31.7,110.58,34.28,109.36,36.76,108Zm-10,12.28-.24-2.16-1,3.17-.28-.07-.2-2h-.55v10.94c4.93-5.33,8.13-11.12,9.28-18l-2.44,5.63.27-3.12-.28-.07-3.15,8.14-.55-.19,1.91-7.26-.29-.13Z"/><path class="cls-4" d="M131.62,11.89c.87,4.68,3.67,6.74,8.46,6.1l-.07.63c-1,1-2,2-3.14,2.9a2.31,2.31,0,0,0-.85,2.65,44.71,44.71,0,0,1,.75,4.61c-1.57-.81-2.89-1.4-4.11-2.15a2.39,2.39,0,0,0-2.79,0c-1.22.75-2.56,1.33-4.5,2.31,2.15-4.65,1.17-8-3.07-10.28l.37-.38a38.68,38.68,0,0,1,4-.63,2.59,2.59,0,0,0,2.58-1.79c.52-1.28,1.21-2.48,1.83-3.72Zm-.8,9.23-6-2C127.28,22.46,127.59,22.56,130.82,21.12Zm.93-.11,5.58-1.85C133.16,18,133.16,18,131.75,21Zm-.7.61c-.79,1.05-1.36,1.79-1.91,2.55s-1.09,1.54-1.86,2.64C131.36,25.11,131.36,25.11,131.05,21.62Zm4.28,5c-.27-4.42-.48-4.69-3.71-5Zm-4.26-6v-5.9C128.77,17.91,128.77,18,131.07,20.62Z"/><path class="cls-4" d="M165.41,18c4.71.52,7.58-1.47,8.46-6.14l.44.22c.62,1.23,1.31,2.42,1.83,3.69a2.58,2.58,0,0,0,2.52,1.86,37.73,37.73,0,0,1,4.24.65c-1.49,1.64-3.38,2.89-3.92,4.57s.35,3.69.66,5.87a41.09,41.09,0,0,1-4-2.09,2.42,2.42,0,0,0-2.95,0c-1.17.72-2.44,1.29-4,2.07A28.05,28.05,0,0,1,169.3,25,3.27,3.27,0,0,0,168,21c-.89-.7-1.69-1.51-2.53-2.27Zm8.79,3.2-6.49-2c1.63,2.42,3.34,3.69,5.95,2.12a1.76,1.76,0,0,1,.55-.09l-4,5.53c4-1.52,4-1.52,4-5.16a1,1,0,0,1,0-.41Zm-.15-.64V14.46c-2.36,3.63-2.36,3.68,0,6.12Zm.6.41,5.69-1.85C176.19,18,176.19,18,174.65,21Zm3.72,5.88c-.73-4.93,0-4.57-3.84-5.27Z"/><path class="cls-2" d="M90.16,28.12c4.37-6.24,17.44-10.12,24.43-7.34C107.85,27.75,99.68,30,90.16,28.12Zm7.06-3.51-.06-.47c1.87-.62,3.92-.58,5.61-2,1-.82,2.58-.9,3.9-1.32-5.64.44-10.41,2.86-15.19,6.34,3.84,1.16,7,.64,10.67-.65l-2.85-.15v-.24l4.92-1.3-.08-.22Z"/><path class="cls-3" d="M214.68,28.14c-9.47,1.79-17.61-.35-24.29-7.21C195.74,17.63,210.35,21.83,214.68,28.14Zm-6.31-4.22c-3.36-1.59-6.72-3.19-10.76-3.31,1.9,1.2,4.14.57,5.76,2.52.81,1,3.32.54,5,.74-2.53,2-5.38.52-8.13.91l5.2,1.36v.22l-2.4.12c3.24,1.26,6.49,1.89,10.29.61C211.46,25.87,209.93,24.89,208.37,23.92Z"/><path class="cls-2" d="M80.34,23a54.44,54.44,0,0,1,23.1-13.85c-4,2.06-8.13,3.91-12,6.22S84,20.51,80.34,23Z"/><path class="cls-3" d="M202.45,9.67a50.35,50.35,0,0,1,21.28,12.79c-3.4-2.34-6.7-4.84-10.23-7S206.14,11.6,202.45,9.67Z"/><path class="cls-1" d="M100.18,110.59v48H71Z"/><path class="cls-1" d="M118.36,265a11.93,11.93,0,0,0,1.42.51c1.52.41,3,.8,4.93,1.29.47-2.39.94-4.69,1.43-7.16l5.48,1.12a124.37,124.37,0,0,0-3.28,16.91l-6.83-1.42c2.48-2.44,1.71-5.87,3.18-8.84l-6.47-1.69c-.78,3-1.53,5.93-2.32,9l-6.14-1.89a153.78,153.78,0,0,0,5.66-16.29l5.32,1.66Z"/><path class="cls-1" d="M180.54,271.2c.23.69.44,1.15.55,1.63.3,1.35.56,2.71.91,4.4l-14.75,2.22a108.58,108.58,0,0,0-1.66-17.25l5.85-.71a29.7,29.7,0,0,0,0,3.53c.48,3.71,1.13,7.39,1.57,11.11.19,1.7,1,1.94,2.43,1.6C178.56,277,180.29,274.91,180.54,271.2Z"/><path class="cls-1" d="M162.54,274.45c.12,1.67.23,3.35.36,5.31h-15a88,88,0,0,0,.84-17h5.63c-.1,1.54-.25,2.91-.26,4.28,0,3.49,0,7,0,10.47,0,1.46.58,2,2.07,1.9C159.24,279.19,161.2,277.64,162.54,274.45Z"/><path class="cls-1" d="M141.2,279.41l-6-.65c.8-5.68,1.58-11.24,2.39-17l5.15.53C142.23,268,141.73,273.63,141.2,279.41Z"/><path class="cls-1" d="M109.23,282.25l-2.76-.37,2.14,1.33c-4.93-1.08-10.24-1.34-13.34-6.07l.27-.64,13.81,5.34Z"/><path class="cls-1" d="M193.26,257l1.07,3.09-5.86-2.76-.2.41Z"/><path class="cls-2" d="M90.5,24.56,78.22,32.81l-.38-.5a26.24,26.24,0,0,1,8.61-9.22l-.68,1.34,2.71-1.83.16.2-2.33,2.88.15.27L90.08,24Z"/><path class="cls-2" d="M92.07,32.71l-2.84,1.4.09.28,7.19-1.88c-5.41,2.59-11,4.53-17.06,4.12l-.29-.55,9-5,.27.47-5,2.8.11.32L92,32.34Z"/><path class="cls-3" d="M216.73,22.91l2.26,1.4-1-1.52a27.63,27.63,0,0,1,9,9.43l-.42.57-12.72-8.56.31-.53,4.09,2.17.18-.19-1.9-2.55Z"/><path class="cls-3" d="M225.36,36.66c-6.09.33-11.67-1.59-17.09-4.21l7.41,2,.11-.35-3.87-1.73.09-.28,9.28,2.58.16-.3-4.22-2.45.26-.46L225.6,36Z"/><path class="cls-4" d="M152.9,14.91c5.16.92,6.13,2.28,6,8.24Z"/><path class="cls-1" d="M152.85,14.42c3.92-5.53,1.55-4.75,9.62-3.17Z"/><path class="cls-1" d="M152.46,3.51V13.79C149,10.72,149,9.59,152.46,3.51Z"/><path class="cls-4" d="M146.3,23.27l6-8.23C153.19,20,152.12,21.46,146.3,23.27Z"/><path class="cls-4" d="M142.26,11.22l9.48,3.11C148.42,17,146.18,16.26,142.26,11.22Z"/><path class="cls-3" d="M257.32,66.29a19.85,19.85,0,0,1-11.1-4.4l2.48,1,.13-.26-3.16-2.08.14-.28,4,1.53c-3.52-3.27-7.92-4.59-12.36-5.89a21.14,21.14,0,0,1,14.2,4.19c-.17-.23-.32-.47-.51-.69a4.29,4.29,0,0,1-.55-.72C253.55,60.42,255.54,63,257.32,66.29Z"/><path class="cls-2" d="M53.57,59.3l-.42.92a21.1,21.1,0,0,1,14.49-4.33c-4.49,1.36-9.07,2.52-12.66,5.89l4.09-1.47.1.22-2.64,1.84.13.27,2.49-1.1a19.63,19.63,0,0,1-11.26,4.69l-.41-.44,5.63-6.85Z"/><path class="cls-2" d="M30.12,101.75c2.83-3.62,5.75-7.35,8.7-11.07a8.51,8.51,0,0,1,1.3-1.1c-2.29,4.06-4.53,8-6.76,12l.44.26L36.48,98c-1.07,5.58-5,8.73-8.38,12.32.08-5.72,1.16-11.1,4.72-15.76C31.9,97,31,99.46,30.12,101.75Z"/><path class="cls-3" d="M271.87,94.17c3.56,4.73,4.87,10.11,4.79,16-3.29-3.43-7.07-6.46-7.92-11.58l2.51,3.57.4-.23-7-12.41c4.44,3.78,7.29,8.29,10.24,12.83Q273.39,98.24,271.87,94.17Z"/><path class="cls-3" d="M282.52,85.59q.33,6.51.68,13h.2V89.47c2.23,5.75,1.91,11.27-1.39,16.53a39.93,39.93,0,0,1-3.5-20.64l1.11,9h.31q.27-4.77.53-9.54h.32V96.15h.72V85.55Z"/><path class="cls-2" d="M44.93,59.38c.73-5.13,1.12-9.92,5.4-13.38l-2,4.28.31.18,7.08-10.52.46.21L50.43,52.84l.13.14,2.85-3.7C52,53.61,49,56.7,44.93,59.38Z"/><path class="cls-3" d="M249,39.69l7,10.47.31-.14-1.69-3.83a16.85,16.85,0,0,1,5.07,13,19,19,0,0,1-8.29-9.93l3.38,4.46-6.25-13.78Z"/><path class="cls-3" d="M271.51,69.59l-1.59-5.45c3.95,4.22,3.41,9.19,3.57,14.12-3-1.6-6.58-7.21-7-11.1.82,1.48,1.63,3,2.71,4.92-1.54-5.32-2.91-10.1-4.29-14.88l.45-.16,6,12.65Z"/><path class="cls-2" d="M31.33,78.63c0-5.21-.22-9.94,3.41-14L33.51,69l.3.12L39.4,57.36l.47.15L35.93,71.2l.18.08L38.43,67C37.57,71.58,35.17,75.23,31.33,78.63Z"/><path class="cls-2" d="M28.18,133.46c-.32.94-.66,1.87-.93,2.82a7.88,7.88,0,0,0-.36,2.81c.54-1.12,1.07-2.26,1.63-3.37a15.45,15.45,0,0,1,1.92-3l-2.15,7.11,1.31-1.05.44.28L25,147.89C21.75,141.91,25.5,137.82,28.18,133.46Z"/><path class="cls-3" d="M275,138.34l1.22,1.52.29-.14c-.75-2.4-1.51-4.8-2.26-7.19l.3-.16,3.6,7.17.25-.06-1.83-6.29c1.41,3.16,4.4,5.55,4.56,9.27.08,1.74-.17,3.49-.28,5.41C278.57,146.42,276,142.13,275,138.34Z"/><path class="cls-2" d="M44,72.66,40.7,74.85l.2.43c2.91-1.72,5.78-3.57,9.76-3.51L44,74.42l.12.37,2-.47-8.74,6.45.33.52a30.53,30.53,0,0,1,3.11-1.82c2.28-1.06,4.61-2,6.89-3-2,4.3-9.56,9.49-15.22,10.48C32.79,80.66,39.05,72.79,44,72.66Z"/><path class="cls-3" d="M260.72,74.37l-6.41-2.57c4,0,6.93,1.75,10.06,3.4-.67-.51-1.31-1.07-2-1.53s-1.54-.85-2.22-1.36c8,1.48,10.16,8,12.49,14.74-7-1.42-11.82-5.52-15.8-10.93l4.36,2.59L261,77.62l6,3.68.37-.54-8.82-6.48,2.06.44Z"/><path class="cls-2" d="M68.55,34.33l-1.78,3.21.43.27,7.66-10.94.22.07a5.73,5.73,0,0,1-.43,1.2c-2.1,3.46-4.56,6.74-6.23,10.4-1.36,3-3.58,4.73-6.48,6.76C63,40.56,64.19,36.53,68.55,34.33Z"/><path class="cls-3" d="M229.56,26.23c2.87,4.13,5.5,7.91,8.12,11.7l.44-.27-2-3.52.42-.36a30.67,30.67,0,0,1,3.88,4.56,48.31,48.31,0,0,1,2.6,6.43l-.59.44c-1.72-1.52-4.08-2.72-5-4.62-2.31-4.65-6.07-8.43-7.74-13.41A7.48,7.48,0,0,1,229.56,26.23Z"/><path class="cls-2" d="M62.87,50.3c3.14-4.12,6-8.19,12-9.1-.89.39-1.28.55-1.65.74a2.5,2.5,0,0,0-1,.88l5.51-1.06.07.3L72,43.85l.07.26,7.21-1.46.17.69-4.29,1.47.06.23,3.58-.77.09.29c-2.19,1.12-4.78,1.83-6.5,3.45-2.6,2.45-5.7,1.8-8.61,2.37A3.92,3.92,0,0,1,62.87,50.3Z"/><path class="cls-3" d="M241.62,50.7c-2.63-.52-5.48-.67-7.93-1.67-2.68-1.13-5-3.1-7.54-4.73l3.26.7.09-.26-4-1.4.07-.59,6.34,1,.07-.24-4.68-1.42,0-.28,5.33.92-1.16-1.24c5.1,1.23,7.6,5.09,10.39,8.59Z"/><path class="cls-3" d="M287.79,107.08v10.21h.43l.72-5.72.47.05-.58,6.09H289c.36-1.22.71-2.45,1.09-3.73,1.46,3.27-.56,10.24-5.43,12.3a29.26,29.26,0,0,1,1.75-14.67l-.77,5.74.41.06C286.57,114.19,287.13,110.9,287.79,107.08Z"/><path class="cls-3" d="M270.5,95.9c-.42,2-.8,3.74-1.17,5.5l.2.08,2.09-5.18h.28l.12,2.36.87-2.54c.77,4.47-1.33,9.47-4.78,11.69C266.38,103.28,267,100.3,270.5,95.9Z"/><path class="cls-3" d="M271.12,112.18c.68,1.62,1.36,3.23,2.2,5.19l.15-2.85,3.44,8.79.45-.15c-.66-2.57-1.33-5.14-2-7.73l.36-.14c.83,1.74,1.67,3.47,2.61,5.44l-.27-2.4.38-.09.91,3.48c.19-.8.35-1.49.51-2.19h.45V130a38,38,0,0,1-9.63-17.62Z"/><path class="cls-2" d="M26.73,120.24l2.5-5.08.29.13-1.91,7.26.55.19,3.15-8.14.28.07-.27,3.12,2.44-5.63c-1.15,6.87-4.35,12.66-9.28,18v-11H25l.2,2,.28.07,1-3.17Z"/><path class="cls-4" d="M130.82,21.12c-3.23,1.44-3.54,1.34-6-2Z"/><path class="cls-4" d="M131.75,21c1.41-3,1.41-3,5.58-1.85Z"/><path class="cls-4" d="M131.05,21.62c.31,3.49.31,3.49-3.77,5.19.77-1.1,1.3-1.88,1.86-2.64S130.26,22.67,131.05,21.62Z"/><path class="cls-4" d="M135.33,26.64l-3.71-5C134.85,22,135.06,22.22,135.33,26.64Z"/><path class="cls-4" d="M131.07,20.62c-2.3-2.58-2.3-2.71,0-5.9Z"/><path class="cls-4" d="M174.05,20.58c-2.36-2.44-2.36-2.49,0-6.12Z"/><path class="cls-4" d="M174.21,21.22c0,.12,0,.25-.05.37,0,3.64,0,3.64-4,5.16l4-5.53Z"/><path class="cls-4" d="M174.65,21c1.54-3,1.54-3,5.69-1.85Z"/><path class="cls-4" d="M178.37,26.87l-3.84-5.27C178.36,22.3,177.64,21.94,178.37,26.87Z"/><path class="cls-4" d="M174.21,21.22a1.76,1.76,0,0,0-.55.09c-2.61,1.57-4.32.3-5.95-2.12l6.5,2Z"/><path class="cls-2" d="M97.22,24.61h6.9l.08.22-4.92,1.3v.24l2.85.15c-3.62,1.29-6.83,1.81-10.67.65,4.78-3.48,9.55-5.9,15.19-6.34-1.32.42-2.92.5-3.9,1.32-1.69,1.41-3.74,1.37-5.61,2Z"/><path class="cls-3" d="M208.39,23.9l5,3.19c-3.8,1.28-7,.65-10.29-.61l2.4-.12v-.22l-5.2-1.36c2.75-.39,5.6,1.06,8.13-.91Z"/><path class="cls-3" d="M208.42,23.87c-1.73-.2-4.24.23-5-.74-1.62-2-3.86-1.32-5.76-2.52,4,.12,7.4,1.72,10.77,3.3Z"/><path class="cls-5" d="M150.1,70a25.08,25.08,0,0,0,3.84.86,26.86,26.86,0,0,1,16.71,12.83,1.87,1.87,0,0,0,2.56,1.11,17.7,17.7,0,0,1,21.44,12.14A2.87,2.87,0,0,0,196.5,99a14.17,14.17,0,0,1,4.72,22.59,3,3,0,0,0-.84,2.15A10.88,10.88,0,0,1,193.86,134c-.78.38-1.42,2.58-.88,3.2.32.37.82.17,1.24.17,5.83,0,11.67,0,17.5,0,5.4,0,9.4,3,10.81,8.06a11.75,11.75,0,0,1,.42,3.13q0,18.66,0,37.32a10.79,10.79,0,0,1-8.3,10.94,13.49,13.49,0,0,1-3.58.36c-5.6,0-11.19,0-16.78,0-1.11,0-1.6.24-1.41,1.4a4,4,0,0,1,0,1.15c-.09.74.11,1,.94,1.17,4.73.74,8,4.6,7.71,8.94a8.67,8.67,0,0,1-9,8.29q-40.86,0-81.72,0a8.64,8.64,0,0,1-1.35-17.21c.9-.13,1.05-.44,1-1.25q0-36.09,0-72.17c0-.9-.22-1.25-1.15-1.38a14.19,14.19,0,0,1-4.28-26.9,2.44,2.44,0,0,0,1.26-1.45q3.82-10.34,14.74-12a2.08,2.08,0,0,0,1.84-1.09c4.38-8.21,11.26-12.93,20.39-14.44.2,0,.37,0,.43-.28Zm20.47,132.85c-.21,2.27-.21,2.27-2.61,2.27H111.73c-.53,0-1.06,0-1.59,0a4.32,4.32,0,0,0-3.37,6.45,4.59,4.59,0,0,0,4.39,2.21q40.54,0,81.09,0c.29,0,.58,0,.87,0a4.32,4.32,0,0,0,.12-8.63c-.76-.07-1.54,0-2.31,0-2.29,0-2.29,0-2.41-2.27,0-.34,0-.67,0-1q0-31.12,0-62.25c0-.34,0-.67-.05-1a3.66,3.66,0,0,0,.05-.57,7.57,7.57,0,0,0-.18-2.84c-.32-.67-1.54-.23-2.27-.63-1-.55-1.62-.26-2.39.64-3.25,3.83-7.42,5.3-12.3,4-5.17-1.35-8.16-4.85-9-10.13-.43-2.69-.39-2.63-3.14-2.72-1.2,0-1.4.38-1.39,1.46.06,4.1,0,8.19,0,12.29a7.28,7.28,0,0,1-1.44,4.6,6.91,6.91,0,0,1-12.41-3.83c-.09-1.83,0-3.67-.06-5.5a2.55,2.55,0,0,0-2.55-2.6,2.6,2.6,0,0,0-2.6,2.41,11.29,11.29,0,0,0,0,1.3v19.09c0,3.81.09,7.62,0,11.42a9.35,9.35,0,0,1-12.5,8.52c-3.84-1.32-6.25-4.92-6.26-9.46q0-18.87,0-37.74c0-1.92,0-1.92-1.88-1.92-3.49,0-3.49,0-3.26,3.53,0,.48-.06,1-.06,1.44q0,33.9,0,67.8c0,1.28.28,1.66,1.63,1.65,17.25-.05,34.5,0,51.75,0C170.39,200.77,170.39,200.77,170.57,202.84ZM141.18,103c0,.4-.21.58-.64.56a10.48,10.48,0,0,0-2,0c-1.32.2-1.73-.26-1.9-1.63a13.46,13.46,0,0,0-26.4-1.93,3.63,3.63,0,0,1-2.64,2.86,9.75,9.75,0,0,0-6.26,9.89c.64,5,4,8.56,8.62,9.08,4.32.49,8.67.17,13,.17,1.25,0,1.46.36,1.46,1.52q-.06,21,0,41.94a14.07,14.07,0,0,0,0,1.59,5.06,5.06,0,1,0,10.08-.78c0-10.13,0-20.25,0-30.37,0-4.36,2.91-7.47,6.91-7.48s6.93,3.08,7,7.42c0,1.49,0,3,0,4.48a2.58,2.58,0,0,0,1.71,2.59c1.82.69,3.47-.6,3.48-2.78,0-5.64,0-11.28,0-16.92,0-.61-.19-1.21.87-1.19,3.76.06,7.52,0,11.28,0,.71,0,.89.23.87.9,0,1.64-.07,3.28,0,4.92a7.77,7.77,0,0,0,9.72,7.2c3.14-.81,4.86-3.06,5.84-6,.54-1.62.61-1.63,1.93-.52,1.64,1.37,3.41,2.39,5.63,2.17,4.49-.44,7-4.14,6-8.83a1.37,1.37,0,0,1,.6-1.65c3.3-2.63,4.95-5.94,4.06-10.25a9.8,9.8,0,0,0-4.27-6.24c-.72-.51-1-.39-1.2.49a17.11,17.11,0,0,1-4.18,7.94,18.85,18.85,0,0,1-12.59,5.94c-.51,0-.6-.33-.59-.78a16.18,16.18,0,0,0,0-2.31c-.13-1,.21-1.45,1.28-1.49a11.19,11.19,0,0,0,5.57-1.76c4.09-2.46,6.74-6.15,6.59-10.84A12.89,12.89,0,0,0,179.9,88.8a11.91,11.91,0,0,0-5.69.14c-.87.21-1,.48-.76,1.35a26.89,26.89,0,0,1,.2,13.1,33.1,33.1,0,0,1-3.43,8.48c-.94,0-1.47-.82-2.25-1.14-1.48-.6-1.4-1.37-.67-2.7,7.2-13-.44-29.89-15-33-7.79-1.69-14.77,0-20.73,5.46A21.31,21.31,0,0,0,127.69,85c-.65.9-.38,1.16.54,1.4a16.69,16.69,0,0,1,7.4,4.27A18.28,18.28,0,0,1,141.18,103Zm77.46,64.24c0-6.18,0-12.35,0-18.52,0-4.23-2.66-7-6.79-7-6,0-12,0-17.94,0-.75,0-1,.19-1,1,0,1.69.06,3.38,0,5.07,0,.89.23,1.14,1.13,1.13,3.37,0,6.75,0,10.12,0,4.62,0,7.23,2.64,7.23,7.29q0,11,0,22c0,4.79-2.63,7.41-7.42,7.44-3.28,0-6.56.06-9.84,0-.89,0-1.29.15-1.23,1.16a44.83,44.83,0,0,1,0,4.78c0,.95.26,1.21,1.2,1.2,5.74,0,11.47,0,17.21,0,4.68,0,7.3-2.68,7.31-7.4Zm-25.74,0v13c0,.6-.09,1.12.84,1.11,3.61-.05,7.22,0,10.83,0,1.73,0,2.49-.89,2.49-2.68q0-11.35,0-22.69c0-1.86-.79-2.62-2.65-2.63-3.47,0-6.94,0-10.41,0-.87,0-1.13.19-1.12,1.1C192.93,158.63,192.9,162.91,192.9,167.2Z"/><path class="cls-6" d="M131.6,80.44c6-5.45,12.94-7.15,20.73-5.46,14.53,3.16,22.17,20,15,33.05-.73,1.33-.81,2.1.67,2.7.78.32,1.31,1.14,2.25,1.14,5.48.75,8.72-1.75,9.81-7.12a26.51,26.51,0,0,0,.77-6.27,1.93,1.93,0,0,1,1,1.18c.33,1.94,1.6,1.85,3,1.53a2.8,2.8,0,0,1,.57-.08c1.37,0,1.35-.69,1-1.7a9.76,9.76,0,0,0-6-6.19c.25-1.53-.54-2.93-.54-4.42A12.89,12.89,0,0,1,191,100.87c.15,4.69-2.5,8.38-6.59,10.84a11.19,11.19,0,0,1-5.57,1.76c-1.07,0-1.41.46-1.28,1.49a16.18,16.18,0,0,1,0,2.31c0,.45.08.76.59.78a2.36,2.36,0,0,0,.51,1.46c2.12,3.33,5.7,4.32,9.41,2.52a24.39,24.39,0,0,0,11.22-11c.25-.48.32-1.16,1.1-1.16.89,4.31-.76,7.62-4.06,10.25a1.37,1.37,0,0,0-.6,1.65c1,4.69-1.51,8.39-6,8.83-2.22.22-4-.8-5.63-2.17-1.32-1.11-1.39-1.1-1.93.52-1,3-2.7,5.23-5.84,6a7.77,7.77,0,0,1-9.72-7.2c-.09-1.64-.05-3.28,0-4.92,0-.67-.16-.91-.87-.9-3.76,0-7.52,0-11.28,0-1.06,0-.87.58-.87,1.19,0,5.64,0,11.28,0,16.92,0,2.18-1.66,3.47-3.48,2.78a2.58,2.58,0,0,1-1.71-2.59c0-1.5,0-3,0-4.48,0-4.34-2.93-7.43-7-7.42s-6.91,3.12-6.91,7.48c0,10.12,0,20.24,0,30.37a5.06,5.06,0,1,1-10.08.78,14.07,14.07,0,0,1,0-1.59q0-21,0-41.94c0-1.16-.21-1.52-1.46-1.52-4.33,0-8.68.32-13-.17-4.62-.52-8-4.13-8.62-9.08a9.75,9.75,0,0,1,6.26-9.89,3.63,3.63,0,0,0,2.64-2.86,13.46,13.46,0,0,1,26.4,1.93c.17,1.37.58,1.83,1.9,1.63a10.48,10.48,0,0,1,2,0c.43,0,.61-.16.64-.56,3.73-.76,5.59-5.23,4.67-8.2a22,22,0,0,0-7-10C136.7,82.88,134.09,81.75,131.6,80.44Zm-11,37.26h7.23c3.15,0,3.11,0,3.12-3.17,0-1-.26-1.2-1.21-1.19-5.15,0-10.3,0-15.46,0-.86,0-1.73,0-2.6,0-1.59-.1-2-1-1.13-2.33a1.3,1.3,0,0,0,.22-.5,14.41,14.41,0,0,0-1.27-3.75,5.39,5.39,0,0,0-3,2.33,5.65,5.65,0,0,0-.64,1.44c-1,3.63,1.73,7,5.8,7.15C114.61,117.76,117.6,117.7,120.58,117.7Zm26.5-37c0,2.09,0,2.09,2.07,2.43a14.37,14.37,0,0,1,9.92,6.32c.55.8.57,2.24,1.59,2.34s1.85-.7,2.81-1c.8-.26.87-.6.51-1.33a18.27,18.27,0,0,0-14.76-10.66C147.08,78.55,147.08,78.58,147.08,80.74ZM123.21,96.49c0-.49,0-1,0-1.45.07-.68-.24-.76-.83-.73a9.47,9.47,0,0,0-8,6.68c-.09.43-.18.73.4.82,1,.17,2,.38,3,.59.51.11.71-.06.92-.58a4.88,4.88,0,0,1,3.84-3.13c.64-.11.79-.34.74-.91S123.21,96.92,123.21,96.49Zm17.86,16.87c-1.16,0-2.32.06-3.47,0s-1.06.89-.88,1.42c.34,1-1.11,2.67.84,2.88,2.24.25,4.53,0,6.79.09,1.36,0,1.16-.91,1-1.51-.31-1,1.1-2.55-.92-2.83A24.48,24.48,0,0,0,141.07,113.36Z"/><path class="cls-7" d="M188.51,138.57c0,.34.05.67.05,1q0,31.13,0,62.25c0,.34,0,.67,0,1h-8.7c-.19-2.07-.19-2.07-2.33-2.07a11.36,11.36,0,0,1-1.43,0c-1-.12-1.42.2-1.27,1.23a4.1,4.1,0,0,1-.06.85h-4.16c-.18-2.07-.18-2.07-2.39-2.07-17.25,0-34.5,0-51.75,0-1.35,0-1.63-.37-1.63-1.65q.06-33.9,0-67.8c0-.48,0-1,.06-1.44,1.27-.22,1.66.32,1.66,1.59,0,11.57,0,23.14,0,34.7a12.95,12.95,0,0,0,24.08,7.07,15.71,15.71,0,0,0,1.95-8c.06-5.63,0-11.27,0-16.91,0-.32-.15-.73.2-.93s.48.17.66.37a10.49,10.49,0,0,0,17.38-3.55c.81-2.24.62-4.6,1-7.38.7.82,1.16,1.42,1.69,1.95a15.62,15.62,0,0,0,21.53.23,1.67,1.67,0,0,1,2-.57A4.79,4.79,0,0,0,188.51,138.57Zm-19.89,6.25c0-2.42.31-2.16-1.81-2.17-2.53,0-2.53,0-2.53,1.87,0,2.47,0,2.47,1.94,2.47C168.62,147,168.62,147,168.62,144.82Zm12.72,6.46c0-2.57.33-2.27-1.85-2.27-2.85,0-2.46-.37-2.49,1.92s0,2.42,2,2.42C181.34,153.35,181.34,153.35,181.34,151.28Zm-35.12.91c-2.45,0-2.17-.3-2.19,1.79,0,2.55,0,2.55,1.86,2.55,2.48,0,2.48,0,2.48-1.93C148.37,152.19,148.37,152.19,146.22,152.19ZM168,157.63c0-2.26,0-2.28-1.87-2.26-2.82,0-2.44-.33-2.47,1.8,0,2.54,0,2.54,1.87,2.54C168,159.71,168,159.71,168,157.63Zm16.77,3.78c0-2.59.32-2.28-1.84-2.28-2.83,0-2.47-.34-2.49,1.77,0,2.57,0,2.57,2,2.57C184.81,163.47,184.81,163.47,184.81,161.41Zm-29.17,4.66c2.59,0,2.25.29,2.27-1.71,0-2.63,0-2.63-1.78-2.63-2.56,0-2.56,0-2.56,1.85C153.57,166.07,153.57,166.07,155.64,166.07Zm17.5,3.18c-2.48,0-2.19-.31-2.21,1.77,0,2.57,0,2.57,1.84,2.57,2.5,0,2.5,0,2.5-1.91C175.27,169.25,175.27,169.25,173.14,169.25Zm-26.83,6.94c2.32,0,2,.28,2.05-1.77,0-2.57,0-2.57-1.83-2.57-2.5,0-2.5,0-2.5,1.92C144,176.19,144,176.19,146.31,176.19ZM160.36,180c2.48,0,2.16.3,2.18-1.79,0-2.55,0-2.55-1.87-2.55-2.47,0-2.47,0-2.47,1.94C158.2,180,158.2,180,160.36,180Zm-37.15,1c0-2.45.3-2.16-1.8-2.18-2.54,0-2.54,0-2.54,1.88,0,2.46,0,2.46,1.95,2.46C123.21,183.13,123.21,183.13,123.21,181Zm57-2.18c-2.63,0-2.29-.32-2.31,1.82,0,2.52,0,2.54,1.89,2.52,2.81,0,2.42.33,2.44-1.81C182.23,178.79,182.21,178.79,180.18,178.79Zm-46.62,7.52c2.34,0,2.09.28,2.08-1.75,0-3,.35-2.55-1.82-2.58-2.51,0-2.51,0-2.51,2C131.3,186.31,131.3,186.31,133.56,186.31Zm16.25,1.49c0-2.33.28-2.05-1.76-2.07-2.57,0-2.57,0-2.57,1.84,0,2.5,0,2.5,2.05,2.5C149.81,190.07,149.81,190.07,149.81,187.8Zm20.1,2.85c2.49,0,2.16.29,2.17-1.8,0-2.54,0-2.54-1.87-2.54-2.46,0-2.46,0-2.46,1.95C167.75,190.65,167.75,190.65,169.91,190.65Zm-46.09,2.61c2.28,0,2.3,0,2.28-1.84,0-2.86.33-2.48-1.76-2.5-2.58,0-2.58,0-2.58,1.83C121.76,193.25,121.76,193.25,123.82,193.26Zm56.36-1.61c0,2.47-.3,2.16,1.8,2.18,2.54,0,2.54,0,2.54-1.87,0-2.47,0-2.47-1.94-2.47C180.18,189.49,180.18,189.49,180.18,191.65Zm-42.64.45c-2.45,0-2.16-.31-2.18,1.79,0,2.54,0,2.54,1.87,2.54,2.46,0,2.46,0,2.46-1.93C139.69,192.1,139.69,192.1,137.54,192.1Zm19.69.57c-2.5,0-2.19-.29-2.21,1.78,0,2.56,0,2.56,1.84,2.56,2.5,0,2.5,0,2.5-1.91C159.36,192.67,159.36,192.67,157.23,192.67Z"/><path class="cls-8" d="M179.82,202.84h8.7c.12,2.27.12,2.27,2.41,2.27.77,0,1.55,0,2.31,0a4.32,4.32,0,0,1-.12,8.63c-.29,0-.58,0-.87,0q-40.55,0-81.09,0a4.59,4.59,0,0,1-4.39-2.21,4.32,4.32,0,0,1,3.37-6.45c.53,0,1.06,0,1.59,0H168c2.4,0,2.4,0,2.61-2.27h4.16c.19,2.27.19,2.27,2.54,2.27S179.6,205.11,179.82,202.84Z"/><path class="cls-9" d="M188.51,138.57a4.79,4.79,0,0,1-1.43-.1,1.67,1.67,0,0,0-2,.57,15.62,15.62,0,0,1-21.53-.23c-.53-.53-1-1.13-1.69-1.95-.4,2.78-.21,5.14-1,7.38a10.49,10.49,0,0,1-17.38,3.55c-.18-.2-.32-.56-.66-.37s-.2.61-.2.93c0,5.64,0,11.28,0,16.91a15.71,15.71,0,0,1-1.95,8,12.95,12.95,0,0,1-24.08-7.07c.06-11.56,0-23.13,0-34.7,0-1.27-.39-1.81-1.66-1.59-.23-3.54-.23-3.54,3.26-3.53,1.88,0,1.88,0,1.88,1.92q0,18.87,0,37.74c0,4.54,2.42,8.14,6.26,9.46a9.35,9.35,0,0,0,12.5-8.52c.13-3.8,0-7.61,0-11.42V136.47a11.29,11.29,0,0,1,0-1.3,2.6,2.6,0,0,1,2.6-2.41,2.55,2.55,0,0,1,2.55,2.6c.07,1.83,0,3.67.06,5.5a6.91,6.91,0,0,0,12.41,3.83,7.28,7.28,0,0,0,1.44-4.6c0-4.1,0-8.19,0-12.29,0-1.08.19-1.5,1.39-1.46,2.75.09,2.71,0,3.14,2.72.84,5.28,3.83,8.78,9,10.13,4.88,1.28,9.05-.19,12.3-4,.77-.9,1.38-1.19,2.39-.64.73.4,1.95,0,2.27.63a7.57,7.57,0,0,1,.18,2.84A3.66,3.66,0,0,1,188.51,138.57Z"/><path class="cls-8" d="M218.64,167.22v18.22c0,4.72-2.63,7.4-7.31,7.4-5.74,0-11.47-.05-17.21,0-.94,0-1.25-.25-1.2-1.2a44.83,44.83,0,0,0,0-4.78c-.06-1,.34-1.16,1.23-1.16,3.28,0,6.56,0,9.84,0,4.79,0,7.41-2.65,7.42-7.44q0-11,0-22c0-4.65-2.61-7.27-7.23-7.29-3.37,0-6.75-.07-10.12,0-.9,0-1.16-.24-1.13-1.13.07-1.69.06-3.38,0-5.07,0-.77.22-1,1-1,6,0,12,0,17.94,0,4.13,0,6.77,2.76,6.79,7C218.66,154.87,218.64,161,218.64,167.22Z"/><path class="cls-6" d="M192.9,167.2c0-4.29,0-8.57,0-12.86,0-.91.25-1.11,1.12-1.1,3.47,0,6.94,0,10.41,0,1.86,0,2.65.77,2.65,2.63q0,11.34,0,22.69c0,1.79-.76,2.65-2.49,2.68-3.61.06-7.22,0-10.83,0-.93,0-.84-.51-.84-1.11Z"/><path class="cls-8" d="M200.4,109.92c-.78,0-.85.68-1.1,1.16a24.39,24.39,0,0,1-11.22,11c-3.71,1.8-7.29.81-9.41-2.52a2.36,2.36,0,0,1-.51-1.46,18.85,18.85,0,0,0,12.59-5.94,17.11,17.11,0,0,0,4.18-7.94c.19-.88.48-1,1.2-.49A9.8,9.8,0,0,1,200.4,109.92Z"/><path class="cls-8" d="M131.6,80.44c2.49,1.31,5.1,2.44,7.25,4.33a22,22,0,0,1,7,10c.92,3-.94,7.44-4.67,8.2a18.28,18.28,0,0,0-5.55-12.31,16.69,16.69,0,0,0-7.4-4.27c-.92-.24-1.19-.5-.54-1.4A21.31,21.31,0,0,1,131.6,80.44Z"/><path class="cls-8" d="M179.9,88.8c0,1.49.79,2.89.54,4.42-2.87-.48-2.87-.48-2.86,2.51a3.09,3.09,0,0,1,0,.43c0,.63,0,1,.86,1.11a3.36,3.36,0,0,1,2.37,1.21,26.51,26.51,0,0,1-.77,6.27c-1.09,5.37-4.33,7.87-9.81,7.12a33.1,33.1,0,0,0,3.43-8.48,26.89,26.89,0,0,0-.2-13.1c-.24-.87-.11-1.14.76-1.35A11.91,11.91,0,0,1,179.9,88.8Z"/><path class="cls-5" d="M120.58,117.7c-3,0-6,.06-9,0-4.07-.1-6.81-3.52-5.8-7.15a5.65,5.65,0,0,1,.64-1.44,5.39,5.39,0,0,1,3-2.33,14.41,14.41,0,0,1,1.27,3.75,1.3,1.3,0,0,1-.22.5c-.87,1.36-.46,2.23,1.13,2.33.87.05,1.74,0,2.6,0,5.16,0,10.31,0,15.46,0,.95,0,1.22.24,1.21,1.19,0,3.17,0,3.17-3.12,3.17Z"/><path class="cls-5" d="M147.08,80.74c0-2.16,0-2.19,2.14-1.91A18.27,18.27,0,0,1,164,89.49c.36.73.29,1.07-.51,1.33-1,.31-1.91,1.09-2.81,1s-1-1.54-1.59-2.34a14.37,14.37,0,0,0-9.92-6.32C147.08,82.83,147.08,82.83,147.08,80.74Z"/><path class="cls-5" d="M180.8,98.48a3.36,3.36,0,0,0-2.37-1.21c-.85-.08-.91-.48-.86-1.11a3.09,3.09,0,0,0,0-.43c0-3,0-3,2.86-2.51a9.76,9.76,0,0,1,6,6.19c.33,1,.35,1.74-1,1.7a2.8,2.8,0,0,0-.57.08c-1.42.32-2.69.41-3-1.53A1.93,1.93,0,0,0,180.8,98.48Z"/><path class="cls-5" d="M123.21,96.49c0,.43,0,.86,0,1.29s-.1.8-.74.91a4.88,4.88,0,0,0-3.84,3.13c-.21.52-.41.69-.92.58-1-.21-2-.42-3-.59-.58-.09-.49-.39-.4-.82a9.47,9.47,0,0,1,8-6.68c.59,0,.9,0,.83.73C123.18,95.52,123.21,96,123.21,96.49Z"/><path class="cls-5" d="M141.07,113.36a24.48,24.48,0,0,1,3.32,0c2,.28.61,1.88.92,2.83.2.6.4,1.56-1,1.51-2.26-.09-4.55.16-6.79-.09-1.95-.21-.5-1.91-.84-2.88-.18-.53-.42-1.51.88-1.42S139.91,113.36,141.07,113.36Z"/><path class="cls-5" d="M179.82,202.84c-.22,2.27-.22,2.27-2.55,2.27s-2.35,0-2.54-2.27a4.1,4.1,0,0,0,.06-.85c-.15-1,.3-1.35,1.27-1.23a11.36,11.36,0,0,0,1.43,0C179.63,200.77,179.63,200.77,179.82,202.84Z"/><path class="cls-6" d="M168.62,144.82c0,2.17,0,2.17-2.4,2.17-1.94,0-1.94,0-1.94-2.47,0-1.88,0-1.89,2.53-1.87C168.93,142.66,168.58,142.4,168.62,144.82Z"/><path class="cls-6" d="M181.34,151.28c0,2.07,0,2.07-2.35,2.07-2,0-2,0-2-2.42s-.36-1.91,2.49-1.92C181.67,149,181.3,148.71,181.34,151.28Z"/><path class="cls-6" d="M146.22,152.19c2.15,0,2.15,0,2.15,2.41,0,1.93,0,1.93-2.48,1.93-1.86,0-1.87,0-1.86-2.55C144.05,151.89,143.77,152.22,146.22,152.19Z"/><path class="cls-6" d="M168,157.63c0,2.08,0,2.08-2.47,2.08-1.87,0-1.89,0-1.87-2.54,0-2.13-.35-1.77,2.47-1.8C168,155.35,168,155.37,168,157.63Z"/><path class="cls-6" d="M184.81,161.41c0,2.06,0,2.06-2.35,2.06-2,0-2,0-2-2.57,0-2.11-.34-1.76,2.49-1.77C185.13,159.13,184.77,158.82,184.81,161.41Z"/><path class="cls-6" d="M155.64,166.07c-2.07,0-2.07,0-2.07-2.49,0-1.85,0-1.85,2.56-1.85,1.79,0,1.8,0,1.78,2.63C157.89,166.36,158.23,166,155.64,166.07Z"/><path class="cls-6" d="M173.14,169.25c2.13,0,2.13,0,2.13,2.43,0,1.91,0,1.91-2.5,1.91-1.84,0-1.86,0-1.84-2.57C171,168.94,170.66,169.28,173.14,169.25Z"/><path class="cls-6" d="M146.31,176.19c-2.28,0-2.28,0-2.28-2.42,0-1.92,0-1.92,2.5-1.92,1.84,0,1.85,0,1.83,2.57C148.35,176.47,148.63,176.16,146.31,176.19Z"/><path class="cls-10" d="M160.36,180c-2.16,0-2.16,0-2.16-2.4,0-1.94,0-1.94,2.47-1.94,1.87,0,1.89,0,1.87,2.55C162.52,180.25,162.84,179.91,160.36,180Z"/><path class="cls-6" d="M123.21,181c0,2.16,0,2.16-2.39,2.16-1.95,0-1.95,0-1.95-2.46,0-1.88,0-1.89,2.54-1.88C123.51,178.81,123.18,178.52,123.21,181Z"/><path class="cls-10" d="M180.18,178.79c2,0,2,0,2,2.53,0,2.14.37,1.78-2.44,1.81-1.89,0-1.91,0-1.89-2.52C177.89,178.47,177.55,178.83,180.18,178.79Z"/><path class="cls-6" d="M133.56,186.31c-2.26,0-2.26,0-2.25-2.3,0-2,0-2.06,2.51-2,2.17,0,1.81-.4,1.82,2.58C135.65,186.59,135.9,186.28,133.56,186.31Z"/><path class="cls-10" d="M149.81,187.8c0,2.27,0,2.27-2.28,2.27-2.05,0-2.05,0-2.05-2.5,0-1.84,0-1.85,2.57-1.84C150.09,185.75,149.78,185.47,149.81,187.8Z"/><path class="cls-10" d="M169.91,190.65c-2.16,0-2.16,0-2.16-2.39,0-1.95,0-1.95,2.46-1.95,1.88,0,1.9,0,1.87,2.54C172.07,190.94,172.4,190.62,169.91,190.65Z"/><path class="cls-6" d="M123.82,193.26c-2.06,0-2.06,0-2.06-2.51,0-1.84,0-1.86,2.58-1.83,2.09,0,1.73-.36,1.76,2.5C126.12,193.26,126.1,193.26,123.82,193.26Z"/><path class="cls-10" d="M180.18,191.65c0-2.16,0-2.16,2.4-2.16,1.94,0,1.94,0,1.94,2.47,0,1.87,0,1.89-2.54,1.87C179.88,193.81,180.22,194.12,180.18,191.65Z"/><path class="cls-10" d="M137.54,192.1c2.15,0,2.15,0,2.15,2.4,0,1.93,0,1.93-2.46,1.93-1.87,0-1.89,0-1.87-2.54C135.38,191.79,135.09,192.13,137.54,192.1Z"/><path class="cls-10" d="M157.23,192.67c2.13,0,2.13,0,2.13,2.43,0,1.91,0,1.91-2.5,1.91-1.84,0-1.86,0-1.84-2.56C155,192.38,154.73,192.71,157.23,192.67Z"/><polygon class="cls-11" points="153.79 233 167.47 260.72 198.07 265.17 175.93 286.75 181.15 317.22 153.79 302.83 126.43 317.22 131.65 286.75 109.51 265.17 140.11 260.72 153.79 233"/><g class="cls-12"><text class="cls-13" transform="translate(332.48 116.09) scale(0.8 1)">The </text><text class="cls-14" transform="translate(492.4 116.09) scale(0.8 1)">F</text><text class="cls-13" transform="translate(527.97 116.09) scale(0.8 1)">aris Brewers</text><text class="cls-13" transform="translate(332.48 216) scale(0.8 1)">G</text><text class="cls-14" transform="translate(384.97 216) scale(0.8 1)">a</text><text class="cls-13" transform="translate(429.93 216) scale(0.8 1)">thering 2021</text></g><line class="cls-15" x1="346.18" y1="252.05" x2="1023.03" y2="252.05"/><line class="cls-15" x1="346.18" y1="282.77" x2="1023.03" y2="282.77"/><text class="cls-16" transform="translate(372.45 274.11)">20th - 25th Sep 2021 | Johannesburg, South africa</text></g></g></svg>