<svg xmlns="http://www.w3.org/2000/svg" viewBox="0 0 323.75 96.2"><defs><style>.cls-1{fill:#575757;}.cls-2{fill:#232223;}</style></defs><g id="Layer_2" data-name="Layer 2"><g id="Layer_1-2" data-name="Layer 1"><path class="cls-1" d="M19.82,95.92c1.32-4.07,2.63-8.13,4-12.2,2.39-7.31,4.73-14.65,7.22-21.93.6-1.73.2-2.65-1.23-3.68-9.27-6.61-18.48-13.3-27.7-20-.53-.38-1-.77-2.07-1.54H2.92c11.32,0,22.65,0,34,0a2.56,2.56,0,0,0,3-2.13C43.56,23,47.35,11.53,51.12,0c.84.46.8,1.25,1,1.9,3.57,10.86,7.19,21.69,10.65,32.58.53,1.67,1.19,2.17,2.91,2.16,12.08-.08,24.15,0,36.93,0-1.8,1.34-3.12,2.35-4.47,3.33C89.75,46,81.35,52.14,72.88,58.15c-1.47,1-1.81,1.91-1.23,3.63C75.17,72.21,78.56,82.69,82,93.15c.31.93.84,1.84.39,3L60,80c-2.36-1.7-4.79-3.31-7-5.14-1.22-1-2-.83-3.21,0Q36.12,84.82,22.45,94.65c-.73.52-1.47,1-2.2,1.53Z"/><path class="cls-2" d="M267,37.13c.72-.84,1.51-.51,2.19-.52q6.62,0,13.23,0c5.14,0,8.75,2.44,10,6.64,1.58,5.26.08,9.69-4.44,12.44-1.15.7-1,1.2-.53,2.11,1.8,3.63,3.55,7.29,5.31,10.94.4.84.79,1.64,1.87,1.79a.72.72,0,0,1,.67.87c-.11.53-.61.45-1,.45-2.41,0-4.83-.06-7.24,0-1.27,0-1.49-.85-1.85-1.65-1.62-3.61-3.28-7.22-4.81-10.87-.58-1.38-1.33-2.36-2.9-2-1.42.36-.66,1.67-.7,2.52-.11,2.48-.06,5,0,7.46,0,1.28-.35,2.75,1.51,3.23.17,0,.33.54.32.81,0,.42-.45.42-.78.42H268c-.41,0-.91,0-.91-.56a.92.92,0,0,1,.54-.7c1.34-.36,1.2-1.4,1.2-2.39,0-9.37-.06-18.73.06-28.09C269,38.48,268,37.88,267,37.13Zm9.75,9.72c0,1.65,0,3.3,0,4.94,0,.77.15,1.24,1.07,1.24,2.44,0,5,0,6.4-2.38a7.36,7.36,0,0,0-.09-7.55c-1-1.83-4-2.85-6.44-2-1.95.66-.57,2.54-.91,3.82A7.62,7.62,0,0,0,276.71,46.85Z"/><path class="cls-2" d="M323.75,53.53a52.37,52.37,0,0,1-.73,9.3c-1.46,6.68-6.16,10-13.79,9.68C303.34,72.27,298.84,68,298,61.89a55.25,55.25,0,0,1-.1-14.59c1-7.81,5.56-11.83,13.34-11.7,6.88.12,11.61,4.8,12.23,12.16C323.6,49.81,323.66,51.88,323.75,53.53Zm-17.89.19c.05,3.22-.16,6.47.61,9.64.51,2.09,1.57,3.63,4,3.68a3.83,3.83,0,0,0,4.14-3.51,54.26,54.26,0,0,0,0-19.23,3.78,3.78,0,0,0-4.16-3.45c-2.4.08-3.5,1.59-4,3.73C305.75,47.59,305.91,50.66,305.86,53.72Z"/><path class="cls-2" d="M263.48,54.37c-.21,2.48-.25,5.24-.74,7.91-1.2,6.6-5.67,10.2-12.33,10.23-7,0-11.49-3.39-12.73-10.07a45.3,45.3,0,0,1,0-16.78C239,38.72,244,35.22,251.48,35.6c6.16.32,10.68,4.75,11.44,11.36C263.2,49.33,263.29,51.73,263.48,54.37Zm-18-.59a44.49,44.49,0,0,0,.49,9.15c.57,2.73,1.94,4.09,4.19,4.1s3.84-1.3,4.24-4a62.45,62.45,0,0,0,0-18.06c-.39-2.71-1.93-4.09-4.18-4.12s-3.69,1.31-4.25,4A42.21,42.21,0,0,0,245.48,53.78Z"/><path class="cls-2" d="M153.2,36.61c4.11,0,7.45,0,10.79,0,1.31,0,1.09,1.34,1.33,2.1Q169.7,52.55,174,66.4a13,13,0,0,0,1.6,3.61c.35.48,1.34.66.84,1.52-.36.62-1.06.3-1.6.3-2.83,0-5.65,0-8.48,0-1.24,0-1.87-.2-.7-1.42,1-1.05.23-2.17-.08-3.23-1.55-5.3-1.56-5.3-6.93-5.3-4.35,0-4.47,0-5.51,4.14-.38,1.49-2.23,3.22.18,4.79.55.35.14,1-.69,1h-8c-.41,0-.92,0-1-.52a1,1,0,0,1,.49-.75c1.72-.54,2-2.08,2.48-3.47,2.88-9,5.66-18.15,8.63-27.17C155.8,38.27,154.7,37.86,153.2,36.61Zm9.61,20.88-3.56-12.21-3.62,12.21h7.18Z"/><path class="cls-2" d="M207.57,36.92c6.05-.21,12-.86,17.92,0,5.32.76,7.93,4.37,8.07,10s-2.33,9.12-7.53,10.5a22.17,22.17,0,0,1-6.93.63c-1.38-.08-1.95.31-1.89,1.78.1,2.73,0,5.47,0,8.2,0,1,.09,2,1.28,2.41.45.15.71.44.6.91s-.59.49-1,.49h-9.48c-.4,0-.9.06-1-.49s.27-.73.7-.86c1.15-.35,1.13-1.27,1.13-2.21,0-9.44,0-18.88.05-28.33C209.53,38.38,208.57,37.85,207.57,36.92Zm18,10.37c0-4.72-2.43-6.82-7.1-6.32-1,.11-1.24.5-1.23,1.39,0,3.32,0,6.63,0,10,0,1,.34,1.4,1.42,1.48C223.38,54.16,225.57,52.16,225.55,47.29Z"/><path class="cls-2" d="M179.11,36.64c5.56,0,11.13-.23,16.68.06s8.83,4,9.18,9.63c.37,5.94-2.28,9.78-7.7,11.13a19.19,19.19,0,0,1-6.44.59c-2-.19-2.42.58-2.3,2.38.15,2.31,0,4.64,0,7,0,1.25-.18,2.57,1.41,3.08a.71.71,0,0,1,.47,1c-.16.53-.66.39-1,.39-3.08,0-6.16,0-9.24,0-.37,0-.89.2-1.07-.35s.16-.85.71-1c1.1-.37,1.09-1.33,1.09-2.25,0-9.37,0-18.75.06-28.11C181,38.47,179.85,37.93,179.11,36.64Zm9.46,10.67c0,1.49.09,3,0,4.46s.23,2.09,1.86,2c2.42-.07,4.83-.18,5.88-2.75a8.3,8.3,0,0,0-.59-8.28c-1.1-1.58-4.59-2.57-6.39-1.7-1.65.81-.44,2.5-.71,3.77A12,12,0,0,0,188.57,47.31Z"/><path class="cls-2" d="M120.58,64.92c.29-1.11-.76-3.17.54-3.63s1.48,1.76,2.25,2.72a10.69,10.69,0,0,0,6,4.16,4.65,4.65,0,0,0,5.54-6.59,8.53,8.53,0,0,0-3-3.53c-2.1-1.49-4.27-2.89-6.26-4.51-3.37-2.74-5.3-6.13-4.21-10.65s4.45-6.3,8.65-7.06a17.1,17.1,0,0,1,5.71,0c5.85.93,6.76,2.23,5.75,8.07-.06.3.07.71-.37.81-.65.16-.86-.37-1-.8a6.8,6.8,0,0,0-5.52-4.13c-2.26-.31-4.21.31-5.26,2.42s-.08,3.74,1.53,5c2.65,2.13,5.39,4.15,8.07,6.24a11.37,11.37,0,0,1,4.55,7.44c.81,5.8-2.14,10.14-7.92,11.3a20,20,0,0,1-10.12-.43C121.1,70.39,120.58,69.61,120.58,64.92Z"/></g></g></svg>