<svg xmlns="http://www.w3.org/2000/svg" viewBox="0 0 20.78 16.91"><defs><style>.cls-1{fill:#fff;}</style></defs><g id="Layer_2" data-name="Layer 2"><g id="Layer_1-2" data-name="Layer 1"><path class="cls-1" d="M0,15a8.74,8.74,0,0,0,6.27-1.75,4.41,4.41,0,0,1-4-3,4.67,4.67,0,0,0,1.9-.07A4.27,4.27,0,0,1,.83,6a4.25,4.25,0,0,0,1.89.5A4.28,4.28,0,0,1,1.42.78a12.19,12.19,0,0,0,8.81,4.46,4.55,4.55,0,0,1,0-1.8A4.25,4.25,0,0,1,15.13.06a4.14,4.14,0,0,1,2.21,1.12.38.38,0,0,0,.41.11A11.28,11.28,0,0,0,19,.9,8.55,8.55,0,0,0,20.18.33a4,4,0,0,1-1.8,2.31,3.91,3.91,0,0,0,.82-.13c.27-.06.53-.13.79-.21s.5-.18.79-.29a8,8,0,0,1-1,1.26,7,7,0,0,1-1,.84.24.24,0,0,0-.12.25,12.39,12.39,0,0,1-2.13,7.3A11.48,11.48,0,0,1,11.29,16a12.15,12.15,0,0,1-3.67.87,12.5,12.5,0,0,1-4.51-.45A11.44,11.44,0,0,1,0,15Z"/></g></g></svg>