<svg xmlns="http://www.w3.org/2000/svg" viewBox="0 0 44.53 38.79"><defs><style>.cls-1{fill:#fafafa;}.cls-2{fill:#fcfcfc;}.cls-3{fill:#5e5e5e;}.cls-4{fill:#686868;}.cls-5{fill:#6e6e6e;}.cls-6{fill:#787878;}.cls-7{fill:#545454;}.cls-8{fill:#3e3e3e;}.cls-9{fill:#5c5c5c;}.cls-10{fill:#555;}.cls-11{fill:#424242;}.cls-12{fill:#3b3b3b;}.cls-13{fill:#505050;}.cls-14{fill:#666;}.cls-15{fill:#3d3d3d;}.cls-16{fill:#494949;}.cls-17{fill:#535353;}</style></defs><g id="Layer_2" data-name="Layer 2"><g id="Layer_1-2" data-name="Layer 1"><path class="cls-1" d="M12.65,13.35c2.24-1.07,4.46.28,6.7.05.39,0,.25.29,0,.38a2.84,2.84,0,0,1-.72.07C16.64,13.6,14.57,14.39,12.65,13.35Z"/><path class="cls-2" d="M2.48,13.52c-1,.47-1.72.53-2.36-.17-.3-.33,0-.65.31-.78C1.44,12.11,1.88,12.82,2.48,13.52Z"/><path class="cls-3" d="M22.62,38.74c-6.63,0-13.26-.05-19.88,0C.92,38.8.27,38.29.3,36.4c.11-6.87-.64-5.7,5.59-5.73,12-.05,24,0,36,0,2,0,2.64.67,2.59,2.57-.16,6.79.69,5.45-5.5,5.53C33.56,38.79,28.09,38.74,22.62,38.74Z"/><path class="cls-4" d="M44.05.37,43.94,1a1.09,1.09,0,0,1-.68.2c-.37,0-.75,0-1.13,0s-.56,0-.84,0c-11.82,0-23.63,0-35.43,0a6.15,6.15,0,0,0-3.15.36c-1,.62-.78,1.65-.83,2.58a6.52,6.52,0,0,1-.4,3.06l-.3.27C.19,5.14,1,2.74.7.42A4.18,4.18,0,0,1,3.11,0L42.38,0A2.45,2.45,0,0,1,44.05.37Z"/><path class="cls-5" d="M.68,22.31C.54,15.78.54,15.78,7,15.78H39.8c.91,0,1.81.09,2.72.14-.65,1.55-2.07,1.08-3.2,1.09-11.17,0-22.35,0-33.53,0a10.74,10.74,0,0,0-3.2.19,2,2,0,0,0-.54.57c-.45,1.39.2,3-.64,4.29A.67.67,0,0,1,.68,22.31Z"/><path class="cls-6" d="M.68,22.31h.5l.46-.1c13.56-.22,27.11-.13,40.67-.05a2.69,2.69,0,0,1,.9.28.63.63,0,0,1,.32.78L2.6,23.3C1.82,23.3.86,23.54.68,22.31Z"/><path class="cls-7" d="M1.22,16.84c.72-.84,1.69-.49,2.56-.49,12,0,23.92,0,35.88,0,1,0,2,.32,2.86-.39l1,0a.8.8,0,0,1,0,1.17,2.32,2.32,0,0,1-.83.38,7.32,7.32,0,0,1-.93.09c-12.4,0-24.79,0-37.18,0C3.38,17.53,2.18,17.73,1.22,16.84Z"/><path class="cls-5" d="M43.52,16.83l0-.95c1.2,2.44.8,4.89,0,7.34,0-.17,0-.35-.05-.52A6,6,0,0,1,43.52,16.83Z"/><path class="cls-7" d="M1.21,34.73c-.42-2.37.54-3.06,2.94-3,12,.12,24,0,36,.14,1.07,0,2.5-1.34,3.4.41-.7,1.94.16,4-.47,5.94H1.72C1,37.11,1.87,35.81,1.21,34.73Z"/><path class="cls-8" d="M43,38.19c.19-2-.57-4,.47-5.94C43.26,34.23,44,36.28,43,38.19Z"/><path class="cls-9" d="M1.21,34.73c.93,1,.28,2.31.51,3.46C.71,37.16,1.4,35.88,1.21,34.73Z"/><path class="cls-4" d="M43.52,7.45c-.6.65-1.39.4-2.1.4q-18.95,0-37.89,0c-.8,0-1.67.24-2.35-.45l.05-.06c1.06-.92,2.36-.66,3.58-.66q18.39,0,36.78,0a6.54,6.54,0,0,1,1.82.06A.42.42,0,0,1,43.52,7.45Z"/><path class="cls-7" d="M43.52,7.45V6.88a2,2,0,0,1-.5-.75c-.13-1.77-.67-3.58.52-5.22l.41,0C43.78,3.12,44.5,5.34,43.52,7.45Z"/><path class="cls-10" d="M42.54,7.36H1.23C1.42,5.21.64,3,1.69.91l.3.3c.79,1.4,0,3.08.79,4.48,1,.75,2.06.48,3.11.48,11,0,22,0,32.94,0a7.33,7.33,0,0,1,3.41.37A.63.63,0,0,1,42.54,7.36Z"/><path class="cls-10" d="M1.69.91A1.63,1.63,0,0,1,3.05.46l39.53.1a.87.87,0,0,1-.51.77,7.44,7.44,0,0,1-2.93.33c-11.47-.08-22.94.23-34.4,0-1.08,0-2.17.08-3-.75Z"/><path class="cls-11" d="M42.51.92a1.35,1.35,0,0,1,.07-.36,1,1,0,0,1,.46,0c.61,1.89-.18,3.9.45,5.79l0,.51-1,.48a3.44,3.44,0,0,1,0-.46,4,4,0,0,1-.44-.64,2.88,2.88,0,0,1-.17-.76,25.31,25.31,0,0,1,0-3.14A2.36,2.36,0,0,1,42.51.92Z"/><path class="cls-12" d="M43.49,6.37c-1-1.86-.26-3.87-.45-5.79l.49.33C43.52,2.73,43.5,4.55,43.49,6.37Z"/><path class="cls-13" d="M1.22,16.84h41.3a.51.51,0,0,1-.12.72c-1.1.67-2.44.32-3.59.81a10.74,10.74,0,0,1-2.6.17c-10.16-.62-20.32.5-30.48.14-.67,0-1.78-.15-1.77.85,0,1.15,1.19.94,2,1a67.53,67.53,0,0,0,10.16-.05c6.73-.91,13.38.4,20.07.15,1.57-.06,3.14,0,4.72,0a2.43,2.43,0,0,1,1.76.64c.19.49.22.94-.32,1.25-13.43.09-26.86,0-40.29,0C.65,21,2.08,19,1.2,17.33A2.68,2.68,0,0,1,1.22,16.84Z"/><path class="cls-7" d="M1.2,17.33c1,1.57.27,3.32.5,5a.3.3,0,0,1-.5,0h0C1.19,20.65,1.19,19,1.2,17.33Z"/><path class="cls-14" d="M1.2,22.31H42.52a.37.37,0,1,1,.53.48q-19.77,0-39.52,0C2.73,22.79,1.85,23.07,1.2,22.31Z"/><path class="cls-15" d="M43.05,22.78c0-.15,0-.3,0-.45-.67-1.84-1.12-3.67,0-5.5h.51c0,2,0,3.91,0,5.87A1.26,1.26,0,0,1,43.05,22.78Z"/><path class="cls-16" d="M43,16.83c0,1.83,0,3.67,0,5.5l-.48,0v-1A3.43,3.43,0,0,1,42,18.05a3.88,3.88,0,0,1,.47-.72v-.5Z"/><path class="cls-17" d="M42.52,5.89c0,.17,0,.33,0,.5a3.78,3.78,0,0,1-2.18.23q-18,0-35.93,0c-.94,0-2,.38-2.7-.72v-5H42.51c0,.5,0,1,0,1.49a9.23,9.23,0,0,1-5.82.45,35.74,35.74,0,0,0-5.16-.69c-2,0-3.8,0-4.88,2.1a2.26,2.26,0,0,1-2.11,1.1c-4.47,0-8.94,0-13.41,0-.59,0-1.33,0-1.54-.59C8.81,2.56,7,3.26,5.42,3.22c-.59,0-1.23.16-1.19.94s.64.94,1.24.93c2.24-.06,4.46.28,6.69.32C21,5.57,29.86,5,38.72,5.14,40,5.17,41.39,4.92,42.52,5.89Z"/><path class="cls-16" d="M1.7,5.9a5.63,5.63,0,0,0,3.13.49H42.51V6.9c-12.72,0-25.43,0-38.15,0C3.44,6.86,2.11,7.53,1.7,5.9Z"/><path class="cls-7" d="M42.52,5.89c-12.36,0-24.71-.14-37.06.12-2.67,0-2.28-1.52-2.59-2.83-.19-.79.69-.75,1.25-.76,1.5,0,3-.06,4.48,0,.88,0,2.59-.54,1.39,1.56-.47.83.41.89,1,.9,4.48,0,9,0,13.43,0a1.93,1.93,0,0,0,2.07-1.47c.4-2,1.74-2,3.35-2a22.94,22.94,0,0,1,7.34.85c1.81.57,3.6-.57,5.36.17Z"/><path class="cls-7" d="M41,21.31c-6.43.06-12.87-.4-19.29-.36-5.51,0-11,.35-16.57.36-1.22,0-2.51.28-2.51-1.74s1.27-1.74,2.5-1.74c4,0,8.11.06,12.16,0,3.71-.07,7.4.19,11.12-.4a22,22,0,0,1,8.11.42,3.48,3.48,0,0,0,2.82,1.93C40.2,19.79,41.18,20,41,21.31Z"/><path class="cls-10" d="M41,21.31a1.74,1.74,0,0,0-2.06-1c-2,.3-2.69-.62-2.42-2.5H39a5.45,5.45,0,0,1,3.48,0v3.48Z"/><path class="cls-7" d="M42.51,17.83H39c1-.95,2.32-.31,3.48-.5Z"/></g></g></svg>